{
.appVersion = "1271";
DisplayStrings = (
J,
"T/Tcaron/Tcedilla",
"HUÚÛÜÙ/Uhungarumlaut/Umacron/Uogonek/Uring H",
HVH,
"HW/Wacute/Wcircumflex/Wdieresis/Wgrave H"
);
date = "2019-05-02 01:09:40 +0000";
designerURL = "https://github.com/chrismsimpson/Metropolis";
familyName = Metropolis;
fontMaster = (
{
alignmentZones = (
"{795, 12}",
"{687, 12}",
"{517, 12}",
"{0, -12}",
"{-205, -12}"
);
ascender = 795;
capHeight = 687;
custom = Thin;
customParameters = (
{
name = typoAscender;
value = 795;
},
{
name = typoDescender;
value = -205;
},
{
name = typoLineGap;
value = 0;
},
{
name = winAscent;
value = 795;
},
{
name = winDescent;
value = 205;
},
{
name = hheaAscender;
value = 795;
},
{
name = hheaDescender;
value = -205;
},
{
name = underlinePosition;
value = -133;
},
{
name = underlineThickness;
value = 20;
},
{
name = paramArea;
value = "350";
},
{
name = paramDepth;
value = "5";
},
{
name = paramOver;
value = "2";
}
);
descender = -205;
horizontalStems = (
36
);
iconName = Light;
id = "3B040282-CF47-4846-BCAF-7BFF90FB63BC";
userData = {
GSOffsetHorizontal = 93;
GSOffsetProportional = 1;
GSOffsetVertical = 79;
};
verticalStems = (
36
);
widthValue = 5;
xHeight = 517;
},
{
alignmentZones = (
"{795, 12}",
"{687, 12}",
"{517, 12}",
"{0, -12}",
"{-205, -12}"
);
ascender = 795;
capHeight = 687;
customParameters = (
{
name = typoAscender;
value = 795;
},
{
name = typoDescender;
value = -205;
},
{
name = typoLineGap;
value = 0;
},
{
name = winAscent;
value = 795;
},
{
name = winDescent;
value = 205;
},
{
name = hheaAscender;
value = 795;
},
{
name = hheaDescender;
value = -205;
},
{
name = underlinePosition;
value = -133;
},
{
name = underlineThickness;
value = 20;
},
{
name = paramArea;
value = "310";
},
{
name = paramDepth;
value = "7";
},
{
name = paramOver;
value = "9";
}
);
descender = -205;
guideLines = (
{
locked = 1;
position = "{223, 0}";
}
);
horizontalStems = (
67,
71,
74
);
id = "35616FF6-3D9C-499B-B113-AC9E0DB5842A";
userData = {
GSCornerRadius = 74;

glyphs = (
{
color = 1;
glyphname = A;
lastChange = "2020-01-29 03:36:21 +0000";
layers = (
{
anchors = (
{
name = bottom;
position = "{738, 0}";
},
{
name = top;
position = "{393, 687}";
}
);
guideLines = (
{
angle = 90;
position = "{393, 308}";
}
);
layerId = "35616FF6-3D9C-499B-B113-AC9E0DB5842A";
paths = (
{
closed = 1;
nodes = (
"738 0 LINE",
"435 687 LINE",
"350 687 LINE",
"653 0 LINE"
);
},
{
closed = 1;
nodes = (
"599 156 LINE",
"599 230 LINE",
"180 230 LINE",
"180 156 LINE"
);
},
{
closed = 1;
nodes = (
"132 0 LINE",
"435 687 LINE",
"350 687 LINE",
"47 0 LINE"
);
}
);
width = 785;
},
{
anchors = (
{
name = bottom;
position = "{757, 0}";
},
{
name = top;
position = "{384, 687}";
}
);
guideLines = (
{
angle = 90;
position = "{384, 332}";
}
);
layerId = "A0D976AB-773B-4D3A-9F7E-7A0C42AF1E7B";
paths = (
{
closed = 1;
nodes = (
"757 0 LINE",
"493 687 LINE",
"274 687 LINE",
"538 0 LINE"
);
},
{
closed = 1;
nodes = (
"594 92 LINE",
"594 235 LINE",
"175 235 LINE",
"175 92 LINE"
);
},
{
closed = 1;
nodes = (
"229 0 LINE",
"493 687 LINE",
"274 687 LINE",
"10 0 LINE"
);
}
);
width = 767;
},
{
anchors = (
{
name = bottom;
position = "{720, 0}";
},
{
name = top;
position = "{397, 687}";
}
);
guideLines = (
{
angle = 90;
position = "{397, 600}";
}
);
layerId = "3B040282-CF47-4846-BCAF-7BFF90FB63BC";
paths = (
{
closed = 1;
nodes = (
"720 0 LINE",
"417 687 LINE",
"377 687 LINE",
"680 0 LINE"
);
},
{
closed = 1;
nodes = (
"617 175 LINE",
"617 211 LINE",
"178 211 LINE",
"178 175 LINE"
);
},
{
closed = 1;
nodes = (
"114 0 LINE",
"417 687 LINE",
"377 687 LINE",
"74 0 LINE"
);
}
);
width = 794;
},
{
associatedMasterId = "3B040282-CF47-4846-BCAF-7BFF90FB63BC";
guideLines = (
{
angle = 90;
position = "{338, 600}";
}
);
layerId = "BEAEA6D3-4341-4BD9-B0B1-00836E9E0AD9";
name = bubble;
paths = (
{
closed = 1;
nodes = (
"794 0 LINE",
"615 687 LINE",
"179 687 LINE",
"0 0 LINE"
);
}
);
width = 794;
},
{
associatedMasterId = "35616FF6-3D9C-499B-B113-AC9E0DB5842A";
guideLines = (
{
angle = 90;
position = "{421, 308}";
}
);
layerId = "3DCE6C9F-3B5D-454F-9498-8E48301F885C";
name = bubble;
paths = (
{
closed = 1;
nodes = (
"785 0 LINE",
"657 687 LINE",
"128 687 LINE",
"0 0 LINE"
);
}
);
width = 785;
},
{
associatedMasterId = "A0D976AB-773B-4D3A-9F7E-7A0C42AF1E7B";
guideLines = (
{
angle = 90;
position = "{401, 332}";
}
);
layerId = "16AEEBFE-785E-4C1F-BD1F-9B8F6191CD5C";
name = bubble;
paths = (
{
closed = 1;
nodes = (
"767 0 LINE",
"653 687 LINE",
"114 687 LINE",
"0 0 LINE"
);
}
);
width = 767;
}
);
leftKerningGroup = A;
rightKerningGroup = A;
unicode = 0041;
},
{
color = 1;
glyphname = AE;
lastChange = "2020-01-29 04:14:14 +0000";
layers = (
{
layerId = "3B040282-CF47-4846-BCAF-7BFF90FB63BC";
paths = (
{
closed = 1;
nodes = (
"115 0 LINE",
"216 175 LINE",
"490 175 LINE",
"490 0 LINE",
"941 0 LINE",
"941 36 LINE",
"526 36 LINE",
"526 332 LINE",
"910 332 LINE",
"910 368 LINE",
"526 368 LINE",
"526 651 LINE",
"941 651 LINE",
"941 687 LINE",
"470 687 LINE",
"73 0 LINE"
);
},
{
closed = 1;
nodes = (
"490 651 LINE",
"490 211 LINE",
"237 211 LINE"
);
}
);
width = 1017;
},
{
layerId = "35616FF6-3D9C-499B-B113-AC9E0DB5842A";
paths = (
{
closed = 1;
nodes = (
"136 0 LINE",
"226 156 LINE",
"490 156 LINE",
"490 0 LINE",
"983 0 LINE",
"983 74 LINE",
"569 74 LINE",
"569 313 LINE",
"942 313 LINE",
"942 387 LINE",
"569 387 LINE",
"569 613 LINE",
"983 613 LINE",
"983 687 LINE",
"442 687 LINE",
"46 0 LINE"
);
},
{
closed = 1;
nodes = (
"490 613 LINE",
"490 230 LINE",
"269 230 LINE"
);
}
);
width = 1037;
},
{
layerId = "A0D976AB-773B-4D3A-9F7E-7A0C42AF1E7B";
paths = (
{
closed = 1;
nodes = (
"231 0 LINE",
"284 92 LINE",
"528 92 LINE",
"528 0 LINE",
"1081 0 LINE",
"1081 173 LINE",
"722 173 LINE",
"722 264 LINE",
"1049 264 LINE",
"1049 437 LINE",
"722 437 LINE",
"722 514 LINE",
"1081 514 LINE",
"1081 687 LINE",
"404 687 LINE",
"7 0 LINE"
);
},
{
closed = 1;
nodes = (
"528 514 LINE",
"528 235 LINE",
"367 235 LINE"
);
}
);
width = 1135;
},
{
associatedMasterId = "A0D976AB-773B-4D3A-9F7E-7A0C42AF1E7B";
layerId = "1D964A6A-659A-4343-B6B5-AF95B32089FF";
name = bubble;
paths = (
{
closed = 1;
nodes = (
"1135 0 LINE",
"1135 687 LINE",
"367 687 LINE",
"0 0 LINE"
);
}
);
width = 1135;
},
{
associatedMasterId = "35616FF6-3D9C-499B-B113-AC9E0DB5842A";
layerId = "34F2FA31-809A-4337-99D8-A02B5013B5E0";
name = bubble;
paths = (
{
closed = 1;
nodes = (
"1037 0 LINE",
"1037 687 LINE",
"353 687 LINE",
"0 0 LINE"
);
}
);
width = 1037;
},
{
associatedMasterId = "3B040282-CF47-4846-BCAF-7BFF90FB63BC";
layerId = "A2F2DA0F-CB03-446A-9A93-340371F44250";
name = bubble;
paths = (
{
closed = 1;
nodes = (
"1017 0 LINE",
"1017 687 LINE",
"327 687 LINE",
"0 0 LINE"
);
}
);
width = 1017;
}
);
leftKerningGroup = A;
rightKerningGroup = E;
unicode = 00C6;
},
{
color = 1;
glyphname = B;
lastChange = "2020-01-29 03:40:06 +0000";
layers = (
{
layerId = "35616FF6-3D9C-499B-B113-AC9E0DB5842A";
paths = (
{
closed = 1;
nodes = (
"405 0 LINE SMOOTH",
"524 0 OFFCURVE",
"609 78 OFFCURVE",
"609 188 CURVE SMOOTH",
"609 263 OFFCURVE",
"563 325 OFFCURVE",
"484 365 CURVE",
"546 401 OFFCURVE",
"582 443 OFFCURVE",
"582 516 CURVE SMOOTH",
"582 616 OFFCURVE",
"504 687 OFFCURVE",
"393 687 CURVE SMOOTH",
"78 687 LINE",
"78 0 LINE"
);
},
{
closed = 1;
nodes = (
"156 325 LINE",
"385 325 LINE SMOOTH",
"470 325 OFFCURVE",
"530 272 OFFCURVE",
"530 198 CURVE SMOOTH",
"530 124 OFFCURVE",
"470 71 OFFCURVE",
"385 71 CURVE SMOOTH",
"156 71 LINE"
);
},
{
closed = 1;
nodes = (
"156 616 LINE",
"373 616 LINE SMOOTH",
"449 616 OFFCURVE",
"503 570 OFFCURVE",
"503 506 CURVE SMOOTH",
"503 442 OFFCURVE",
"449 396 OFFCURVE",
"373 396 CURVE SMOOTH",
"156 396 LINE"
);
}
);
width = 661;
},
{
layerId = "A0D976AB-773B-4D3A-9F7E-7A0C42AF1E7B";
paths = (
{
closed = 1;
nodes = (
"450 0 LINE SMOOTH",
"590 0 OFFCURVE",
"690 75 OFFCURVE",
"690 185 CURVE SMOOTH",
"690 261 OFFCURVE",
"643 326 OFFCURVE",
"563 360 CURVE",
"623 389 OFFCURVE",
"658 447 OFFCURVE",
"658 514 CURVE SMOOTH",
"658 614 OFFCURVE",
"567 687 OFFCURVE",
"436 687 CURVE SMOOTH",
"66 687 LINE",
"66 0 LINE"
);
},
{
closed = 1;
nodes = (
"259 273 LINE",
"418 273 LINE SMOOTH",
"460 273 OFFCURVE",
"490 250 OFFCURVE",
"490 218 CURVE SMOOTH",
"490 186 OFFCURVE",
"460 163 OFFCURVE",
"418 163 CURVE SMOOTH",
"259 163 LINE"
);
},
{
closed = 1;
nodes = (
"259 524 LINE",
"389 524 LINE SMOOTH",
"429 524 OFFCURVE",
"458 502 OFFCURVE",
"458 472 CURVE SMOOTH",
"458 442 OFFCURVE",
"429 420 OFFCURVE",
"389 420 CURVE SMOOTH",
"259 420 LINE"
);
}
);
width = 715;
},
{
layerId = "3B040282-CF47-4846-BCAF-7BFF90FB63BC";
paths = (
{
closed = 1;
nodes = (
"397 0 LINE SMOOTH",
"516 0 OFFCURVE",
"601 78 OFFCURVE",
"601 188 CURVE SMOOTH",
"601 264 OFFCURVE",
"550 335 OFFCURVE",
"478 358 CURVE",
"534 377 OFFCURVE",
"574 443 OFFCURVE",
"574 516 CURVE SMOOTH",
"574 616 OFFCURVE",
"496 687 OFFCURVE",
"385 687 CURVE SMOOTH",
"98 687 LINE",
"98 0 LINE"
);
},
{
closed = 1;
nodes = (
"134 340 LINE",
"397 340 LINE SMOOTH",
"495 340 OFFCURVE",
"565 277 OFFCURVE",
"565 188 CURVE SMOOTH",
"565 99 OFFCURVE",
"495 36 OFFCURVE",
"397 36 CURVE SMOOTH",
"134 36 LINE"
);
},
{
closed = 1;
nodes = (
"134 651 LINE",
"385 651 LINE SMOOTH",
"475 651 OFFCURVE",
"538 595 OFFCURVE",
"538 516 CURVE SMOOTH",
"538 434 OFFCURVE",
"480 376 OFFCURVE",
"397 376 CURVE SMOOTH",
"134 376 LINE"
);
}
);
width = 678;
},
{
associatedMasterId = "3B040282-CF47-4846-BCAF-7BFF90FB63BC";
layerId = "3C582D70-AA8F-4F70-9914-35968CA27FB7";
name = bubble;
paths = (
{
closed = 1;
nodes = (
"397 -77 LINE SMOOTH",
"558 -77 OFFCURVE",
"678 35 OFFCURVE",
"678 188 CURVE SMOOTH",
"678 255 OFFCURVE",
"651 319 OFFCURVE",
"606 366 CURVE",
"634 408 OFFCURVE",
"651 461 OFFCURVE",
"651 516 CURVE SMOOTH",
"651 659 OFFCURVE",
"538 764 OFFCURVE",
"385 764 CURVE SMOOTH",
"0 764 LINE",
"0 -77 LINE"
);
}
);
width = 678;
},
{
associatedMasterId = "35616FF6-3D9C-499B-B113-AC9E0DB5842A";
layerId = "6D8C7213-B863-4BC8-B82C-2C545CF2798F";
name = bubble;
paths = (
{
closed = 1;
nodes = (
"405 -52 LINE SMOOTH",
"553 -52 OFFCURVE",
"661 49 OFFCURVE",
"661 188 CURVE SMOOTH",
"661 258 OFFCURVE",
"630 320 OFFCURVE",
"574 368 CURVE",
"615 408 OFFCURVE",
"634 456 OFFCURVE",
"634 516 CURVE SMOOTH",
"634 645 OFFCURVE",
"532 739 OFFCURVE",
"393 739 CURVE SMOOTH",
"0 739 LINE",
"0 -52 LINE"
);
}
);
width = 661;
},
{
associatedMasterId = "A0D976AB-773B-4D3A-9F7E-7A0C42AF1E7B";
layerId = "4ACB3CD6-E728-4141-BCFB-D91B507FC3B8";
name = bubble;
paths = (
{
closed = 1;
nodes = (
"450 -24 LINE SMOOTH",
"605 -24 OFFCURVE",
"715 62 OFFCURVE",
"715 185 CURVE SMOOTH",
"715 257 OFFCURVE",
"677 321 OFFCURVE",
"611 362 CURVE",
"657 398 OFFCURVE",
"683 453 OFFCURVE",
"683 514 CURVE SMOOTH",
"683 629 OFFCURVE",
"579 711 OFFCURVE",
"436 711 CURVE SMOOTH",
"0 711 LINE",
"0 -24 LINE"
);
}
);
width = 715;
}
);
leftKerningGroup = B;
rightKerningGroup = B;
unicode = 0042;
},
{
color = 1;
glyphname = C;
lastChange = "2020-01-29 04:01:46 +0000";
layers = (
{
anchors = (
{
name = bottom;
position = "{406, 0}";
},
{
name = top;
position = "{406, 687}";
}
);
layerId = "35616FF6-3D9C-499B-B113-AC9E0DB5842A";
paths = (
{
closed = 1;
nodes = (
"501 -12 OFFCURVE",
"589 29 OFFCURVE",
"653 93 CURVE",
"600 147 LINE",
"550 94 OFFCURVE",
"481 60 OFFCURVE",
"406 60 CURVE SMOOTH",
"258 60 OFFCURVE",
"133 190 OFFCURVE",
"133 344 CURVE SMOOTH",
"133 497 OFFCURVE",
"258 627 OFFCURVE",
"406 627 CURVE SMOOTH",
"481 627 OFFCURVE",
"550 593 OFFCURVE",
"600 540 CURVE",
"653 594 LINE",
"589 659 OFFCURVE",
"501 699 OFFCURVE",
"406 699 CURVE SMOOTH",
"216 699 OFFCURVE",
"54 537 OFFCURVE",
"54 344 CURVE SMOOTH",
"54 151 OFFCURVE",
"216 -12 OFFCURVE",
"406 -12 CURVE SMOOTH"
);
}
);
width = 701;
},
{
anchors = (
{
name = bottom;
position = "{398, 0}";
},
{
name = top;
position = "{398, 687}";
}
);
layerId = "A0D976AB-773B-4D3A-9F7E-7A0C42AF1E7B";
paths = (
{
closed = 1;
nodes = (
"508 -12 OFFCURVE",
"608 35 OFFCURVE",
"677 110 CURVE",
"535 234 LINE",
"502 192 OFFCURVE",
"453 164 OFFCURVE",
"398 164 CURVE SMOOTH",
"304 164 OFFCURVE",
"224 246 OFFCURVE",
"224 344 CURVE SMOOTH",
"224 441 OFFCURVE",
"304 523 OFFCURVE",
"398 523 CURVE SMOOTH",
"452 523 OFFCURVE",
"502 495 OFFCURVE",
"534 453 CURVE",
"677 578 LINE",
"608 652 OFFCURVE",
"508 699 OFFCURVE",
"398 699 CURVE SMOOTH",
"195 699 OFFCURVE",
"24 537 OFFCURVE",
"24 344 CURVE SMOOTH",
"24 151 OFFCURVE",
"195 -12 OFFCURVE",
"398 -12 CURVE SMOOTH"
);
}
);
width = 689;
},
{
anchors = (
{
name = bottom;
position = "{431, 0}";
},
{
name = top;
position = "{431, 687}";
}
);
layerId = "3B040282-CF47-4846-BCAF-7BFF90FB63BC";
paths = (
{
closed = 1;
nodes = (
"526 -12 OFFCURVE",
"614 29 OFFCURVE",
"678 93 CURVE",
"652 119 LINE",
"595 60 OFFCURVE",
"516 24 OFFCURVE",
"431 24 CURVE SMOOTH",
"259 24 OFFCURVE",
"115 170 OFFCURVE",
"115 344 CURVE SMOOTH",
"115 517 OFFCURVE",
"259 663 OFFCURVE",
"431 663 CURVE SMOOTH",
"516 663 OFFCURVE",
"595 627 OFFCURVE",
"652 569 CURVE",
"678 594 LINE",
"614 659 OFFCURVE",
"526 699 OFFCURVE",
"431 699 CURVE SMOOTH",
"240 699 OFFCURVE",
"79 537 OFFCURVE",
"79 344 CURVE SMOOTH",
"79 151 OFFCURVE",
"240 -12 OFFCURVE",
"431 -12 CURVE SMOOTH"
);
}
);
width = 752;
},
{
anchors = (
{
name = bottom;
position = "{431, 0}";
},
{
name = top;
position = "{431, 687}";
}
);
associatedMasterId = "3B040282-CF47-4846-BCAF-7BFF90FB63BC";
layerId = "DF130446-6A0F-4DF7-A931-D2835617522B";
name = bubble;
paths = (
{
closed = 1;
nodes = (
"552 -91 OFFCURVE",
"668 -37 OFFCURVE",
"752 55 CURVE",
"752 630 LINE",
"671 724 OFFCURVE",
"554 778 OFFCURVE",
"431 778 CURVE SMOOTH",
"196 778 OFFCURVE",
"0 580 OFFCURVE",
"0 344 CURVE SMOOTH",
"0 107 OFFCURVE",
"196 -91 OFFCURVE",
"431 -91 CURVE SMOOTH"
);
}
);
width = 752;
},
{
anchors = (
{
name = bottom;
position = "{406, 0}";
},
{
name = top;
position = "{406, 687}";
}
);
associatedMasterId = "35616FF6-3D9C-499B-B113-AC9E0DB5842A";
layerId = "07984649-89E9-45D8-ACE5-F2DB2959D41B";
name = bubble;
paths = (
{
closed = 1;
nodes = (
"515 -66 OFFCURVE",
"623 -18 OFFCURVE",
"701 64 CURVE",
"700 623 LINE",
"623 705 OFFCURVE",
"515 753 OFFCURVE",
"406 753 CURVE SMOOTH",
"185 753 OFFCURVE",
"0 566 OFFCURVE",
"0 344 CURVE SMOOTH",
"0 122 OFFCURVE",
"186 -66 OFFCURVE",
"406 -66 CURVE SMOOTH"
);
}
);
width = 701;
},
{
anchors = (
{
name = bottom;
position = "{398, 0}";
},
{
name = top;
position = "{398, 687}";
}
);
associatedMasterId = "A0D976AB-773B-4D3A-9F7E-7A0C42AF1E7B";
layerId = "8535A805-E026-430C-8CAD-3F0D0750A055";
name = bubble;
paths = (
{
closed = 1;
nodes = (
"508 -36 OFFCURVE",
"614 9 OFFCURVE",
"689 87 CURVE",
"689 601 LINE",
"614 678 OFFCURVE",
"507 723 OFFCURVE",
"398 723 CURVE SMOOTH",
"182 723 OFFCURVE",
"0 550 OFFCURVE",
"0 344 CURVE SMOOTH",
"0 138 OFFCURVE",
"182 -36 OFFCURVE",
"398 -36 CURVE SMOOTH"
);
}
);
width = 689;
}
);
leftKerningGroup = C;
rightKerningGroup = C;
unicode = 0043;
},
{
color = 1;
glyphname = D;
lastChange = "2020-01-29 05:36:09 +0000";
layers = (
{
anchors = (
{
name = top;
position = "{310, 687}";
}
);
layerId = "35616FF6-3D9C-499B-B113-AC9E0DB5842A";
paths = (
{
closed = 1;
nodes = (
"310 0 LINE SMOOTH",
"528 0 OFFCURVE",
"682 143 OFFCURVE",
"682 344 CURVE SMOOTH",
"682 545 OFFCURVE",
"528 687 OFFCURVE",
"310 687 CURVE SMOOTH",
"78 687 LINE",
"78 0 LINE"
);
},
{
closed = 1;
nodes = (
"156 616 LINE",
"310 616 LINE SMOOTH",
"482 616 OFFCURVE",
"603 503 OFFCURVE",
"603 344 CURVE SMOOTH",
"603 184 OFFCURVE",
"482 71 OFFCURVE",
"310 71 CURVE SMOOTH",
"156 71 LINE"
);
}
);
width = 736;
},
{
anchors = (
{
name = top;
position = "{322, 687}";
}
);
layerId = "A0D976AB-773B-4D3A-9F7E-7A0C42AF1E7B";
paths = (
{
closed = 1;
nodes = (
"322 0 LINE SMOOTH",
"562 0 OFFCURVE",
"732 143 OFFCURVE",
"732 344 CURVE SMOOTH",
"732 545 OFFCURVE",
"562 687 OFFCURVE",
"322 687 CURVE SMOOTH",
"66 687 LINE",
"66 0 LINE"
);
},
{
closed = 1;
nodes = (
"260 511 LINE",
"354 511 LINE SMOOTH",
"458 511 OFFCURVE",
"532 442 OFFCURVE",
"532 344 CURVE SMOOTH",
"532 246 OFFCURVE",
"458 176 OFFCURVE",
"354 176 CURVE SMOOTH",
"260 176 LINE"
);
}
);
width = 756;
},
{
anchors = (
{
name = top;
position = "{333, 687}";
}
);
layerId = "3B040282-CF47-4846-BCAF-7BFF90FB63BC";
paths = (
{
closed = 1;
nodes = (
"333 0 LINE SMOOTH",
"539 0 OFFCURVE",
"685 143 OFFCURVE",
"685 344 CURVE SMOOTH",
"685 545 OFFCURVE",
"539 687 OFFCURVE",
"333 687 CURVE SMOOTH",
"98 687 LINE",
"98 0 LINE"
);
},
{
closed = 1;
nodes = (
"134 651 LINE",
"333 651 LINE SMOOTH",
"518 651 OFFCURVE",
"649 524 OFFCURVE",
"649 344 CURVE SMOOTH",
"649 164 OFFCURVE",
"518 36 OFFCURVE",
"333 36 CURVE SMOOTH",
"134 36 LINE"
);
}
);
width = 764;
},
{
anchors = (
{
name = top;
position = "{333, 687}";
}
);
associatedMasterId = "3B040282-CF47-4846-BCAF-7BFF90FB63BC";
layerId = "C39F1E06-2473-40C4-947D-471A4154D079";
name = bubble;
paths = (
{
closed = 1;
nodes = (
"333 -79 LINE SMOOTH",
"582 -79 OFFCURVE",
"764 99 OFFCURVE",
"764 344 CURVE SMOOTH",
"764 589 OFFCURVE",
"583 766 OFFCURVE",
"333 766 CURVE SMOOTH",
"0 766 LINE",
"0 -79 LINE"
);
}
);
width = 764;
},
{
anchors = (
{
name = top;
position = "{310, 687}";
}
);
associatedMasterId = "35616FF6-3D9C-499B-B113-AC9E0DB5842A";
layerId = "8965BB8B-E9F7-4EA9-B272-CAB86541BF62";
name = bubble;
paths = (
{
closed = 1;
nodes = (
"310 -54 LINE SMOOTH",
"557 -54 OFFCURVE",
"736 113 OFFCURVE",
"736 344 CURVE SMOOTH",
"736 575 OFFCURVE",
"557 741 OFFCURVE",
"310 741 CURVE SMOOTH",
"0 741 LINE",
"0 -54 LINE"
);
}
);
width = 736;
},
{
anchors = (
{
name = top;
position = "{322, 687}";
}
);
associatedMasterId = "A0D976AB-773B-4D3A-9F7E-7A0C42AF1E7B";
layerId = "5E421552-74BD-4460-B5C3-D27E37E5B28F";
name = bubble;
paths = (
{
closed = 1;
nodes = (
"322 -24 LINE SMOOTH",
"575 -24 OFFCURVE",
"756 129 OFFCURVE",
"756 344 CURVE SMOOTH",
"756 559 OFFCURVE",
"575 711 OFFCURVE",
"322 711 CURVE SMOOTH",
"0 711 LINE",
"0 -24 LINE"
);
}
);
width = 756;
}
);
leftKerningGroup = Eth;
rightKerningGroup = D;
unicode = 0044;
},
{
color = 1;
glyphname = Eth;
lastChange = "2020-01-29 05:43:04 +0000";
layers = (
{
layerId = "3B040282-CF47-4846-BCAF-7BFF90FB63BC";
paths = (
{
closed = 1;
nodes = (
"397 0 LINE SMOOTH",
"603 0 OFFCURVE",
"749 143 OFFCURVE",
"749 344 CURVE SMOOTH",
"749 545 OFFCURVE",
"603 687 OFFCURVE",
"397 687 CURVE SMOOTH",
"162 687 LINE",
"162 0 LINE"
);
},
{
closed = 1;
nodes = (
"198 651 LINE",
"397 651 LINE SMOOTH",
"582 651 OFFCURVE",
"713 524 OFFCURVE",
"713 344 CURVE SMOOTH",
"713 164 OFFCURVE",
"582 36 OFFCURVE",
"397 36 CURVE SMOOTH",
"198 36 LINE"
);
},
{
closed = 1;
nodes = (
"422 332 LINE",
"423 368 LINE",
"74 368 LINE",
"74 332 LINE"
);
}
);
width = 828;
},
{
layerId = "35616FF6-3D9C-499B-B113-AC9E0DB5842A";
paths = (
{
closed = 1;
nodes = (
"334 0 LINE SMOOTH",
"552 0 OFFCURVE",
"706 143 OFFCURVE",
"706 344 CURVE SMOOTH",
"706 545 OFFCURVE",
"552 687 OFFCURVE",
"334 687 CURVE SMOOTH",
"102 687 LINE",
"102 0 LINE"
);
},
{
closed = 1;
nodes = (
"180 616 LINE",
"334 616 LINE SMOOTH",
"506 616 OFFCURVE",
"627 503 OFFCURVE",
"627 344 CURVE SMOOTH",
"627 184 OFFCURVE",
"506 71 OFFCURVE",
"334 71 CURVE SMOOTH",
"180 71 LINE"
);
},
{
closed = 1;
nodes = (
"397 313 LINE",
"398 387 LINE",
"49 387 LINE",
"49 313 LINE"
);
}
);
width = 760;
},
{
layerId = "A0D976AB-773B-4D3A-9F7E-7A0C42AF1E7B";
paths = (
{
closed = 1;
nodes = (
"360 0 LINE SMOOTH",
"600 0 OFFCURVE",
"770 143 OFFCURVE",
"770 344 CURVE SMOOTH",
"770 545 OFFCURVE",
"600 687 OFFCURVE",
"360 687 CURVE SMOOTH",
"104 687 LINE",
"104 0 LINE"
);
},
{
closed = 1;
nodes = (
"298 511 LINE",
"392 511 LINE SMOOTH",
"496 511 OFFCURVE",
"570 442 OFFCURVE",
"570 344 CURVE SMOOTH",
"570 246 OFFCURVE",
"496 176 OFFCURVE",
"392 176 CURVE SMOOTH",
"298 176 LINE"
);
},
{
closed = 1;
nodes = (
"418 258 LINE",
"419 431 LINE",
"20 431 LINE",
"20 258 LINE"
);
}
);
width = 794;
},
{
associatedMasterId = "3B040282-CF47-4846-BCAF-7BFF90FB63BC";
layerId = "456712A7-3952-4B6B-A4BB-938EAD9F62EF";
name = bubble;
paths = (
{
closed = 1;
nodes = (
"397 -79 LINE SMOOTH",
"646 -79 OFFCURVE",
"828 99 OFFCURVE",
"828 344 CURVE SMOOTH",
"828 589 OFFCURVE",
"647 766 OFFCURVE",
"397 766 CURVE SMOOTH",
"0 766 LINE",
"0 -79 LINE"
);
}
);
width = 828;
},
{
anchors = (
{
name = top;
position = "{334, 687}";
}
);
associatedMasterId = "35616FF6-3D9C-499B-B113-AC9E0DB5842A";
layerId = "181C8227-C68B-449D-9A7C-13146647E457";
name = bubble;
paths = (
{
closed = 1;
nodes = (
"334 -54 LINE SMOOTH",
"581 -54 OFFCURVE",
"760 113 OFFCURVE",
"760 344 CURVE SMOOTH",
"760 575 OFFCURVE",
"581 741 OFFCURVE",
"334 741 CURVE SMOOTH",
"0 741 LINE",
"0 -54 LINE"
);
}
);
width = 760;
},
{
anchors = (
{
name = top;
position = "{360, 687}";
}
);
associatedMasterId = "A0D976AB-773B-4D3A-9F7E-7A0C42AF1E7B";
layerId = "F2D6DE44-55C3-4F9F-B269-96BE9C9D62C7";
name = bubble;
paths = (
{
closed = 1;
nodes = (
"360 -24 LINE SMOOTH",
"613 -24 OFFCURVE",
"794 129 OFFCURVE",
"794 344 CURVE SMOOTH",
"794 559 OFFCURVE",
"613 711 OFFCURVE",
"360 711 CURVE SMOOTH",
"0 711 LINE",
"0 -24 LINE"
);
}
);
width = 794;
}
);
leftKerningGroup = B;
rightKerningGroup = D;
unicode = 00D0;
},
{
color = 1;
glyphname = E;
lastChange = "2019-05-05 08:50:59 +0000";
layers = (
{
anchors = (
{
name = ae_upper;
position = "{78, 687}";
},
{
name = bottom;
position = "{571, 0}";
},
{
name = top;
position = "{325, 687}";
}
);
layerId = "35616FF6-3D9C-499B-B113-AC9E0DB5842A";
paths = (
{
closed = 1;
nodes = (
"571 0 LINE",
"571 74 LINE",
"137 74 LINE",
"157 54 LINE",
"157 333 LINE",
"137 313 LINE",
"530 313 LINE",
"530 387 LINE",
"137 387 LINE",
"157 367 LINE",
"157 633 LINE",
"137 613 LINE",
"571 613 LINE",
"571 687 LINE",
"78 687 LINE",
"78 0 LINE"
);
}
);
width = 625;
},
{
anchors = (
{
name = ae_upper;
position = "{66, 687}";
},
{
name = bottom;
position = "{619, 0}";
},
{
name = top;
position = "{343, 687}";
}
);
layerId = "A0D976AB-773B-4D3A-9F7E-7A0C42AF1E7B";
paths = (
{
closed = 1;
nodes = (
"619 0 LINE",
"619 173 LINE",
"165 173 LINE",
"260 54 LINE",
"260 333 LINE",
"165 264 LINE",
"587 264 LINE",
"587 437 LINE",
"165 437 LINE",
"260 367 LINE",
"260 633 LINE",
"165 514 LINE",
"619 514 LINE",
"619 687 LINE",
"66 687 LINE",
"66 0 LINE"
);
}
);
width = 673;
},
{
anchors = (
{
name = ae_upper;
position = "{98, 687}";
},
{
name = bottom;
position = "{549, 0}";
},
{
name = top;
position = "{324, 687}";
}
);
layerId = "3B040282-CF47-4846-BCAF-7BFF90FB63BC";
paths = (
{
closed = 1;
nodes = (
"549 0 LINE",
"549 36 LINE",
"125 36 LINE",
"134 26 LINE",
"134 342 LINE",
"125 332 LINE",
"518 332 LINE",
"518 368 LINE",
"125 368 LINE",
"134 358 LINE",
"134 661 LINE",
"125 651 LINE",
"549 651 LINE",
"549 687 LINE",
"98 687 LINE",
"98 0 LINE"
);
}
);
width = 625;
},
{
associatedMasterId = "A0D976AB-773B-4D3A-9F7E-7A0C42AF1E7B";
layerId = "27FAA28E-B668-4486-B587-F990F34B083D";
name = bubble;
paths = (
{
closed = 1;
nodes = (
"673 0 LINE",
"673 687 LINE",
"0 687 LINE",
"0 0 LINE"
);
}
);
width = 673;
},
{
associatedMasterId = "35616FF6-3D9C-499B-B113-AC9E0DB5842A";
layerId = "3C2D3B37-F701-48B0-9A1D-A4956B488915";
name = bubble;
paths = (
{
closed = 1;
nodes = (
"625 0 LINE",
"625 687 LINE",
"0 687 LINE",
"0 0 LINE"
);
}
);
width = 625;
},
{
associatedMasterId = "3B040282-CF47-4846-BCAF-7BFF90FB63BC";
layerId = "86AE491E-59CC-49EE-9AA6-11706D1C2D6B";
name = bubble;
paths = (
{
closed = 1;
nodes = (
"625 0 LINE",
"625 687 LINE",
"0 687 LINE",
"0 0 LINE"
);
}
);
width = 625;
}
);
leftKerningGroup = E;
rightKerningGroup = E;
unicode = 0045;
},
{
color = 1;
glyphname = F;
lastChange = "2019-05-05 08:56:09 +0000";
layers = (
{
layerId = "35616FF6-3D9C-499B-B113-AC9E0DB5842A";
paths = (
{
closed = 1;
nodes = (
"157 0 LINE",
"157 333 LINE",
"137 313 LINE",
"530 313 LINE",
"530 387 LINE",
"137 387 LINE",
"157 367 LINE",
"157 633 LINE",
"137 613 LINE",
"571 613 LINE",
"571 687 LINE",
"78 687 LINE",
"78 0 LINE"
);
}
);
width = 620;
},
{
layerId = "A0D976AB-773B-4D3A-9F7E-7A0C42AF1E7B";
paths = (
{
closed = 1;
nodes = (
"260 0 LINE",
"260 313 LINE",
"165 244 LINE",
"587 244 LINE",
"587 417 LINE",
"165 417 LINE",
"260 347 LINE",
"260 633 LINE",
"165 514 LINE",
"619 514 LINE",
"619 687 LINE",
"66 687 LINE",
"66 0 LINE"
);
}
);
width = 651;
},
{
layerId = "3B040282-CF47-4846-BCAF-7BFF90FB63BC";
paths = (
{
closed = 1;
nodes = (
"134 0 LINE",
"134 342 LINE",
"124 332 LINE",
"528 332 LINE",
"528 368 LINE",
"124 368 LINE",
"134 358 LINE",
"134 661 LINE",
"124 651 LINE",
"569 651 LINE",
"569 687 LINE",
"98 687 LINE",
"98 0 LINE"
);
}
);
width = 643;
},
{
associatedMasterId = "A0D976AB-773B-4D3A-9F7E-7A0C42AF1E7B";
layerId = "9A068429-64AC-45FF-824E-95C6D26C9B57";
name = bubble;
paths = (
{
closed = 1;
nodes = (
"326 0 LINE",
"326 184 LINE",
"651 184 LINE",
"651 687 LINE",
"0 687 LINE",
"0 0 LINE"
);
}
);
width = 651;
},
{
associatedMasterId = "35616FF6-3D9C-499B-B113-AC9E0DB5842A";
layerId = "5C5F683F-F5AF-41DE-894F-9235AD091EB9";
name = bubble;
paths = (
{
closed = 1;
nodes = (
"235 0 LINE",
"235 238 LINE",
"620 238 LINE",
"620 687 LINE",
"0 687 LINE",
"0 0 LINE"
);
}
);
width = 620;
},
{
associatedMasterId = "3B040282-CF47-4846-BCAF-7BFF90FB63BC";
layerId = "78997506-0B11-45C2-8B37-67CE42307754";
name = bubble;
paths = (
{
closed = 1;
nodes = (
"232 0 LINE",
"232 232 LINE",
"643 232 LINE",
"643 687 LINE",
"0 687 LINE",
"0 0 LINE"
);
}
);
width = 643;
}
);
leftKerningGroup = F;
rightKerningGroup = F;
unicode = 0046;
},
{
color = 1;
glyphname = G;
lastChange = "2020-01-29 06:32:20 +0000";
layers = (
{
anchors = (
{
name = bottom;
position = "{406, 0}";
},
{
name = top;
position = "{406, 687}";
}
);
layerId = "35616FF6-3D9C-499B-B113-AC9E0DB5842A";
paths = (
{
closed = 1;
nodes = (
"501 -12 OFFCURVE",
"609 29 OFFCURVE",
"673 93 CURVE",
"620 147 LINE",
"570 94 OFFCURVE",
"481 60 OFFCURVE",
"406 60 CURVE SMOOTH",
"258 60 OFFCURVE",
"133 190 OFFCURVE",
"133 344 CURVE SMOOTH",
"133 497 OFFCURVE",
"258 627 OFFCURVE",
"406 627 CURVE SMOOTH",
"481 627 OFFCURVE",
"570 593 OFFCURVE",
"620 540 CURVE",
"673 594 LINE",
"609 659 OFFCURVE",
"501 699 OFFCURVE",
"406 699 CURVE SMOOTH",
"216 699 OFFCURVE",
"54 537 OFFCURVE",
"54 344 CURVE SMOOTH",
"54 151 OFFCURVE",
"216 -12 OFFCURVE",
"406 -12 CURVE SMOOTH"
);
},
{
closed = 1;
nodes = (
"673 93 LINE",
"673 362 LINE",
"398 362 LINE",
"398 288 LINE",
"627 288 LINE",
"595 329 LINE",
"595 93 LINE"
);
}
);
width = 733;
},
{
anchors = (
{
name = bottom;
position = "{403, 0}";
},
{
name = top;
position = "{403, 687}";
}
);
layerId = "A0D976AB-773B-4D3A-9F7E-7A0C42AF1E7B";
paths = (
{
closed = 1;
nodes = (
"511 -12 OFFCURVE",
"616 33 OFFCURVE",
"687 110 CURVE",
"545 234 LINE",
"510 190 OFFCURVE",
"458 164 OFFCURVE",
"403 164 CURVE SMOOTH",
"305 164 OFFCURVE",
"224 245 OFFCURVE",
"224 344 CURVE SMOOTH",
"224 442 OFFCURVE",
"305 523 OFFCURVE",
"403 523 CURVE SMOOTH",
"458 523 OFFCURVE",
"510 497 OFFCURVE",
"544 453 CURVE",
"687 578 LINE",
"616 654 OFFCURVE",
"511 699 OFFCURVE",
"403 699 CURVE SMOOTH",
"195 699 OFFCURVE",
"24 539 OFFCURVE",
"24 344 CURVE SMOOTH",
"24 148 OFFCURVE",
"195 -12 OFFCURVE",
"403 -12 CURVE SMOOTH"
);
},
{
closed = 1;
nodes = (
"687 110 LINE",
"687 402 LINE",
"365 402 LINE",
"365 259 LINE",
"528 259 LINE",
"499 288 LINE",
"499 110 LINE"
);
}
);
width = 725;
},
{
anchors = (
{
name = bottom;
position = "{431, 0}";
},
{
name = top;
position = "{431, 687}";
}
);
layerId = "3B040282-CF47-4846-BCAF-7BFF90FB63BC";
paths = (
{
closed = 1;
nodes = (
"533 -12 OFFCURVE",
"627 28 OFFCURVE",
"696 91 CURVE",
"671 116 LINE",
"608 59 OFFCURVE",
"523 24 OFFCURVE",
"431 24 CURVE SMOOTH",
"260 24 OFFCURVE",
"115 171 OFFCURVE",
"115 344 CURVE SMOOTH",
"115 516 OFFCURVE",
"260 663 OFFCURVE",
"431 663 CURVE SMOOTH",
"523 663 OFFCURVE",
"608 628 OFFCURVE",
"670 571 CURVE",
"696 597 LINE",
"627 660 OFFCURVE",
"533 699 OFFCURVE",
"431 699 CURVE SMOOTH",
"241 699 OFFCURVE",
"79 536 OFFCURVE",
"79 344 CURVE SMOOTH",
"79 152 OFFCURVE",
"241 -12 OFFCURVE",
"431 -12 CURVE SMOOTH"
);
},
{
closed = 1;
nodes = (
"696 91 LINE",
"696 341 LINE",
"421 341 LINE",
"421 305 LINE",
"675 305 LINE",
"660 325 LINE",
"660 91 LINE"
);
}
);
width = 779;
},
{
anchors = (
{
name = bottom;
position = "{431, 0}";
},
{
name = top;
position = "{431, 687}";
}
);
associatedMasterId = "3B040282-CF47-4846-BCAF-7BFF90FB63BC";
layerId = "D9E259EE-489D-45EC-A954-F95247172D14";
name = bubble;
paths = (
{
closed = 1;
nodes = (
"0 108 OFFCURVE",
"197 -91 OFFCURVE",
"431 -91 CURVE SMOOTH",
"564 -91 OFFCURVE",
"690 -35 OFFCURVE",
"779 63 CURVE",
"779 625 LINE",
"690 723 OFFCURVE",
"564 778 OFFCURVE",
"431 778 CURVE SMOOTH",
"197 778 OFFCURVE",
"0 579 OFFCURVE",
"0 344 CURVE SMOOTH"
);
}
);
width = 779;
},
{
anchors = (
{
name = bottom;
position = "{406, 0}";
},
{
name = top;
position = "{406, 687}";
}
);
associatedMasterId = "35616FF6-3D9C-499B-B113-AC9E0DB5842A";
layerId = "033577AD-BA3D-42B2-92E3-2E8AF6AB7299";
name = bubble;
paths = (
{
closed = 1;
nodes = (
"0 122 OFFCURVE",
"186 -66 OFFCURVE",
"406 -66 CURVE SMOOTH",
"529 -66 OFFCURVE",
"666 -7 OFFCURVE",
"733 79 CURVE",
"733 607 LINE",
"666 694 OFFCURVE",
"530 753 OFFCURVE",
"406 753 CURVE SMOOTH",
"185 753 OFFCURVE",
"0 566 OFFCURVE",
"0 344 CURVE SMOOTH"
);
}
);
width = 733;
},
{
anchors = (
{
name = bottom;
position = "{403, 0}";
},
{
name = top;
position = "{403, 687}";
}
);
associatedMasterId = "A0D976AB-773B-4D3A-9F7E-7A0C42AF1E7B";
layerId = "66F82FB0-CBF3-4DFD-A91B-242D732298E5";
name = bubble;
paths = (
{
closed = 1;
nodes = (
"0 135 OFFCURVE",
"181 -36 OFFCURVE",
"403 -36 CURVE SMOOTH",
"528 -36 OFFCURVE",
"651 22 OFFCURVE",
"725 117 CURVE",
"725 571 LINE",
"650 666 OFFCURVE",
"527 723 OFFCURVE",
"403 723 CURVE SMOOTH",
"182 723 OFFCURVE",
"0 552 OFFCURVE",
"0 344 CURVE SMOOTH"
);
}
);
width = 725;
}
);
leftKerningGroup = G;
rightKerningGroup = G;
unicode = 0047;
},
{
color = 1;
glyphname = H;
lastChange = "2019-05-05 09:12:24 +0000";
layers = (
{
layerId = "35616FF6-3D9C-499B-B113-AC9E0DB5842A";
paths = (
{
closed = 1;
nodes = (
"156 0 LINE",
"156 335 LINE",
"134 313 LINE",
"582 313 LINE",
"561 335 LINE",
"561 0 LINE",
"639 0 LINE",
"639 687 LINE",
"561 687 LINE",
"561 365 LINE",
"583 387 LINE",
"134 387 LINE",
"156 365 LINE",
"156 687 LINE",
"78 687 LINE",
"78 0 LINE"
);
}
);
width = 717;
},
{
layerId = "A0D976AB-773B-4D3A-9F7E-7A0C42AF1E7B";
paths = (
{
closed = 1;
nodes = (
"260 0 LINE",
"260 315 LINE",
"213 264 LINE",
"557 264 LINE",
"511 315 LINE",
"511 0 LINE",
"705 0 LINE",
"705 687 LINE",
"511 687 LINE",
"511 385 LINE",
"559 437 LINE",
"213 437 LINE",
"260 385 LINE",
"260 687 LINE",
"66 687 LINE",
"66 0 LINE"
);
}
);
width = 771;
},
{
layerId = "3B040282-CF47-4846-BCAF-7BFF90FB63BC";
paths = (
{
closed = 1;
nodes = (
"134 0 LINE",
"134 343 LINE",
"133 332 LINE",
"581 332 LINE",
"581 343 LINE",
"581 0 LINE",
"617 0 LINE",
"617 687 LINE",
"581 687 LINE",
"581 357 LINE",
"582 368 LINE",
"133 368 LINE",
"134 357 LINE",
"134 687 LINE",
"98 687 LINE",
"98 0 LINE"
);
}
);
width = 715;
},
{
associatedMasterId = "A0D976AB-773B-4D3A-9F7E-7A0C42AF1E7B";
layerId = "2AA8E3A4-989B-49EC-A281-6D4A45BBE5F3";
name = bubble;
paths = (
{
closed = 1;
nodes = (
"771 0 LINE",
"771 687 LINE",
"0 687 LINE",
"0 0 LINE"
);
}
);
width = 771;
},
{
associatedMasterId = "35616FF6-3D9C-499B-B113-AC9E0DB5842A";
layerId = "A7B3AF6A-DFB1-4FE7-9EE6-B2E04A5BB9CB";
name = bubble;
paths = (
{
closed = 1;
nodes = (
"717 0 LINE",
"717 687 LINE",
"0 687 LINE",
"0 0 LINE"
);
}
);
width = 717;
},
{
associatedMasterId = "3B040282-CF47-4846-BCAF-7BFF90FB63BC";
layerId = "E1456BBC-1988-4A76-A878-257D0ADD32B0";
name = bubble;
paths = (
{
closed = 1;
nodes = (
"715 0 LINE",
"715 687 LINE",
"0 687 LINE",
"0 0 LINE"
);
}
);
width = 715;
}
);
leftKerningGroup = H;
rightKerningGroup = H;
unicode = 0048;
},
{
color = 1;
glyphname = I;
lastChange = "2019-05-05 08:49:28 +0000";
layers = (
{
anchors = (
{
name = bottom;
position = "{156, 0}";
},
{
name = top;
position = "{117, 687}";
}
);
layerId = "35616FF6-3D9C-499B-B113-AC9E0DB5842A";
paths = (
{
closed = 1;
nodes = (
"156 0 LINE",
"156 687 LINE",
"78 687 LINE",
"78 0 LINE"
);
}
);
width = 234;
},
{
anchors = (
{
name = bottom;
position = "{260, 0}";
},
{
name = top;
position = "{163, 687}";
}
);
layerId = "A0D976AB-773B-4D3A-9F7E-7A0C42AF1E7B";
paths = (
{
closed = 1;
nodes = (
"260 0 LINE",
"260 687 LINE",
"66 687 LINE",
"66 0 LINE"
);
}
);
width = 326;
},
{
anchors = (
{
name = bottom;
position = "{134, 0}";
},
{
name = top;
position = "{116, 687}";
}
);
layerId = "3B040282-CF47-4846-BCAF-7BFF90FB63BC";
paths = (
{
closed = 1;
nodes = (
"134 0 LINE",
"134 687 LINE",
"98 687 LINE",
"98 0 LINE"
);
}
);
width = 232;
},
{
anchors = (
{
name = bottom;
position = "{260, 0}";
},
{
name = top;
position = "{163, 687}";
}
);
associatedMasterId = "A0D976AB-773B-4D3A-9F7E-7A0C42AF1E7B";
layerId = "29D72122-8B3B-45E6-A058-FA9C29F575DE";
name = bubble;
paths = (
{
closed = 1;
nodes = (
"326 0 LINE",
"326 687 LINE",
"0 687 LINE",
"0 0 LINE"
);
}
);
width = 326;
},
{
anchors = (
{
name = bottom;
position = "{156, 0}";
},
{
name = top;
position = "{117, 687}";
}
);
associatedMasterId = "35616FF6-3D9C-499B-B113-AC9E0DB5842A";
layerId = "26A96A16-BF7A-4B58-A557-184FAD2E5562";
name = bubble;
paths = (
{
closed = 1;
nodes = (
"234 0 LINE",
"234 687 LINE",
"0 687 LINE",
"0 0 LINE"
);
}
);
width = 234;
},
{
anchors = (
{
name = bottom;
position = "{134, 0}";
},
{
name = top;
position = "{116, 687}";
}
);
associatedMasterId = "3B040282-CF47-4846-BCAF-7BFF90FB63BC";
layerId = "1F3D1676-E1FF-4A1B-98BF-99B027897A02";
name = bubble;
paths = (
{
closed = 1;
nodes = (
"232 0 LINE",
"232 687 LINE",
"0 687 LINE",
"0 0 LINE"
);
}
);
width = 232;
}
);
leftKerningGroup = I;
rightKerningGroup = I;
unicode = 0049;
},
{
color = 1;
glyphname = J;
lastChange = "2020-01-30 02:03:03 +0000";
layers = (
{
layerId = "35616FF6-3D9C-499B-B113-AC9E0DB5842A";
paths = (
{
closed = 1;
nodes = (
"384 -12 OFFCURVE",
"474 86 OFFCURVE",
"474 224 CURVE SMOOTH",
"474 687 LINE",
"396 687 LINE",
"396 224 LINE SMOOTH",
"396 127 OFFCURVE",
"338 59 OFFCURVE",
"257 59 CURVE SMOOTH",
"194 59 OFFCURVE",
"130 100 OFFCURVE",
"103 158 CURVE",
"46 102 LINE",
"88 35 OFFCURVE",
"176 -12 OFFCURVE",
"257 -12 CURVE SMOOTH"
);
}
);
width = 545;
},
{
layerId = "A0D976AB-773B-4D3A-9F7E-7A0C42AF1E7B";
paths = (
{
closed = 1;
nodes = (
"393 -12 OFFCURVE",
"496 86 OFFCURVE",
"496 224 CURVE SMOOTH",
"496 687 LINE",
"302 687 LINE",
"302 244 LINE SMOOTH",
"302 197 OFFCURVE",
"268 164 OFFCURVE",
"221 164 CURVE SMOOTH",
"186 164 OFFCURVE",
"148 189 OFFCURVE",
"129 224 CURVE",
"4 102 LINE",
"53 35 OFFCURVE",
"154 -12 OFFCURVE",
"247 -12 CURVE SMOOTH"
);
}
);
width = 549;
},
{
layerId = "3B040282-CF47-4846-BCAF-7BFF90FB63BC";
paths = (
{
closed = 1;
nodes = (
"396 -12 OFFCURVE",
"481 82 OFFCURVE",
"481 214 CURVE SMOOTH",
"481 687 LINE",
"445 687 LINE",
"445 214 LINE SMOOTH",
"445 103 OFFCURVE",
"375 24 OFFCURVE",
"275 24 CURVE SMOOTH",
"203 24 OFFCURVE",
"135 68 OFFCURVE",
"96 130 CURVE",
"74 102 LINE",
"116 35 OFFCURVE",
"193 -12 OFFCURVE",
"275 -12 CURVE SMOOTH"
);
}
);
width = 574;
},
{
associatedMasterId = "A0D976AB-773B-4D3A-9F7E-7A0C42AF1E7B";
layerId = "92853668-067D-4DDC-B5D3-7E7EF4181A85";
name = bubble;
paths = (
{
closed = 1;
nodes = (
"-34 64 LINE",
"26 -12 OFFCURVE",
"140 -65 OFFCURVE",
"247 -65 CURVE SMOOTH",
"422 -65 OFFCURVE",
"549 56 OFFCURVE",
"549 224 CURVE SMOOTH",
"549 687 LINE",
"249 687 LINE",
"249 244 LINE SMOOTH",
"249 227 OFFCURVE",
"234 217 OFFCURVE",
"216 217 CURVE SMOOTH",
"197 217 OFFCURVE",
"178 239 OFFCURVE",
"169 264 CURVE"
);
}
);
width = 549;
},
{
associatedMasterId = "35616FF6-3D9C-499B-B113-AC9E0DB5842A";
layerId = "153F3E69-E332-4DAD-8057-7A78BD44259F";
name = bubble;
paths = (
{
closed = 1;
nodes = (
"424 -83 OFFCURVE",
"545 47 OFFCURVE",
"545 224 CURVE SMOOTH",
"545 687 LINE",
"325 687 LINE",
"325 224 LINE SMOOTH",
"325 166 OFFCURVE",
"287 130 OFFCURVE",
"247 130 CURVE SMOOTH",
"203 130 OFFCURVE",
"164 168 OFFCURVE",
"159 213 CURVE",
"-6 52 LINE",
"51 -29 OFFCURVE",
"157 -83 OFFCURVE",
"257 -83 CURVE SMOOTH"
);
}
);
width = 545;
},
{
associatedMasterId = "3B040282-CF47-4846-BCAF-7BFF90FB63BC";
layerId = "CC0488E0-735B-466F-898C-C6DFF25A28A0";
name = bubble;
paths = (
{
closed = 1;
nodes = (
"448 -105 OFFCURVE",
"574 31 OFFCURVE",
"574 214 CURVE SMOOTH",
"574 687 LINE",
"352 687 LINE",
"352 214 LINE SMOOTH",
"352 153 OFFCURVE",
"321 117 OFFCURVE",
"275 117 CURVE SMOOTH",
"230 117 OFFCURVE",
"179 154 OFFCURVE",
"161 212 CURVE",
"14 25 LINE",
"77 -55 OFFCURVE",
"174 -105 OFFCURVE",
"275 -105 CURVE SMOOTH"
);
}
);
width = 574;
}
);
leftKerningGroup = J;
rightKerningGroup = J;
unicode = 004A;
},
{
color = 1;
glyphname = K;
lastChange = "2020-01-29 07:08:47 +0000";
layers = (
{
anchors = (
{
name = bottom;
position = "{352, 0}";
}
);
layerId = "35616FF6-3D9C-499B-B113-AC9E0DB5842A";
paths = (
{
closed = 1;
nodes = (
"156 0 LINE",
"156 206 LINE",
"264 320 LINE",
"525 0 LINE",
"626 0 LINE",
"318 373 LINE",
"607 687 LINE",
"504 687 LINE",
"156 307 LINE",
"156 687 LINE",
"78 687 LINE",
"78 0 LINE"
);
}
);
width = 672;
},
{
anchors = (
{
name = bottom;
position = "{403, 0}";
}
);
layerId = "A0D976AB-773B-4D3A-9F7E-7A0C42AF1E7B";
paths = (
{
closed = 1;
nodes = (
"260 0 LINE",
"260 182 LINE",
"331 260 LINE",
"508 0 LINE",
"740 0 LINE",
"466 400 LINE",
"720 687 LINE",
"491 687 LINE",
"260 416 LINE",
"260 687 LINE",
"66 687 LINE",
"66 0 LINE"
);
}
);
width = 750;
},
{
anchors = (
{
name = bottom;
position = "{348, 0}";
}
);
layerId = "3B040282-CF47-4846-BCAF-7BFF90FB63BC";
paths = (
{
closed = 1;
nodes = (
"134 0 LINE",
"134 205 LINE",
"266 349 LINE",
"552 0 LINE",
"598 0 LINE",
"291 376 LINE",
"576 687 LINE",
"528 687 LINE",
"134 257 LINE",
"134 687 LINE",
"98 687 LINE",
"98 0 LINE"
);
}
);
width = 671;
},
{
anchors = (
{
name = bottom;
position = "{348, 0}";
}
);
associatedMasterId = "3B040282-CF47-4846-BCAF-7BFF90FB63BC";
layerId = "4D48A9EF-7E15-4A98-8DBE-DF2A8D2AB170";
name = bubble;
paths = (
{
closed = 1;
nodes = (
"671 0 LINE",
"504 376 LINE",
"671 687 LINE",
"0 687 LINE",
"0 0 LINE"
);
}
);
width = 671;
},
{
anchors = (
{
name = bottom;
position = "{352, 0}";
}
);
associatedMasterId = "35616FF6-3D9C-499B-B113-AC9E0DB5842A";
layerId = "BB489317-1CDA-4C71-A2F5-0E7F4B32AEFB";
name = bubble;
paths = (
{
closed = 1;
nodes = (
"672 0 LINE",
"514 373 LINE",
"672 687 LINE",
"0 687 LINE",
"0 0 LINE"
);
}
);
width = 672;
},
{
anchors = (
{
name = bottom;
position = "{403, 0}";
}
);
associatedMasterId = "A0D976AB-773B-4D3A-9F7E-7A0C42AF1E7B";
layerId = "EFE9FEE9-02B9-42B2-A1F8-C41FA91B7A2D";
name = bubble;
paths = (
{
closed = 1;
nodes = (
"750 0 LINE",
"636 400 LINE",
"750 687 LINE",
"0 687 LINE",
"0 0 LINE"
);
}
);
width = 750;
}
);
leftKerningGroup = K;
rightKerningGroup = K;
unicode = 004B;
},
{
color = 1;
glyphname = L;
lastChange = "2019-05-05 09:11:26 +0000";
layers = (
{
anchors = (
{
name = top;
position = "{120, 687}";
}
);
layerId = "35616FF6-3D9C-499B-B113-AC9E0DB5842A";
paths = (
{
closed = 1;
nodes = (
"531 0 LINE",
"531 74 LINE",
"133 74 LINE",
"156 50 LINE",
"156 687 LINE",
"78 687 LINE",
"78 0 LINE"
);
}
);
width = 580;
},
{
anchors = (
{
name = top;
position = "{162, 687}";
}
);
layerId = "A0D976AB-773B-4D3A-9F7E-7A0C42AF1E7B";
paths = (
{
closed = 1;
nodes = (
"580 0 LINE",
"580 173 LINE",
"203 173 LINE",
"260 117 LINE",
"260 687 LINE",
"66 687 LINE",
"66 0 LINE"
);
}
);
width = 600;
},
{
anchors = (
{
name = top;
position = "{116, 687}";
}
);
layerId = "3B040282-CF47-4846-BCAF-7BFF90FB63BC";
paths = (
{
closed = 1;
nodes = (
"530 0 LINE",
"530 36 LINE",
"123 36 LINE",
"134 24 LINE",
"134 687 LINE",
"98 687 LINE",
"98 0 LINE"
);
}
);
width = 604;
},
{
associatedMasterId = "A0D976AB-773B-4D3A-9F7E-7A0C42AF1E7B";
layerId = "E5693CE1-8104-4F4C-BB33-2DB728A7B738";
name = bubble;
paths = (
{
closed = 1;
nodes = (
"600 0 LINE",
"600 233 LINE",
"326 233 LINE",
"326 687 LINE",
"0 687 LINE",
"0 0 LINE"
);
}
);
width = 600;
},
{
anchors = (
{
name = top;
position = "{120, 687}";
}
);
associatedMasterId = "35616FF6-3D9C-499B-B113-AC9E0DB5842A";
layerId = "BEC3695A-E382-4CCC-B569-5BC721059197";
name = bubble;
paths = (
{
closed = 1;
nodes = (
"580 0 LINE",
"580 149 LINE",
"234 149 LINE",
"234 687 LINE",
"0 687 LINE",
"0 0 LINE"
);
}
);
width = 580;
},
{
anchors = (
{
name = top;
position = "{116, 687}";
}
);
associatedMasterId = "3B040282-CF47-4846-BCAF-7BFF90FB63BC";
layerId = "71085AD0-E548-4736-9851-7D0859A95DEE";
name = bubble;
paths = (
{
closed = 1;
nodes = (
"604 0 LINE",
"604 136 LINE",
"232 136 LINE",
"232 687 LINE",
"0 687 LINE",
"0 0 LINE"
);
}
);
width = 604;
}
);
leftKerningGroup = L;
rightKerningGroup = L;
unicode = 004C;
},
{
color = 1;
glyphname = Lslash;
lastChange = "2020-01-30 00:05:51 +0000";
layers = (
{
anchors = (
{
name = top;
position = "{223, 687}";
}
);
layerId = "3B040282-CF47-4846-BCAF-7BFF90FB63BC";
paths = (
{
closed = 1;
nodes = (
"373 406 LINE",
"373 447 LINE",
"74 293 LINE",
"74 252 LINE"
);
},
{
closed = 1;
nodes = (
"637 0 LINE",
"637 36 LINE",
"230 36 LINE",
"241 24 LINE",
"241 687 LINE",
"205 687 LINE",
"205 0 LINE"
);
}
);
width = 711;
},
{
anchors = (
{
name = top;
position = "{202, 687}";
}
);
layerId = "35616FF6-3D9C-499B-B113-AC9E0DB5842A";
paths = (
{
closed = 1;
nodes = (
"348 388 LINE",
"348 463 LINE",
"49 309 LINE",
"49 234 LINE"
);
},
{
closed = 1;
nodes = (
"613 0 LINE",
"613 74 LINE",
"215 74 LINE",
"238 50 LINE",
"238 687 LINE",
"160 687 LINE",
"160 0 LINE"
);
}
);
width = 662;
},
{
anchors = (
{
name = top;
position = "{199, 687}";
}
);
layerId = "A0D976AB-773B-4D3A-9F7E-7A0C42AF1E7B";
paths = (
{
closed = 1;
nodes = (
"385 358 LINE",
"385 525 LINE",
"19 345 LINE",
"19 178 LINE"
);
},
{
closed = 1;
nodes = (
"617 0 LINE",
"617 173 LINE",
"240 173 LINE",
"297 117 LINE",
"297 687 LINE",
"103 687 LINE",
"103 0 LINE"
);
}
);
width = 637;
},
{
anchors = (
{
name = top;
position = "{223, 687}";
}
);
associatedMasterId = "3B040282-CF47-4846-BCAF-7BFF90FB63BC";
layerId = "8498E6C2-6EB4-490F-BCF3-3E71C4CFE2BE";
name = bubble;
paths = (
{
closed = 1;
nodes = (
"0 0 LINE",
"711 0 LINE",
"711 129 LINE",
"334 129 LINE",
"334 281 LINE",
"373 301 LINE",
"373 552 LINE",
"334 532 LINE",
"334 687 LINE",
"0 687 LINE"
);
}
);
width = 711;
},
{
anchors = (
{
name = top;
position = "{202, 687}";
}
);
associatedMasterId = "35616FF6-3D9C-499B-B113-AC9E0DB5842A";
layerId = "BAB0C48B-251C-4DDE-9BA3-89814795B0B0";
name = bubble;
paths = (
{
closed = 1;
nodes = (
"0 0 LINE",
"662 0 LINE",
"662 145 LINE",
"309 145 LINE",
"309 288 LINE",
"348 308 LINE",
"348 542 LINE",
"309 522 LINE",
"309 687 LINE",
"0 687 LINE"
);
}
);
width = 662;
},
{
anchors = (
{
name = top;
position = "{199, 687}";
}
);
associatedMasterId = "A0D976AB-773B-4D3A-9F7E-7A0C42AF1E7B";
layerId = "E84D5147-07E0-43AD-BB52-2C3E48487E33";
name = bubble;
paths = (
{
closed = 1;
nodes = (
"0 0 LINE",
"637 0 LINE",
"637 226 LINE",
"350 226 LINE",
"350 282 LINE",
"385 299 LINE",
"385 584 LINE",
"350 567 LINE",
"350 687 LINE",
"0 687 LINE"
);
}
);
width = 637;
}
);
leftKerningGroup = Lslash;
rightKerningGroup = L;
unicode = 0141;
},
{
color = 1;
glyphname = M;
lastChange = "2019-05-05 09:13:14 +0000";
layers = (
{
layerId = "35616FF6-3D9C-499B-B113-AC9E0DB5842A";
paths = (
{
closed = 1;
nodes = (
"156 0 LINE",
"156 519 LINE",
"411 40 LINE",
"666 519 LINE",
"666 0 LINE",
"744 0 LINE",
"744 687 LINE",
"666 687 LINE",
"411 208 LINE",
"156 687 LINE",
"78 687 LINE",
"78 0 LINE"
);
}
);
width = 822;
},
{
layerId = "A0D976AB-773B-4D3A-9F7E-7A0C42AF1E7B";
paths = (
{
closed = 1;
nodes = (
"260 0 LINE",
"260 368 LINE",
"444 40 LINE",
"628 368 LINE",
"628 0 LINE",
"822 0 LINE",
"822 687 LINE",
"628 687 LINE",
"444 359 LINE",
"260 687 LINE",
"66 687 LINE",
"66 0 LINE"
);
}
);
width = 888;
},
{
layerId = "3B040282-CF47-4846-BCAF-7BFF90FB63BC";
paths = (
{
closed = 1;
nodes = (
"134 0 LINE",
"134 615 LINE",
"410 96 LINE",
"686 615 LINE",
"686 0 LINE",
"722 0 LINE",
"722 687 LINE",
"686 687 LINE",
"410 168 LINE",
"134 687 LINE",
"98 687 LINE",
"98 0 LINE"
);
}
);
width = 820;
},
{
associatedMasterId = "A0D976AB-773B-4D3A-9F7E-7A0C42AF1E7B";
layerId = "F877E4AF-0EC5-46C4-89D6-D5F39FB69727";
name = bubble;
paths = (
{
closed = 1;
nodes = (
"888 0 LINE",
"888 687 LINE",
"0 687 LINE",
"0 0 LINE"
);
}
);
width = 888;
},
{
associatedMasterId = "35616FF6-3D9C-499B-B113-AC9E0DB5842A";
layerId = "E2FB4990-9992-47C2-8B24-5326E10A9474";
name = bubble;
paths = (
{
closed = 1;
nodes = (
"822 0 LINE",
"822 687 LINE",
"0 687 LINE",
"0 0 LINE"
);
}
);
width = 822;
},
{
associatedMasterId = "3B040282-CF47-4846-BCAF-7BFF90FB63BC";
layerId = "4BA6B978-0BF0-4071-9A58-78360A1F2925";
name = bubble;
paths = (
{
closed = 1;
nodes = (
"820 0 LINE",
"820 687 LINE",
"0 687 LINE",
"0 0 LINE"
);
}
);
width = 820;
}
);
leftKerningGroup = M;
rightKerningGroup = M;
unicode = 004D;
},
{
color = 1;
glyphname = N;
lastChange = "2019-05-05 09:14:01 +0000";
layers = (
{
anchors = (
{
name = bottom;
position = "{369, 0}";
},
{
name = top;
position = "{369, 687}";
}
);
layerId = "35616FF6-3D9C-499B-B113-AC9E0DB5842A";
paths = (
{
closed = 1;
nodes = (
"156 0 LINE",
"156 559 LINE",
"582 0 LINE",
"660 0 LINE",
"660 687 LINE",
"582 687 LINE",
"582 128 LINE",
"156 687 LINE",
"78 687 LINE",
"78 0 LINE"
);
}
);
width = 738;
},
{
anchors = (
{
name = bottom;
position = "{394, 0}";
},
{
name = top;
position = "{394, 687}";
}
);
layerId = "A0D976AB-773B-4D3A-9F7E-7A0C42AF1E7B";
paths = (
{
closed = 1;
nodes = (
"260 0 LINE",
"260 368 LINE",
"528 0 LINE",
"722 0 LINE",
"722 687 LINE",
"528 687 LINE",
"528 319 LINE",
"260 687 LINE",
"66 687 LINE",
"66 0 LINE"
);
}
);
width = 788;
},
{
anchors = (
{
name = bottom;
position = "{368, 0}";
},
{
name = top;
position = "{368, 687}";
}
);
layerId = "3B040282-CF47-4846-BCAF-7BFF90FB63BC";
paths = (
{
closed = 1;
nodes = (
"134 0 LINE",
"134 631 LINE",
"602 0 LINE",
"638 0 LINE",
"638 687 LINE",
"602 687 LINE",
"602 56 LINE",
"134 687 LINE",
"98 687 LINE",
"98 0 LINE"
);
}
);
width = 736;
},
{
associatedMasterId = "A0D976AB-773B-4D3A-9F7E-7A0C42AF1E7B";
layerId = "8CA12271-4FE8-4C00-83C9-003A9795AB69";
name = bubble;
paths = (
{
closed = 1;
nodes = (
"788 0 LINE",
"788 687 LINE",
"0 687 LINE",
"0 0 LINE"
);
}
);
width = 788;
},
{
associatedMasterId = "35616FF6-3D9C-499B-B113-AC9E0DB5842A";
layerId = "0A55EFC5-5F65-42D8-B256-C6461515A36E";
name = bubble;
paths = (
{
closed = 1;
nodes = (
"738 0 LINE",
"738 687 LINE",
"0 687 LINE",
"0 0 LINE"
);
}
);
width = 738;
},
{
anchors = (
{
name = bottom;
position = "{368, 0}";
},
{
name = top;
position = "{368, 687}";
}
);
associatedMasterId = "3B040282-CF47-4846-BCAF-7BFF90FB63BC";
layerId = "82E2F8C5-75E0-469C-B892-1E6E06A7A75D";
name = bubble;
paths = (
{
closed = 1;
nodes = (
"736 0 LINE",
"736 687 LINE",
"0 687 LINE",
"0 0 LINE"
);
}
);
width = 736;
}
);
leftKerningGroup = N;
rightKerningGroup = N;
unicode = 004E;
},
{
color = 1;
glyphname = O;
lastChange = "2020-01-29 06:04:40 +0000";
layers = (
{
anchors = (
{
name = top;
position = "{406, 687}";
}
);
layerId = "35616FF6-3D9C-499B-B113-AC9E0DB5842A";
paths = (
{
closed = 1;
nodes = (
"597 -12 OFFCURVE",
"757 151 OFFCURVE",
"757 344 CURVE SMOOTH",
"757 537 OFFCURVE",
"597 699 OFFCURVE",
"406 699 CURVE SMOOTH",
"216 699 OFFCURVE",
"54 537 OFFCURVE",
"54 344 CURVE SMOOTH",
"54 151 OFFCURVE",
"216 -12 OFFCURVE",
"406 -12 CURVE SMOOTH"
);
},
{
closed = 1;
nodes = (
"258 60 OFFCURVE",
"133 190 OFFCURVE",
"133 344 CURVE SMOOTH",
"133 497 OFFCURVE",
"258 627 OFFCURVE",
"406 627 CURVE SMOOTH",
"554 627 OFFCURVE",
"678 497 OFFCURVE",
"678 344 CURVE SMOOTH",
"678 190 OFFCURVE",
"554 60 OFFCURVE",
"406 60 CURVE SMOOTH"
);
}
);
width = 811;
},
{
anchors = (
{
name = top;
position = "{398, 687}";
}
);
layerId = "A0D976AB-773B-4D3A-9F7E-7A0C42AF1E7B";
paths = (
{
closed = 1;
nodes = (
"601 -12 OFFCURVE",
"772 151 OFFCURVE",
"772 344 CURVE SMOOTH",
"772 537 OFFCURVE",
"601 699 OFFCURVE",
"398 699 CURVE SMOOTH",
"195 699 OFFCURVE",
"24 537 OFFCURVE",
"24 344 CURVE SMOOTH",
"24 151 OFFCURVE",
"195 -12 OFFCURVE",
"398 -12 CURVE SMOOTH"
);
},
{
closed = 1;
nodes = (
"304 164 OFFCURVE",
"224 246 OFFCURVE",
"224 344 CURVE SMOOTH",
"224 441 OFFCURVE",
"304 523 OFFCURVE",
"398 523 CURVE SMOOTH",
"492 523 OFFCURVE",
"572 441 OFFCURVE",
"572 344 CURVE SMOOTH",
"572 246 OFFCURVE",
"492 164 OFFCURVE",
"398 164 CURVE SMOOTH"
);
}
);
width = 796;
},
{
anchors = (
{
name = top;
position = "{431, 687}";
}
);
layerId = "3B040282-CF47-4846-BCAF-7BFF90FB63BC";
paths = (
{
closed = 1;
nodes = (
"621 -12 OFFCURVE",
"782 152 OFFCURVE",
"782 344 CURVE SMOOTH",
"782 536 OFFCURVE",
"621 699 OFFCURVE",
"431 699 CURVE SMOOTH",
"241 699 OFFCURVE",
"79 536 OFFCURVE",
"79 344 CURVE SMOOTH",
"79 152 OFFCURVE",
"241 -12 OFFCURVE",
"431 -12 CURVE SMOOTH"
);
},
{
closed = 1;
nodes = (
"260 24 OFFCURVE",
"115 171 OFFCURVE",
"115 344 CURVE SMOOTH",
"115 516 OFFCURVE",
"260 663 OFFCURVE",
"431 663 CURVE SMOOTH",
"601 663 OFFCURVE",
"746 516 OFFCURVE",
"746 344 CURVE SMOOTH",
"746 171 OFFCURVE",
"601 24 OFFCURVE",
"431 24 CURVE SMOOTH"
);
}
);
width = 861;
},
{
anchors = (
{
name = top;
position = "{398, 687}";
}
);
associatedMasterId = "A0D976AB-773B-4D3A-9F7E-7A0C42AF1E7B";
layerId = "5DE8C3CA-8390-434E-AE5E-6CF5B6E09985";
name = bubble;
paths = (
{
closed = 1;
nodes = (
"614 -36 OFFCURVE",
"796 138 OFFCURVE",
"796 344 CURVE SMOOTH",
"796 550 OFFCURVE",
"614 723 OFFCURVE",
"398 723 CURVE SMOOTH",
"182 723 OFFCURVE",
"0 550 OFFCURVE",
"0 344 CURVE SMOOTH",
"0 138 OFFCURVE",
"182 -36 OFFCURVE",
"398 -36 CURVE SMOOTH"
);
}
);
width = 796;
},
{
anchors = (
{
name = top;
position = "{406, 687}";
}
);
associatedMasterId = "35616FF6-3D9C-499B-B113-AC9E0DB5842A";
layerId = "C8A411E5-511F-44DB-BA30-DFC7060A2FD2";
name = bubble;
paths = (
{
closed = 1;
nodes = (
"626 -66 OFFCURVE",
"811 121 OFFCURVE",
"811 344 CURVE SMOOTH",
"811 567 OFFCURVE",
"627 753 OFFCURVE",
"406 753 CURVE SMOOTH",
"185 753 OFFCURVE",
"0 566 OFFCURVE",
"0 344 CURVE SMOOTH",
"0 122 OFFCURVE",
"186 -66 OFFCURVE",
"406 -66 CURVE SMOOTH"
);
}
);
width = 811;
},
{
anchors = (
{
name = top;
position = "{431, 687}";
}
);
associatedMasterId = "3B040282-CF47-4846-BCAF-7BFF90FB63BC";
layerId = "88FF64A1-AC5A-4520-B53D-6098BA0354B5";
name = bubble;
paths = (
{
closed = 1;
nodes = (
"665 -91 OFFCURVE",
"861 107 OFFCURVE",
"861 344 CURVE SMOOTH",
"861 581 OFFCURVE",
"666 778 OFFCURVE",
"431 778 CURVE SMOOTH",
"196 778 OFFCURVE",
"0 580 OFFCURVE",
"0 344 CURVE SMOOTH",
"0 107 OFFCURVE",
"196 -91 OFFCURVE",
"431 -91 CURVE SMOOTH"
);
}
);
width = 861;
}
);
leftKerningGroup = O;
rightKerningGroup = O;
unicode = 004F;
},
{
color = 1;
glyphname = Oslash;
lastChange = "2020-01-30 00:44:10 +0000";
layers = (
{
anchors = (
{
name = top;
position = "{407, 687}";
}
);
layerId = "35616FF6-3D9C-499B-B113-AC9E0DB5842A";
paths = (
{
closed = 1;
nodes = (
"598 -12 OFFCURVE",
"758 151 OFFCURVE",
"758 344 CURVE SMOOTH",
"758 537 OFFCURVE",
"598 699 OFFCURVE",
"407 699 CURVE SMOOTH",
"217 699 OFFCURVE",
"55 537 OFFCURVE",
"55 344 CURVE SMOOTH",
"55 151 OFFCURVE",
"217 -12 OFFCURVE",
"407 -12 CURVE SMOOTH"
);
},
{
closed = 1;
nodes = (
"259 60 OFFCURVE",
"134 190 OFFCURVE",
"134 344 CURVE SMOOTH",
"134 497 OFFCURVE",
"259 627 OFFCURVE",
"407 627 CURVE SMOOTH",
"555 627 OFFCURVE",
"679 497 OFFCURVE",
"679 344 CURVE SMOOTH",
"679 190 OFFCURVE",
"555 60 OFFCURVE",
"407 60 CURVE SMOOTH"
);
},
{
closed = 1;
nodes = (
"145 0 LINE",
"746 687 LINE",
"661 687 LINE",
"60 0 LINE"
);
}
);
width = 812;
},
{
anchors = (
{
name = top;
position = "{405, 687}";
}
);
layerId = "A0D976AB-773B-4D3A-9F7E-7A0C42AF1E7B";
paths = (
{
closed = 1;
nodes = (
"608 -12 OFFCURVE",
"779 151 OFFCURVE",
"779 344 CURVE SMOOTH",
"779 537 OFFCURVE",
"608 699 OFFCURVE",
"405 699 CURVE SMOOTH",
"202 699 OFFCURVE",
"31 537 OFFCURVE",
"31 344 CURVE SMOOTH",
"31 151 OFFCURVE",
"202 -12 OFFCURVE",
"405 -12 CURVE SMOOTH"
);
},
{
closed = 1;
nodes = (
"311 164 OFFCURVE",
"231 246 OFFCURVE",
"231 344 CURVE SMOOTH",
"231 441 OFFCURVE",
"311 523 OFFCURVE",
"405 523 CURVE SMOOTH",
"499 523 OFFCURVE",
"579 441 OFFCURVE",
"579 344 CURVE SMOOTH",
"579 246 OFFCURVE",
"499 164 OFFCURVE",
"405 164 CURVE SMOOTH"
);
},
{
closed = 1;
nodes = (
"194 0 LINE",
"764 687 LINE",
"604 687 LINE",
"34 0 LINE"
);
}
);
width = 808;
},
{
anchors = (
{
name = top;
position = "{431, 687}";
}
);
layerId = "3B040282-CF47-4846-BCAF-7BFF90FB63BC";
paths = (
{
closed = 1;
nodes = (
"622 -12 OFFCURVE",
"782 151 OFFCURVE",
"782 344 CURVE SMOOTH",
"782 537 OFFCURVE",
"622 699 OFFCURVE",
"431 699 CURVE SMOOTH",
"240 699 OFFCURVE",
"79 537 OFFCURVE",
"79 344 CURVE SMOOTH",
"79 151 OFFCURVE",
"240 -12 OFFCURVE",
"431 -12 CURVE SMOOTH"
);
},
{
closed = 1;
nodes = (
"259 24 OFFCURVE",
"115 170 OFFCURVE",
"115 344 CURVE SMOOTH",
"115 517 OFFCURVE",
"259 663 OFFCURVE",
"431 663 CURVE SMOOTH",
"602 663 OFFCURVE",
"746 517 OFFCURVE",
"746 344 CURVE SMOOTH",
"746 170 OFFCURVE",
"602 24 OFFCURVE",
"431 24 CURVE SMOOTH"
);
},
{
closed = 1;
nodes = (
"149 0 LINE",
"750 687 LINE",
"702 687 LINE",
"101 0 LINE"
);
}
);
width = 861;
},
{
anchors = (
{
name = top;
position = "{405, 687}";
}
);
associatedMasterId = "A0D976AB-773B-4D3A-9F7E-7A0C42AF1E7B";
layerId = "7A28F0C1-13A0-4B26-8936-FE47C2D1D0BF";
name = bubble;
paths = (
{
closed = 1;
nodes = (
"225 0 LINE",
"279 -27 OFFCURVE",
"341 -42 OFFCURVE",
"405 -42 CURVE SMOOTH",
"624 -42 OFFCURVE",
"808 134 OFFCURVE",
"808 344 CURVE SMOOTH",
"808 434 OFFCURVE",
"775 518 OFFCURVE",
"718 585 CURVE",
"803 687 LINE",
"586 687 LINE",
"531 714 OFFCURVE",
"470 729 OFFCURVE",
"405 729 CURVE SMOOTH",
"185 729 OFFCURVE",
"1 553 OFFCURVE",
"1 344 CURVE SMOOTH",
"1 257 OFFCURVE",
"33 175 OFFCURVE",
"86 110 CURVE",
"0 0 LINE"
);
}
);
width = 808;
},
{
anchors = (
{
name = top;
position = "{407, 687}";
}
);
associatedMasterId = "35616FF6-3D9C-499B-B113-AC9E0DB5842A";
layerId = "C4134B6C-E534-44C8-8379-57A028D0D7D0";
name = bubble;
paths = (
{
closed = 1;
nodes = (
"188 0 LINE",
"252 -42 OFFCURVE",
"327 -67 OFFCURVE",
"407 -67 CURVE SMOOTH",
"628 -67 OFFCURVE",
"812 121 OFFCURVE",
"812 344 CURVE SMOOTH",
"812 434 OFFCURVE",
"783 519 OFFCURVE",
"732 587 CURVE",
"812 687 LINE",
"627 687 LINE",
"564 729 OFFCURVE",
"488 754 OFFCURVE",
"407 754 CURVE SMOOTH",
"186 754 OFFCURVE",
"0 567 OFFCURVE",
"0 344 CURVE SMOOTH",
"0 256 OFFCURVE",
"29 173 OFFCURVE",
"79 105 CURVE",
"0 0 LINE"
);
}
);
width = 812;
},
{
anchors = (
{
name = top;
position = "{431, 687}";
}
);
associatedMasterId = "3B040282-CF47-4846-BCAF-7BFF90FB63BC";
layerId = "6621370C-DF2E-4EF1-8D87-05887CCC9A8B";
name = bubble;
paths = (
{
closed = 1;
nodes = (
"170 0 LINE",
"243 -57 OFFCURVE",
"333 -91 OFFCURVE",
"431 -91 CURVE SMOOTH",
"665 -91 OFFCURVE",
"861 107 OFFCURVE",
"861 344 CURVE SMOOTH",
"861 439 OFFCURVE",
"830 527 OFFCURVE",
"778 599 CURVE",
"855 687 LINE",
"692 687 LINE",
"620 744 OFFCURVE",
"529 778 OFFCURVE",
"431 778 CURVE SMOOTH",
"196 778 OFFCURVE",
"0 580 OFFCURVE",
"0 344 CURVE SMOOTH",
"0 252 OFFCURVE",
"29 166 OFFCURVE",
"79 95 CURVE",
"0 0 LINE"
);
}
);
width = 861;
}
);
leftKerningGroup = Oslash;
rightKerningGroup = Oslash;
unicode = 00D8;
},
{
color = 1;
glyphname = OE;
lastChange = "2020-01-30 00:48:03 +0000";
layers = (
{
layerId = "3B040282-CF47-4846-BCAF-7BFF90FB63BC";
paths = (
{
closed = 1;
nodes = (
"79 151 OFFCURVE",
"240 0 OFFCURVE",
"431 0 CURVE SMOOTH",
"962 0 LINE",
"962 36 LINE",
"547 36 LINE",
"547 332 LINE",
"931 332 LINE",
"931 368 LINE",
"547 368 LINE",
"547 651 LINE",
"962 651 LINE",
"962 687 LINE",
"431 687 LINE SMOOTH",
"240 687 OFFCURVE",
"79 537 OFFCURVE",
"79 344 CURVE SMOOTH"
);
},
{
closed = 1;
nodes = (
"115 517 OFFCURVE",
"259 651 OFFCURVE",
"431 651 CURVE SMOOTH",
"511 651 LINE",
"511 36 LINE",
"431 36 LINE SMOOTH",
"259 36 OFFCURVE",
"115 170 OFFCURVE",
"115 344 CURVE SMOOTH"
);
}
);
width = 1038;
},
{
layerId = "35616FF6-3D9C-499B-B113-AC9E0DB5842A";
paths = (
{
closed = 1;
nodes = (
"54 141 OFFCURVE",
"216 0 OFFCURVE",
"406 0 CURVE SMOOTH",
"979 0 LINE",
"979 74 LINE",
"565 74 LINE",
"565 313 LINE",
"938 313 LINE",
"938 387 LINE",
"565 387 LINE",
"565 613 LINE",
"979 613 LINE",
"979 687 LINE",
"406 687 LINE SMOOTH",
"216 687 OFFCURVE",
"54 527 OFFCURVE",
"54 334 CURVE SMOOTH"
);
},
{
closed = 1;
nodes = (
"133 487 OFFCURVE",
"258 615 OFFCURVE",
"406 615 CURVE SMOOTH",
"486 615 LINE",
"486 72 LINE",
"406 72 LINE SMOOTH",
"258 72 OFFCURVE",
"133 180 OFFCURVE",
"133 334 CURVE SMOOTH"
);
}
);
width = 1033;
},
{
layerId = "A0D976AB-773B-4D3A-9F7E-7A0C42AF1E7B";
paths = (
{
closed = 1;
nodes = (
"23 151 OFFCURVE",
"194 0 OFFCURVE",
"397 0 CURVE SMOOTH",
"997 0 LINE",
"997 173 LINE",
"638 173 LINE",
"638 264 LINE",
"965 264 LINE",
"965 437 LINE",
"638 437 LINE",
"638 514 LINE",
"997 514 LINE",
"997 687 LINE",
"397 687 LINE SMOOTH",
"194 687 OFFCURVE",
"23 537 OFFCURVE",
"23 344 CURVE SMOOTH"
);
},
{
closed = 1;
nodes = (
"223 441 OFFCURVE",
"303 511 OFFCURVE",
"397 511 CURVE SMOOTH",
"444 511 LINE",
"444 176 LINE",
"397 176 LINE SMOOTH",
"303 176 OFFCURVE",
"223 246 OFFCURVE",
"223 344 CURVE SMOOTH"
);
}
);
width = 1051;
},
{
associatedMasterId = "3B040282-CF47-4846-BCAF-7BFF90FB63BC";
layerId = "38C84DF7-9764-4AC6-B368-79C5DD60818F";
name = bubble;
paths = (
{
closed = 1;
nodes = (
"0 110 OFFCURVE",
"193 -79 OFFCURVE",
"431 -79 CURVE SMOOTH",
"1038 -79 LINE",
"1038 766 LINE",
"431 766 LINE SMOOTH",
"193 766 OFFCURVE",
"0 577 OFFCURVE",
"0 344 CURVE SMOOTH"
);
}
);
width = 1038;
},
{
associatedMasterId = "35616FF6-3D9C-499B-B113-AC9E0DB5842A";
layerId = "2599F4DB-D3D1-4794-A709-B86FB6902446";
name = bubble;
paths = (
{
closed = 1;
nodes = (
"0 117 OFFCURVE",
"180 -54 OFFCURVE",
"406 -54 CURVE SMOOTH",
"1033 -54 LINE",
"1033 741 LINE",
"406 741 LINE SMOOTH",
"185 741 OFFCURVE",
"0 556 OFFCURVE",
"0 334 CURVE SMOOTH"
);
}
);
width = 1033;
},
{
associatedMasterId = "A0D976AB-773B-4D3A-9F7E-7A0C42AF1E7B";
layerId = "B72EB9E9-31F3-4F06-BD8C-DD956CDFC4A2";
name = bubble;
paths = (
{
closed = 1;
nodes = (
"0 141 OFFCURVE",
"178 -23 OFFCURVE",
"397 -23 CURVE SMOOTH",
"1051 -23 LINE",
"1051 710 LINE",
"397 710 LINE SMOOTH",
"178 710 OFFCURVE",
"0 547 OFFCURVE",
"0 344 CURVE SMOOTH"
);
}
);
width = 1051;
}
);
leftKerningGroup = O;
rightKerningGroup = E;
unicode = 0152;
},
{
color = 1;
glyphname = P;
lastChange = "2020-01-30 01:01:22 +0000";
layers = (
{
layerId = "35616FF6-3D9C-499B-B113-AC9E0DB5842A";
paths = (
{
closed = 1;
nodes = (
"156 0 LINE",
"156 247 LINE",
"357 247 LINE SMOOTH",
"499 247 OFFCURVE",
"610 338 OFFCURVE",
"610 467 CURVE SMOOTH",
"610 596 OFFCURVE",
"499 687 OFFCURVE",
"357 687 CURVE SMOOTH",
"78 687 LINE",
"78 0 LINE"
);
},
{
closed = 1;
nodes = (
"156 613 LINE",
"343 613 LINE SMOOTH",
"455 613 OFFCURVE",
"531 559 OFFCURVE",
"531 467 CURVE SMOOTH",
"531 375 OFFCURVE",
"455 321 OFFCURVE",
"343 321 CURVE SMOOTH",
"156 321 LINE"
);
}
);
width = 662;
},
{
layerId = "A0D976AB-773B-4D3A-9F7E-7A0C42AF1E7B";
paths = (
{
closed = 1;
nodes = (
"260 0 LINE",
"260 207 LINE",
"395 207 LINE SMOOTH",
"549 207 OFFCURVE",
"658 306 OFFCURVE",
"658 447 CURVE SMOOTH",
"658 588 OFFCURVE",
"549 687 OFFCURVE",
"395 687 CURVE SMOOTH",
"66 687 LINE",
"66 0 LINE"
);
},
{
closed = 1;
nodes = (
"260 511 LINE",
"379 511 LINE SMOOTH",
"425 511 OFFCURVE",
"458 484 OFFCURVE",
"458 447 CURVE SMOOTH",
"458 410 OFFCURVE",
"425 383 OFFCURVE",
"379 383 CURVE SMOOTH",
"260 383 LINE"
);
}
);
width = 678;
},
{
layerId = "3B040282-CF47-4846-BCAF-7BFF90FB63BC";
paths = (
{
closed = 1;
nodes = (
"134 0 LINE",
"134 267 LINE",
"387 267 LINE SMOOTH",
"526 267 OFFCURVE",
"625 354 OFFCURVE",
"625 477 CURVE SMOOTH",
"625 600 OFFCURVE",
"526 687 OFFCURVE",
"387 687 CURVE SMOOTH",
"98 687 LINE",
"98 0 LINE"
);
},
{
closed = 1;
nodes = (
"134 651 LINE",
"380 651 LINE SMOOTH",
"502 651 OFFCURVE",
"589 579 OFFCURVE",
"589 477 CURVE SMOOTH",
"589 375 OFFCURVE",
"502 303 OFFCURVE",
"380 303 CURVE SMOOTH",
"134 303 LINE"
);
}
);
width = 702;
},
{
associatedMasterId = "3B040282-CF47-4846-BCAF-7BFF90FB63BC";
layerId = "7B246243-E11B-4299-9E21-30DC81A1EB55";
name = bubble;
paths = (
{
closed = 1;
nodes = (
"211 0 LINE",
"211 190 LINE",
"387 190 LINE SMOOTH",
"568 190 OFFCURVE",
"702 311 OFFCURVE",
"702 477 CURVE SMOOTH",
"702 643 OFFCURVE",
"568 764 OFFCURVE",
"387 764 CURVE SMOOTH",
"0 764 LINE",
"0 0 LINE"
);
}
);
width = 702;
},
{
associatedMasterId = "35616FF6-3D9C-499B-B113-AC9E0DB5842A";
layerId = "8774E50C-970C-4868-86E9-08348300D076";
name = bubble;
paths = (
{
closed = 1;
nodes = (
"208 0 LINE",
"208 195 LINE",
"357 195 LINE SMOOTH",
"531 195 OFFCURVE",
"662 311 OFFCURVE",
"662 467 CURVE SMOOTH",
"662 623 OFFCURVE",
"531 739 OFFCURVE",
"357 739 CURVE SMOOTH",
"0 739 LINE",
"0 0 LINE"
);
}
);
width = 662;
},
{
associatedMasterId = "A0D976AB-773B-4D3A-9F7E-7A0C42AF1E7B";
layerId = "55080385-E5C0-4AED-92E6-2EBD2D3A042A";
name = bubble;
paths = (
{
closed = 1;
nodes = (
"280 0 LINE",
"280 187 LINE",
"395 187 LINE SMOOTH",
"560 187 OFFCURVE",
"678 295 OFFCURVE",
"678 447 CURVE SMOOTH",
"678 599 OFFCURVE",
"560 707 OFFCURVE",
"395 707 CURVE SMOOTH",
"0 707 LINE",
"0 0 LINE"
);
}
);
width = 678;
}
);
leftKerningGroup = P;
rightKerningGroup = P;
unicode = 0050;
},
{
color = 1;
glyphname = Thorn;
lastChange = "2020-01-30 01:02:40 +0000";
layers = (
{
layerId = "3B040282-CF47-4846-BCAF-7BFF90FB63BC";
paths = (
{
closed = 1;
nodes = (
"134 0 LINE",
"134 136 LINE",
"387 136 LINE SMOOTH",
"526 136 OFFCURVE",
"625 223 OFFCURVE",
"625 346 CURVE SMOOTH",
"625 469 OFFCURVE",
"526 556 OFFCURVE",
"387 556 CURVE SMOOTH",
"134 556 LINE",
"134 687 LINE",
"98 687 LINE",
"98 0 LINE"
);
},
{
closed = 1;
nodes = (
"134 520 LINE",
"380 520 LINE SMOOTH",
"502 520 OFFCURVE",
"589 448 OFFCURVE",
"589 346 CURVE SMOOTH",
"589 244 OFFCURVE",
"502 172 OFFCURVE",
"380 172 CURVE SMOOTH",
"134 172 LINE"
);
}
);
width = 702;
},
{
layerId = "35616FF6-3D9C-499B-B113-AC9E0DB5842A";
paths = (
{
closed = 1;
nodes = (
"156 0 LINE",
"156 126 LINE",
"357 126 LINE SMOOTH",
"499 126 OFFCURVE",
"610 217 OFFCURVE",
"610 346 CURVE SMOOTH",
"610 475 OFFCURVE",
"499 566 OFFCURVE",
"357 566 CURVE SMOOTH",
"158 566 LINE",
"158 687 LINE",
"78 687 LINE",
"78 0 LINE"
);
},
{
closed = 1;
nodes = (
"156 492 LINE",
"343 492 LINE SMOOTH",
"455 492 OFFCURVE",
"531 438 OFFCURVE",
"531 346 CURVE SMOOTH",
"531 254 OFFCURVE",
"455 200 OFFCURVE",
"343 200 CURVE SMOOTH",
"156 200 LINE"
);
}
);
width = 662;
},
{
layerId = "A0D976AB-773B-4D3A-9F7E-7A0C42AF1E7B";
paths = (
{
closed = 1;
nodes = (
"260 0 LINE",
"260 105 LINE",
"395 105 LINE SMOOTH",
"549 105 OFFCURVE",
"658 204 OFFCURVE",
"658 345 CURVE SMOOTH",
"658 486 OFFCURVE",
"549 585 OFFCURVE",
"395 585 CURVE SMOOTH",
"255 585 LINE",
"255 687 LINE",
"66 687 LINE",
"66 0 LINE"
);
},
{
closed = 1;
nodes = (
"260 409 LINE",
"379 409 LINE SMOOTH",
"425 409 OFFCURVE",
"458 382 OFFCURVE",
"458 345 CURVE SMOOTH",
"458 308 OFFCURVE",
"425 281 OFFCURVE",
"379 281 CURVE SMOOTH",
"260 281 LINE"
);
}
);
width = 678;
},
{
associatedMasterId = "3B040282-CF47-4846-BCAF-7BFF90FB63BC";
layerId = "F4BBD475-06E6-4374-8B3A-D550E4CCC84F";
name = bubble;
paths = (
{
closed = 1;
nodes = (
"211 0 LINE",
"211 59 LINE",
"387 59 LINE SMOOTH",
"568 59 OFFCURVE",
"702 180 OFFCURVE",
"702 346 CURVE SMOOTH",
"702 512 OFFCURVE",
"568 633 OFFCURVE",
"387 633 CURVE SMOOTH",
"211 633 LINE",
"211 687 LINE",
"0 687 LINE",
"0 0 LINE"
);
}
);
width = 702;
},
{
associatedMasterId = "35616FF6-3D9C-499B-B113-AC9E0DB5842A";
layerId = "3AECD9B6-F64F-4F37-8587-6133D5CFD13A";
name = bubble;
paths = (
{
closed = 1;
nodes = (
"208 0 LINE",
"208 74 LINE",
"357 74 LINE SMOOTH",
"531 74 OFFCURVE",
"662 190 OFFCURVE",
"662 346 CURVE SMOOTH",
"662 502 OFFCURVE",
"531 618 OFFCURVE",
"357 618 CURVE SMOOTH",
"210 618 LINE",
"210 687 LINE",
"0 687 LINE",
"0 0 LINE"
);
}
);
width = 662;
},
{
associatedMasterId = "A0D976AB-773B-4D3A-9F7E-7A0C42AF1E7B";
layerId = "62F7A94E-AE03-47D4-B888-FC65CBC017DA";
name = bubble;
paths = (
{
closed = 1;
nodes = (
"280 0 LINE",
"280 85 LINE",
"395 85 LINE SMOOTH",
"560 85 OFFCURVE",
"678 193 OFFCURVE",
"678 345 CURVE SMOOTH",
"678 497 OFFCURVE",
"560 605 OFFCURVE",
"395 605 CURVE SMOOTH",
"275 605 LINE",
"275 687 LINE",
"0 687 LINE",
"0 0 LINE"
);
}
);
width = 678;
}
);
leftKerningGroup = Thorn;
rightKerningGroup = Thorn;
unicode = 00DE;
},
{
color = 1;
glyphname = Q;
lastChange = "2020-01-30 01:06:38 +0000";
layers = (
{
anchors = (
{
name = top;
position = "{406, 687}";
}
);
layerId = "35616FF6-3D9C-499B-B113-AC9E0DB5842A";
paths = (
{
closed = 1;
nodes = (
"753 58 LINE",
"509 270 LINE",
"459 212 LINE",
"703 0 LINE"
);
},
{
closed = 1;
nodes = (
"597 -12 OFFCURVE",
"757 151 OFFCURVE",
"757 344 CURVE SMOOTH",
"757 537 OFFCURVE",
"597 699 OFFCURVE",
"406 699 CURVE SMOOTH",
"216 699 OFFCURVE",
"54 537 OFFCURVE",
"54 344 CURVE SMOOTH",
"54 151 OFFCURVE",
"216 -12 OFFCURVE",
"406 -12 CURVE SMOOTH"
);
},
{
closed = 1;
nodes = (
"258 60 OFFCURVE",
"133 190 OFFCURVE",
"133 344 CURVE SMOOTH",
"133 497 OFFCURVE",
"258 627 OFFCURVE",
"406 627 CURVE SMOOTH",
"554 627 OFFCURVE",
"678 497 OFFCURVE",
"678 344 CURVE SMOOTH",
"678 190 OFFCURVE",
"554 60 OFFCURVE",
"406 60 CURVE SMOOTH"
);
}
);
width = 812;
},
{
anchors = (
{
name = top;
position = "{398, 687}";
}
);
layerId = "A0D976AB-773B-4D3A-9F7E-7A0C42AF1E7B";
paths = (
{
closed = 1;
nodes = (
"764 106 LINE",
"495 340 LINE",
"404 234 LINE",
"673 0 LINE"
);
},
{
closed = 1;
nodes = (
"601 -12 OFFCURVE",
"772 151 OFFCURVE",
"772 344 CURVE SMOOTH",
"772 537 OFFCURVE",
"601 699 OFFCURVE",
"398 699 CURVE SMOOTH",
"195 699 OFFCURVE",
"24 537 OFFCURVE",
"24 344 CURVE SMOOTH",
"24 151 OFFCURVE",
"195 -12 OFFCURVE",
"398 -12 CURVE SMOOTH"
);
},
{
closed = 1;
nodes = (
"304 164 OFFCURVE",
"224 246 OFFCURVE",
"224 344 CURVE SMOOTH",
"224 441 OFFCURVE",
"304 523 OFFCURVE",
"398 523 CURVE SMOOTH",
"492 523 OFFCURVE",
"572 441 OFFCURVE",
"572 344 CURVE SMOOTH",
"572 246 OFFCURVE",
"492 164 OFFCURVE",
"398 164 CURVE SMOOTH"
);
}
);
width = 802;
},
{
anchors = (
{
name = top;
position = "{431, 687}";
}
);
layerId = "3B040282-CF47-4846-BCAF-7BFF90FB63BC";
paths = (
{
closed = 1;
nodes = (
"749 27 LINE",
"506 237 LINE",
"483 210 LINE",
"725 0 LINE"
);
},
{
closed = 1;
nodes = (
"622 -12 OFFCURVE",
"782 151 OFFCURVE",
"782 344 CURVE SMOOTH",
"782 537 OFFCURVE",
"622 699 OFFCURVE",
"431 699 CURVE SMOOTH",
"240 699 OFFCURVE",
"79 537 OFFCURVE",
"79 344 CURVE SMOOTH",
"79 151 OFFCURVE",
"240 -12 OFFCURVE",
"431 -12 CURVE SMOOTH"
);
},
{
closed = 1;
nodes = (
"259 24 OFFCURVE",
"115 170 OFFCURVE",
"115 344 CURVE SMOOTH",
"115 517 OFFCURVE",
"259 663 OFFCURVE",
"431 663 CURVE SMOOTH",
"602 663 OFFCURVE",
"746 517 OFFCURVE",
"746 344 CURVE SMOOTH",
"746 170 OFFCURVE",
"602 24 OFFCURVE",
"431 24 CURVE SMOOTH"
);
}
);
width = 861;
},
{
anchors = (
{
name = top;
position = "{431, 687}";
}
);
associatedMasterId = "3B040282-CF47-4846-BCAF-7BFF90FB63BC";
layerId = "7BB8C957-B718-4A83-B734-D74A7114AC3A";
name = bubble;
paths = (
{
closed = 1;
nodes = (
"0 107 OFFCURVE",
"196 -91 OFFCURVE",
"431 -91 CURVE SMOOTH",
"507 -91 OFFCURVE",
"580 -70 OFFCURVE",
"642 -33 CURVE",
"672 -59 LINE",
"801 85 LINE",
"785 99 LINE",
"833 169 OFFCURVE",
"861 254 OFFCURVE",
"861 344 CURVE SMOOTH",
"861 581 OFFCURVE",
"666 778 OFFCURVE",
"431 778 CURVE SMOOTH",
"196 778 OFFCURVE",
"0 580 OFFCURVE",
"0 344 CURVE SMOOTH"
);
}
);
width = 861;
},
{
anchors = (
{
name = top;
position = "{406, 687}";
}
);
associatedMasterId = "35616FF6-3D9C-499B-B113-AC9E0DB5842A";
layerId = "B14860CD-268C-403A-9405-F034CDB7BA26";
name = bubble;
paths = (
{
closed = 1;
nodes = (
"0 122 OFFCURVE",
"186 -66 OFFCURVE",
"406 -66 CURVE SMOOTH",
"485 -66 OFFCURVE",
"559 -42 OFFCURVE",
"622 -1 CURVE",
"668 -41 LINE",
"788 99 LINE",
"751 131 LINE",
"789 194 OFFCURVE",
"812 267 OFFCURVE",
"812 344 CURVE SMOOTH",
"812 567 OFFCURVE",
"627 753 OFFCURVE",
"406 753 CURVE SMOOTH",
"185 753 OFFCURVE",
"0 566 OFFCURVE",
"0 344 CURVE SMOOTH"
);
}
);
width = 812;
},
{
anchors = (
{
name = top;
position = "{398, 687}";
}
);
associatedMasterId = "A0D976AB-773B-4D3A-9F7E-7A0C42AF1E7B";
layerId = "15D8CEFB-BA65-4DDE-8AB8-6FB57A7138DA";
name = bubble;
paths = (
{
closed = 1;
nodes = (
"0 134 OFFCURVE",
"179 -42 OFFCURVE",
"398 -42 CURVE SMOOTH",
"475 -42 OFFCURVE",
"547 -21 OFFCURVE",
"609 16 CURVE",
"654 -23 LINE",
"784 128 LINE",
"750 157 LINE",
"783 213 OFFCURVE",
"802 277 OFFCURVE",
"802 344 CURVE SMOOTH",
"802 553 OFFCURVE",
"618 729 OFFCURVE",
"398 729 CURVE SMOOTH",
"178 729 OFFCURVE",
"0 553 OFFCURVE",
"0 344 CURVE SMOOTH"
);
}
);
width = 802;
}
);
leftKerningGroup = Q;
rightKerningGroup = Q;
unicode = 0051;
},
{
color = 1;
glyphname = R;
lastChange = "2020-01-30 01:09:39 +0000";
layers = (
{
anchors = (
{
name = bottom;
position = "{303, 0}";
},
{
name = top;
position = "{303, 687}";
}
);
layerId = "35616FF6-3D9C-499B-B113-AC9E0DB5842A";
paths = (
{
closed = 1;
nodes = (
"571 0 LINE",
"382 269 LINE",
"293 269 LINE",
"482 0 LINE"
);
},
{
closed = 1;
nodes = (
"156 0 LINE",
"156 247 LINE",
"357 247 LINE SMOOTH",
"499 247 OFFCURVE",
"610 338 OFFCURVE",
"610 467 CURVE SMOOTH",
"610 596 OFFCURVE",
"499 687 OFFCURVE",
"357 687 CURVE SMOOTH",
"78 687 LINE",
"78 0 LINE"
);
},
{
closed = 1;
nodes = (
"156 613 LINE",
"343 613 LINE SMOOTH",
"455 613 OFFCURVE",
"531 559 OFFCURVE",
"531 467 CURVE SMOOTH",
"531 375 OFFCURVE",
"455 321 OFFCURVE",
"343 321 CURVE SMOOTH",
"156 321 LINE"
);
}
);
width = 662;
},
{
anchors = (
{
name = bottom;
position = "{342, 0}";
},
{
name = top;
position = "{335, 687}";
}
);
layerId = "A0D976AB-773B-4D3A-9F7E-7A0C42AF1E7B";
paths = (
{
closed = 1;
nodes = (
"673 0 LINE",
"484 269 LINE",
"263 269 LINE",
"452 0 LINE"
);
},
{
closed = 1;
nodes = (
"260 0 LINE",
"260 207 LINE",
"395 207 LINE SMOOTH",
"549 207 OFFCURVE",
"658 306 OFFCURVE",
"658 447 CURVE SMOOTH",
"658 588 OFFCURVE",
"549 687 OFFCURVE",
"395 687 CURVE SMOOTH",
"66 687 LINE",
"66 0 LINE"
);
},
{
closed = 1;
nodes = (
"260 511 LINE",
"379 511 LINE SMOOTH",
"425 511 OFFCURVE",
"458 484 OFFCURVE",
"458 447 CURVE SMOOTH",
"458 410 OFFCURVE",
"425 383 OFFCURVE",
"379 383 CURVE SMOOTH",
"260 383 LINE"
);
}
);
width = 696;
},
{
anchors = (
{
name = bottom;
position = "{306, 0}";
},
{
name = top;
position = "{306, 687}";
}
);
layerId = "3B040282-CF47-4846-BCAF-7BFF90FB63BC";
paths = (
{
closed = 1;
nodes = (
"554 0 LINE",
"350 291 LINE",
"306 291 LINE",
"510 0 LINE"
);
},
{
closed = 1;
nodes = (
"134 0 LINE",
"134 267 LINE",
"387 267 LINE SMOOTH",
"526 267 OFFCURVE",
"625 354 OFFCURVE",
"625 477 CURVE SMOOTH",
"625 600 OFFCURVE",
"526 687 OFFCURVE",
"387 687 CURVE SMOOTH",
"98 687 LINE",
"98 0 LINE"
);
},
{
closed = 1;
nodes = (
"134 651 LINE",
"380 651 LINE SMOOTH",
"502 651 OFFCURVE",
"589 579 OFFCURVE",
"589 477 CURVE SMOOTH",
"589 375 OFFCURVE",
"502 303 OFFCURVE",
"380 303 CURVE SMOOTH",
"134 303 LINE"
);
}
);
width = 702;
},
{
anchors = (
{
name = bottom;
position = "{306, 0}";
},
{
name = top;
position = "{306, 687}";
}
);
associatedMasterId = "3B040282-CF47-4846-BCAF-7BFF90FB63BC";
layerId = "754F1A28-2BF2-4757-BCEC-024764DE7D3A";
name = bubble;
paths = (
{
closed = 1;
nodes = (
"648 0 LINE",
"502 208 LINE",
"622 247 OFFCURVE",
"702 349 OFFCURVE",
"702 477 CURVE SMOOTH",
"702 643 OFFCURVE",
"568 764 OFFCURVE",
"387 764 CURVE SMOOTH",
"0 764 LINE",
"0 0 LINE"
);
}
);
width = 702;
},
{
anchors = (
{
name = bottom;
position = "{303, 0}";
},
{
name = top;
position = "{303, 687}";
}
);
associatedMasterId = "35616FF6-3D9C-499B-B113-AC9E0DB5842A";
layerId = "725810BA-D192-4A94-AE6F-8B8A0047D38A";
name = bubble;
paths = (
{
closed = 1;
nodes = (
"634 0 LINE",
"482 217 LINE",
"590 258 OFFCURVE",
"662 351 OFFCURVE",
"662 467 CURVE SMOOTH",
"662 623 OFFCURVE",
"531 739 OFFCURVE",
"357 739 CURVE SMOOTH",
"0 739 LINE",
"0 0 LINE"
);
}
);
width = 662;
},
{
anchors = (
{
name = bottom;
position = "{342, 0}";
},
{
name = top;
position = "{335, 687}";
}
);
associatedMasterId = "A0D976AB-773B-4D3A-9F7E-7A0C42AF1E7B";
layerId = "1457A70A-A532-4FF4-B6C3-76C18D3CB14F";
name = bubble;
paths = (
{
closed = 1;
nodes = (
"696 0 LINE",
"551 206 LINE",
"639 251 OFFCURVE",
"696 339 OFFCURVE",
"696 447 CURVE SMOOTH",
"696 609 OFFCURVE",
"570 725 OFFCURVE",
"395 725 CURVE SMOOTH",
"0 725 LINE",
"0 0 LINE"
);
}
);
width = 696;
}
);
leftKerningGroup = R;
rightKerningGroup = R;
unicode = 0052;
},
{
color = 1;
glyphname = S;
lastChange = "2020-01-30 01:31:43 +0000";
layers = (
{
anchors = (
{
name = bottom;
position = "{310, 0}";
},
{
name = top;
position = "{309, 687}";
}
);
layerId = "35616FF6-3D9C-499B-B113-AC9E0DB5842A";
paths = (
{
closed = 1;
nodes = (
"479 -11 OFFCURVE",
"561 78 OFFCURVE",
"561 187 CURVE SMOOTH",
"561 308 OFFCURVE",
"467 355 OFFCURVE",
"336 386 CURVE SMOOTH",
"219 414 OFFCURVE",
"151 439 OFFCURVE",
"151 510 CURVE SMOOTH",
"151 573 OFFCURVE",
"213 629 OFFCURVE",
"298 629 CURVE SMOOTH",
"370 629 OFFCURVE",
"438 596 OFFCURVE",
"495 541 CURVE",
"543 602 LINE",
"480 660 OFFCURVE",
"404 700 OFFCURVE",
"302 700 CURVE SMOOTH",
"170 700 OFFCURVE",
"72 614 OFFCURVE",
"72 504 CURVE SMOOTH",
"72 385 OFFCURVE",
"159 342 OFFCURVE",
"297 310 CURVE SMOOTH",
"417 282 OFFCURVE",
"482 253 OFFCURVE",
"482 180 CURVE SMOOTH",
"482 118 OFFCURVE",
"428 60 OFFCURVE",
"322 60 CURVE SMOOTH",
"226 60 OFFCURVE",
"155 101 OFFCURVE",
"97 159 CURVE",
"48 98 LINE",
"117 30 OFFCURVE",
"206 -11 OFFCURVE",
"319 -11 CURVE SMOOTH"
);
}
);
width = 613;
},
{
anchors = (
{
name = bottom;
position = "{323, 0}";
},
{
name = top;
position = "{323, 687}";
}
);
layerId = "A0D976AB-773B-4D3A-9F7E-7A0C42AF1E7B";
paths = (
{
closed = 1;
nodes = (
"515 -12 OFFCURVE",
"626 73 OFFCURVE",
"626 218 CURVE SMOOTH",
"626 349 OFFCURVE",
"526 392 OFFCURVE",
"366 426 CURVE SMOOTH",
"268 447 OFFCURVE",
"244 458 OFFCURVE",
"244 493 CURVE SMOOTH",
"244 519 OFFCURVE",
"267 538 OFFCURVE",
"314 538 CURVE SMOOTH",
"376 538 OFFCURVE",
"446 515 OFFCURVE",
"510 469 CURVE",
"607 606 LINE",
"531 667 OFFCURVE",
"438 699 OFFCURVE",
"319 699 CURVE SMOOTH",
"156 699 OFFCURVE",
"48 610 OFFCURVE",
"48 473 CURVE SMOOTH",
"48 330 OFFCURVE",
"163 291 OFFCURVE",
"312 257 CURVE SMOOTH",
"407 235 OFFCURVE",
"431 230 OFFCURVE",
"431 197 CURVE SMOOTH",
"431 167 OFFCURVE",
"403 149 OFFCURVE",
"350 149 CURVE SMOOTH",
"269 149 OFFCURVE",
"193 178 OFFCURVE",
"123 233 CURVE",
"15 104 LINE",
"102 27 OFFCURVE",
"219 -12 OFFCURVE",
"343 -12 CURVE SMOOTH"
);
}
);
width = 649;
},
{
anchors = (
{
name = bottom;
position = "{338, 0}";
},
{
name = top;
position = "{338, 687}";
}
);
layerId = "3B040282-CF47-4846-BCAF-7BFF90FB63BC";
paths = (
{
closed = 1;
nodes = (
"480 -11 OFFCURVE",
"576 67 OFFCURVE",
"576 177 CURVE SMOOTH",
"576 273 OFFCURVE",
"511 327 OFFCURVE",
"350 365 CURVE SMOOTH",
"202 401 OFFCURVE",
"143 441 OFFCURVE",
"143 507 CURVE SMOOTH",
"143 599 OFFCURVE",
"218 664 OFFCURVE",
"325 664 CURVE SMOOTH",
"405 664 OFFCURVE",
"483 631 OFFCURVE",
"542 574 CURVE",
"564 602 LINE",
"497 664 OFFCURVE",
"411 700 OFFCURVE",
"327 700 CURVE SMOOTH",
"198 700 OFFCURVE",
"107 619 OFFCURVE",
"107 504 CURVE SMOOTH",
"107 418 OFFCURVE",
"171 369 OFFCURVE",
"332 332 CURVE SMOOTH",
"481 297 OFFCURVE",
"540 252 OFFCURVE",
"540 174 CURVE SMOOTH",
"540 87 OFFCURVE",
"459 25 OFFCURVE",
"345 25 CURVE SMOOTH",
"251 25 OFFCURVE",
"158 63 OFFCURVE",
"95 126 CURVE",
"73 98 LINE",
"143 29 OFFCURVE",
"243 -11 OFFCURVE",
"344 -11 CURVE SMOOTH"
);
}
);
width = 653;
},
{
anchors = (
{
name = bottom;
position = "{338, 0}";
},
{
name = top;
position = "{338, 687}";
}
);
associatedMasterId = "3B040282-CF47-4846-BCAF-7BFF90FB63BC";
layerId = "CF130CAB-1733-4107-A532-B5066BEA2FDD";
name = bubble;
paths = (
{
closed = 1;
nodes = (
"523 -90 OFFCURVE",
"653 22 OFFCURVE",
"653 177 CURVE SMOOTH",
"653 315 OFFCURVE",
"563 396 OFFCURVE",
"368 442 CURVE SMOOTH",
"256 469 OFFCURVE",
"222 493 OFFCURVE",
"222 507 CURVE SMOOTH",
"222 553 OFFCURVE",
"261 585 OFFCURVE",
"325 585 CURVE SMOOTH",
"387 585 OFFCURVE",
"447 559 OFFCURVE",
"493 511 CURVE",
"613 664 LINE",
"532 737 OFFCURVE",
"427 779 OFFCURVE",
"327 779 CURVE SMOOTH",
"155 779 OFFCURVE",
"28 663 OFFCURVE",
"28 504 CURVE SMOOTH",
"28 370 OFFCURVE",
"127 298 OFFCURVE",
"314 255 CURVE SMOOTH",
"431 228 OFFCURVE",
"461 204 OFFCURVE",
"461 174 CURVE SMOOTH",
"461 135 OFFCURVE",
"417 104 OFFCURVE",
"345 104 CURVE SMOOTH",
"268 104 OFFCURVE",
"194 136 OFFCURVE",
"145 189 CURVE",
"25 36 LINE",
"108 -43 OFFCURVE",
"225 -90 OFFCURVE",
"344 -90 CURVE SMOOTH"
);
}
);
width = 653;
},
{
anchors = (
{
name = bottom;
position = "{310, 0}";
},
{
name = top;
position = "{309, 687}";
}
);
associatedMasterId = "35616FF6-3D9C-499B-B113-AC9E0DB5842A";
layerId = "4ED42525-9DE6-4166-938A-386627D41163";
name = bubble;
paths = (
{
closed = 1;
nodes = (
"495 -63 OFFCURVE",
"613 38 OFFCURVE",
"613 187 CURVE SMOOTH",
"613 318 OFFCURVE",
"530 394 OFFCURVE",
"348 437 CURVE SMOOTH",
"230 465 OFFCURVE",
"203 482 OFFCURVE",
"203 510 CURVE SMOOTH",
"203 545 OFFCURVE",
"245 577 OFFCURVE",
"298 577 CURVE SMOOTH",
"355 577 OFFCURVE",
"411 551 OFFCURVE",
"463 500 CURVE",
"575 643 LINE",
"495 716 OFFCURVE",
"405 752 OFFCURVE",
"302 752 CURVE SMOOTH",
"143 752 OFFCURVE",
"17 645 OFFCURVE",
"17 504 CURVE SMOOTH",
"17 373 OFFCURVE",
"99 303 OFFCURVE",
"285 259 CURVE SMOOTH",
"400 233 OFFCURVE",
"430 213 OFFCURVE",
"430 180 CURVE SMOOTH",
"430 141 OFFCURVE",
"389 112 OFFCURVE",
"322 112 CURVE SMOOTH",
"249 112 OFFCURVE",
"189 139 OFFCURVE",
"130 200 CURVE",
"15 58 LINE",
"98 -22 OFFCURVE",
"201 -63 OFFCURVE",
"319 -63 CURVE SMOOTH"
);
}
);
width = 613;
},
{
anchors = (
{
name = bottom;
position = "{323, 0}";
},
{
name = top;
position = "{323, 687}";
}
);
associatedMasterId = "A0D976AB-773B-4D3A-9F7E-7A0C42AF1E7B";
layerId = "B9C163A6-27B9-409F-9121-B2FE7C415CD1";
name = bubble;
paths = (
{
closed = 1;
nodes = (
"539 -50 OFFCURVE",
"649 54 OFFCURVE",
"649 218 CURVE SMOOTH",
"649 353 OFFCURVE",
"583 419 OFFCURVE",
"374 463 CURVE SMOOTH",
"286 482 OFFCURVE",
"282 488 OFFCURVE",
"282 493 CURVE SMOOTH",
"282 494 OFFCURVE",
"291 500 OFFCURVE",
"314 500 CURVE SMOOTH",
"372 500 OFFCURVE",
"432 479 OFFCURVE",
"488 438 CURVE",
"629 637 LINE",
"545 704 OFFCURVE",
"441 737 OFFCURVE",
"319 737 CURVE SMOOTH",
"135 737 OFFCURVE",
"0 631 OFFCURVE",
"0 473 CURVE SMOOTH",
"0 303 OFFCURVE",
"153 254 OFFCURVE",
"303 220 CURVE SMOOTH",
"376 203 OFFCURVE",
"393 198 OFFCURVE",
"393 197 CURVE SMOOTH",
"393 194 OFFCURVE",
"382 187 OFFCURVE",
"350 187 CURVE SMOOTH",
"279 187 OFFCURVE",
"212 211 OFFCURVE",
"147 262 CURVE",
"-9 74 LINE",
"82 -6 OFFCURVE",
"207 -50 OFFCURVE",
"343 -50 CURVE SMOOTH"
);
}
);
width = 649;
}
);
leftKerningGroup = S;
rightKerningGroup = S;
unicode = 0053;
},
{
color = 1;
glyphname = T;
lastChange = "2020-01-30 02:17:39 +0000";
layers = (
{
anchors = (
{
name = bottom;
position = "{319, 0}";
},
{
name = top;
position = "{319, 687}";
}
);
layerId = "35616FF6-3D9C-499B-B113-AC9E0DB5842A";
paths = (
{
closed = 1;
nodes = (
"358 0 LINE",
"358 613 LINE",
"589 613 LINE",
"589 687 LINE",
"49 687 LINE",
"49 613 LINE",
"280 613 LINE",
"280 0 LINE"
);
}
);
width = 638;
},
{
anchors = (
{
name = bottom;
position = "{320, 0}";
},
{
name = top;
position = "{320, 687}";
}
);
layerId = "A0D976AB-773B-4D3A-9F7E-7A0C42AF1E7B";
paths = (
{
closed = 1;
nodes = (
"417 0 LINE",
"417 514 LINE",
"620 514 LINE",
"620 687 LINE",
"20 687 LINE",
"20 514 LINE",
"223 514 LINE",
"223 0 LINE"
);
}
);
width = 640;
},
{
anchors = (
{
name = bottom;
position = "{344, 0}";
},
{
name = top;
position = "{344, 687}";
}
);
layerId = "3B040282-CF47-4846-BCAF-7BFF90FB63BC";
paths = (
{
closed = 1;
nodes = (
"362 0 LINE",
"362 651 LINE",
"614 651 LINE",
"614 687 LINE",
"74 687 LINE",
"74 651 LINE",
"326 651 LINE",
"326 0 LINE"
);
}
);
width = 688;
},
{
anchors = (
{
name = bottom;
position = "{320, 0}";
},
{
name = top;
position = "{320, 687}";
}
);
associatedMasterId = "A0D976AB-773B-4D3A-9F7E-7A0C42AF1E7B";
layerId = "ADF74DD1-4618-4395-8F5B-4EAD459428A0";
name = bubble;
paths = (
{
closed = 1;
nodes = (
"558 0 LINE",
"558 438 LINE",
"640 438 LINE",
"640 687 LINE",
"0 687 LINE",
"0 438 LINE",
"82 438 LINE",
"82 0 LINE"
);
}
);
width = 640;
},
{
anchors = (
{
name = bottom;
position = "{319, 0}";
},
{
name = top;
position = "{319, 687}";
}
);
associatedMasterId = "35616FF6-3D9C-499B-B113-AC9E0DB5842A";
layerId = "90DF4EFF-12A9-4770-8376-833C5A313077";
name = bubble;
paths = (
{
closed = 1;
nodes = (
"526 0 LINE",
"526 545 LINE",
"638 545 LINE",
"638 687 LINE",
"0 687 LINE",
"0 545 LINE",
"112 545 LINE",
"112 0 LINE"
);
}
);
width = 638;
},
{
anchors = (
{
name = bottom;
position = "{344, 0}";
},
{
name = top;
position = "{344, 687}";
}
);
associatedMasterId = "3B040282-CF47-4846-BCAF-7BFF90FB63BC";
layerId = "9DF3C2F5-733C-427C-B37C-CC39A41E4538";
name = bubble;
paths = (
{
closed = 1;
nodes = (
"573 0 LINE",
"573 560 LINE",
"688 560 LINE",
"688 687 LINE",
"0 687 LINE",
"0 560 LINE",
"115 560 LINE",
"115 0 LINE"
);
}
);
width = 688;
}
);
leftKerningGroup = T;
rightKerningGroup = T;
unicode = 0054;
},
{
color = 1;
glyphname = U;
lastChange = "2019-05-05 09:16:11 +0000";
layers = (
{
anchors = (
{
name = bottom;
position = "{355, -12}";
},
{
name = top;
position = "{355, 687}";
}
);
layerId = "35616FF6-3D9C-499B-B113-AC9E0DB5842A";
paths = (
{
closed = 1;
nodes = (
"523 -12 OFFCURVE",
"642 111 OFFCURVE",
"642 285 CURVE SMOOTH",
"642 687 LINE",
"564 687 LINE",
"564 285 LINE SMOOTH",
"564 153 OFFCURVE",
"477 59 OFFCURVE",
"355 59 CURVE SMOOTH",
"233 59 OFFCURVE",
"146 153 OFFCURVE",
"146 285 CURVE SMOOTH",
"146 687 LINE",
"68 687 LINE",
"68 285 LINE SMOOTH",
"68 111 OFFCURVE",
"187 -12 OFFCURVE",
"355 -12 CURVE SMOOTH"
);
}
);
width = 710;
},
{
anchors = (
{
name = bottom;
position = "{375, -12}";
},
{
name = top;
position = "{375, 687}";
}
);
layerId = "A0D976AB-773B-4D3A-9F7E-7A0C42AF1E7B";
paths = (
{
closed = 1;
nodes = (
"567 -12 OFFCURVE",
"702 119 OFFCURVE",
"702 305 CURVE SMOOTH",
"702 687 LINE",
"508 687 LINE",
"508 315 LINE SMOOTH",
"508 227 OFFCURVE",
"453 164 OFFCURVE",
"375 164 CURVE SMOOTH",
"297 164 OFFCURVE",
"242 227 OFFCURVE",
"242 315 CURVE SMOOTH",
"242 687 LINE",
"48 687 LINE",
"48 305 LINE SMOOTH",
"48 119 OFFCURVE",
"183 -12 OFFCURVE",
"375 -12 CURVE SMOOTH"
);
}
);
width = 750;
},
{
anchors = (
{
name = bottom;
position = "{357, -12}";
},
{
name = top;
position = "{357, 687}";
}
);
layerId = "3B040282-CF47-4846-BCAF-7BFF90FB63BC";
paths = (
{
closed = 1;
nodes = (
"513 -12 OFFCURVE",
"623 103 OFFCURVE",
"623 265 CURVE SMOOTH",
"623 687 LINE",
"587 687 LINE",
"587 265 LINE SMOOTH",
"587 124 OFFCURVE",
"492 24 OFFCURVE",
"357 24 CURVE SMOOTH",
"222 24 OFFCURVE",
"127 124 OFFCURVE",
"127 265 CURVE SMOOTH",
"127 687 LINE",
"91 687 LINE",
"91 265 LINE SMOOTH",
"91 103 OFFCURVE",
"201 -12 OFFCURVE",
"357 -12 CURVE SMOOTH"
);
}
);
width = 714;
},
{
anchors = (
{
name = bottom;
position = "{375, -12}";
},
{
name = top;
position = "{375, 687}";
}
);
associatedMasterId = "A0D976AB-773B-4D3A-9F7E-7A0C42AF1E7B";
layerId = "F33A745B-A880-4D88-B357-30E26D34F5E4";
name = bubble;
paths = (
{
closed = 1;
nodes = (
"593 -60 OFFCURVE",
"750 92 OFFCURVE",
"750 305 CURVE SMOOTH",
"750 687 LINE",
"0 687 LINE",
"0 305 LINE SMOOTH",
"0 92 OFFCURVE",
"157 -60 OFFCURVE",
"375 -60 CURVE SMOOTH"
);
}
);
width = 750;
},
{
anchors = (
{
name = bottom;
position = "{355, -12}";
}
);
associatedMasterId = "35616FF6-3D9C-499B-B113-AC9E0DB5842A";
layerId = "E74688B2-8B13-4D81-973D-D14411EAC09B";
name = bubble;
paths = (
{
closed = 1;
nodes = (
"561 -80 OFFCURVE",
"710 74 OFFCURVE",
"710 285 CURVE SMOOTH",
"710 687 LINE",
"0 687 LINE",
"0 285 LINE SMOOTH",
"0 74 OFFCURVE",
"149 -80 OFFCURVE",
"355 -80 CURVE SMOOTH"
);
}
);
width = 710;
},
{
anchors = (
{
name = bottom;
position = "{357, -12}";
}
);
associatedMasterId = "3B040282-CF47-4846-BCAF-7BFF90FB63BC";
layerId = "DED84941-FDE1-4B35-B73B-94624F876A50";
name = bubble;
paths = (
{
closed = 1;
nodes = (
"563 -103 OFFCURVE",
"714 53 OFFCURVE",
"714 265 CURVE SMOOTH",
"714 687 LINE",
"0 687 LINE",
"0 265 LINE SMOOTH",
"0 53 OFFCURVE",
"151 -103 OFFCURVE",
"357 -103 CURVE SMOOTH"
);
}
);
width = 714;
}
);
leftKerningGroup = U;
rightKerningGroup = U;
unicode = 0055;
},
{
color = 1;
glyphname = W;
lastChange = "2019-05-05 10:06:55 +0000";
layers = (
{
anchors = (
{
name = top;
position = "{551, 687}";
}
);
layerId = "35616FF6-3D9C-499B-B113-AC9E0DB5842A";
paths = (
{
closed = 1;
nodes = (
"359 0 LINE",
"551 585 LINE",
"742 0 LINE",
"819 0 LINE",
"1054 687 LINE",
"966 687 LINE",
"776 131 LINE",
"594 687 LINE",
"507 687 LINE",
"325 131 LINE",
"135 687 LINE",
"47 687 LINE",
"282 0 LINE"
);
}
);
width = 1101;
},
{
anchors = (
{
name = top;
position = "{545, 687}";
}
);
layerId = "A0D976AB-773B-4D3A-9F7E-7A0C42AF1E7B";
paths = (
{
closed = 1;
nodes = (
"401 0 LINE",
"545 397 LINE",
"688 0 LINE",
"884 0 LINE",
"1074 687 LINE",
"865 687 LINE",
"781 290 LINE",
"649 687 LINE",
"440 687 LINE",
"307 290 LINE",
"223 687 LINE",
"14 687 LINE",
"205 0 LINE"
);
}
);
width = 1088;
},
{
anchors = (
{
name = top;
position = "{554, 687}";
}
);
layerId = "3B040282-CF47-4846-BCAF-7BFF90FB63BC";
paths = (
{
closed = 1;
nodes = (
"343 0 LINE",
"554 629 LINE",
"764 0 LINE",
"803 0 LINE",
"1033 687 LINE",
"994 687 LINE",
"784 58 LINE",
"573 687 LINE",
"534 687 LINE",
"324 58 LINE",
"113 687 LINE",
"74 687 LINE",
"304 0 LINE"
);
}
);
width = 1107;
},
{
anchors = (
{
name = top;
position = "{545, 687}";
}
);
associatedMasterId = "A0D976AB-773B-4D3A-9F7E-7A0C42AF1E7B";
layerId = "28D310AA-3F28-4BDA-8F56-40C70B98D83C";
name = bubble;
paths = (
{
closed = 1;
nodes = (
"1010 0 LINE",
"1088 687 LINE",
"0 687 LINE",
"80 0 LINE"
);
}
);
width = 1088;
},
{
anchors = (
{
name = top;
position = "{551, 687}";
}
);
associatedMasterId = "35616FF6-3D9C-499B-B113-AC9E0DB5842A";
layerId = "365EE997-AAD4-4716-AE00-EF74C87F486C";
name = bubble;
paths = (
{
closed = 1;
nodes = (
"973 0 LINE",
"1101 687 LINE",
"0 687 LINE",
"128 0 LINE"
);
}
);
width = 1101;
},
{
anchors = (
{
name = top;
position = "{554, 687}";
}
);
associatedMasterId = "3B040282-CF47-4846-BCAF-7BFF90FB63BC";
layerId = "2DA86ADC-E795-4265-AD84-706AC7E8003A";
name = bubble;
paths = (
{
closed = 1;
nodes = (
"971 0 LINE",
"1107 687 LINE",
"0 687 LINE",
"136 0 LINE"
);
}
);
width = 1107;
}
);
leftKerningGroup = W;
rightKerningGroup = W;
unicode = 0057;
},
{
color = 1;
glyphname = X;
lastChange = "2019-05-05 05:48:15 +0000";
layers = (
{
layerId = "3B040282-CF47-4846-BCAF-7BFF90FB63BC";
paths = (
{
closed = 1;
nodes = (
"645 0 LINE",
"120 687 LINE",
"74 687 LINE",
"599 0 LINE"
);
},
{
closed = 1;
nodes = (
"120 0 LINE",
"646 687 LINE",
"600 687 LINE",
"74 0 LINE"
);
}
);
width = 720;
},
{
layerId = "35616FF6-3D9C-499B-B113-AC9E0DB5842A";
paths = (
{
closed = 1;
nodes = (
"669 0 LINE",
"144 687 LINE",
"48 687 LINE",
"573 0 LINE"
);
},
{
closed = 1;
nodes = (
"143 0 LINE",
"669 687 LINE",
"574 687 LINE",
"48 0 LINE"
);
}
);
width = 717;
},
{
layerId = "A0D976AB-773B-4D3A-9F7E-7A0C42AF1E7B";
paths = (
{
closed = 1;
nodes = (
"727 0 LINE",
"241 687 LINE",
"14 687 LINE",
"500 0 LINE"
);
},
{
closed = 1;
nodes = (
"237 0 LINE",
"727 687 LINE",
"504 687 LINE",
"14 0 LINE"
);
}
);
width = 741;
}
);
leftKerningGroup = X;
rightKerningGroup = X;
unicode = 0058;
},
{
color = 1;
glyphname = Y;
lastChange = "2019-05-05 09:26:46 +0000";
layers = (
{
anchors = (
{
name = top;
position = "{364, 687}";
}
);
layerId = "35616FF6-3D9C-499B-B113-AC9E0DB5842A";
paths = (
{
closed = 1;
nodes = (
"405 0 LINE",
"405 280 LINE",
"681 687 LINE",
"587 687 LINE",
"364 354 LINE",
"143 687 LINE",
"46 687 LINE",
"323 280 LINE",
"323 0 LINE"
);
}
);
width = 727;
},
{
anchors = (
{
name = top;
position = "{368, 687}";
}
);
layerId = "A0D976AB-773B-4D3A-9F7E-7A0C42AF1E7B";
paths = (
{
closed = 1;
nodes = (
"465 0 LINE",
"465 226 LINE",
"728 687 LINE",
"515 687 LINE",
"368 408 LINE",
"229 687 LINE",
"7 687 LINE",
"271 226 LINE",
"271 0 LINE"
);
}
);
width = 735;
},
{
anchors = (
{
name = top;
position = "{371, 687}";
}
);
layerId = "3B040282-CF47-4846-BCAF-7BFF90FB63BC";
paths = (
{
closed = 1;
nodes = (
"389 0 LINE",
"389 279 LINE",
"669 687 LINE",
"623 687 LINE",
"371 320 LINE",
"119 687 LINE",
"73 687 LINE",
"353 279 LINE",
"353 0 LINE"
);
}
);
width = 742;
},
{
associatedMasterId = "A0D976AB-773B-4D3A-9F7E-7A0C42AF1E7B";
layerId = "A8E03604-EEEE-4868-B18C-3931F0AF9C1D";
name = bubble;
paths = (
{
closed = 1;
nodes = (
"620 0 LINE",
"620 226 LINE",
"735 687 LINE",
"0 687 LINE",
"116 226 LINE",
"116 0 LINE"
);
}
);
width = 735;
},
{
associatedMasterId = "35616FF6-3D9C-499B-B113-AC9E0DB5842A";
layerId = "3FAD65CE-2A05-405C-BD66-A78C332DF5BD";
name = bubble;
paths = (
{
closed = 1;
nodes = (
"458 0 LINE",
"458 280 LINE",
"727 687 LINE",
"0 687 LINE",
"270 280 LINE",
"270 0 LINE"
);
}
);
width = 727;
},
{
associatedMasterId = "3B040282-CF47-4846-BCAF-7BFF90FB63BC";
layerId = "21BCC9BE-45F8-4987-94C7-1D9340A685BA";
name = bubble;
paths = (
{
closed = 1;
nodes = (
"480 0 LINE",
"480 251 LINE",
"742 687 LINE",
"0 687 LINE",
"262 251 LINE",
"262 0 LINE"
);
}
);
width = 742;
}
);
leftKerningGroup = Y;
rightKerningGroup = Y;
unicode = 0059;
},
{
color = 1;
glyphname = Z;
lastChange = "2019-05-05 09:23:48 +0000";
layers = (
{
anchors = (
{
name = top;
position = "{317, 687}";
}
);
layerId = "35616FF6-3D9C-499B-B113-AC9E0DB5842A";
paths = (
{
closed = 1;
nodes = (
"578 0 LINE",
"578 74 LINE",
"159 74 LINE",
"574 625 LINE",
"574 687 LINE",
"60 687 LINE",
"60 613 LINE",
"467 613 LINE",
"53 62 LINE",
"53 0 LINE"
);
}
);
width = 631;
},
{
anchors = (
{
name = top;
position = "{341, 687}";
}
);
layerId = "A0D976AB-773B-4D3A-9F7E-7A0C42AF1E7B";
paths = (
{
closed = 1;
nodes = (
"635 0 LINE",
"635 173 LINE",
"306 173 LINE",
"630 542 LINE",
"630 687 LINE",
"46 687 LINE",
"46 514 LINE",
"364 514 LINE",
"38 145 LINE",
"39 0 LINE"
);
}
);
width = 674;
},
{
anchors = (
{
name = top;
position = "{328, 687}";
}
);
layerId = "3B040282-CF47-4846-BCAF-7BFF90FB63BC";
paths = (
{
closed = 1;
nodes = (
"580 0 LINE",
"580 36 LINE",
"119 36 LINE",
"576 657 LINE",
"576 687 LINE",
"82 687 LINE",
"82 651 LINE",
"532 651 LINE",
"75 30 LINE",
"75 0 LINE"
);
}
);
width = 656;
},
{
associatedMasterId = "A0D976AB-773B-4D3A-9F7E-7A0C42AF1E7B";
layerId = "BB07BCCA-CC2E-4D43-AC21-11E7EC97300F";
name = bubble;
paths = (
{
closed = 1;
nodes = (
"674 687 LINE",
"674 0 LINE",
"0 0 LINE",
"0 687 LINE"
);
}
);
width = 674;
},
{
associatedMasterId = "35616FF6-3D9C-499B-B113-AC9E0DB5842A";
layerId = "42576670-47F8-4512-A952-AC25A07A99A6";
name = bubble;
paths = (
{
closed = 1;
nodes = (
"629 0 LINE",
"629 687 LINE",
"4 687 LINE",
"4 0 LINE"
);
}
);
width = 631;
},
{
anchors = (
{
name = top;
position = "{328, 687}";
}
);
associatedMasterId = "3B040282-CF47-4846-BCAF-7BFF90FB63BC";
layerId = "1207F36D-9839-4833-84D7-14E781753C7D";
name = bubble;
paths = (
{
closed = 1;
nodes = (
"656 0 LINE",
"656 687 LINE",
"0 687 LINE",
"0 0 LINE"
);
}
);
width = 656;
}
);
leftKerningGroup = Z;
rightKerningGroup = Z;
unicode = 005A;
},
{
color = 1;
glyphname = a;
lastChange = "2019-05-05 05:48:16 +0000";
layers = (
{
anchors = (
{
name = bottom;
position = "{479, 0}";
},
{
name = top;
position = "{269, 517}";
}
);
layerId = "35616FF6-3D9C-499B-B113-AC9E0DB5842A";
paths = (
{
closed = 1;
nodes = (
"479 0 LINE",
"479 315 LINE SMOOTH",
"479 440 OFFCURVE",
"410 529 OFFCURVE",
"269 529 CURVE SMOOTH",
"219 529 OFFCURVE",
"157 516 OFFCURVE",
"83 479 CURVE",
"113 418 LINE",
"160 442 OFFCURVE",
"212 465 OFFCURVE",
"264 465 CURVE SMOOTH",
"376 465 OFFCURVE",
"404 385 OFFCURVE",
"404 315 CURVE SMOOTH",
"404 0 LINE"
);
},
{
closed = 1;
nodes = (
"304 -12 OFFCURVE",
"400 35 OFFCURVE",
"421 123 CURVE",
"404 162 LINE",
"384 89 OFFCURVE",
"303 54 OFFCURVE",
"235 54 CURVE SMOOTH",
"162 54 OFFCURVE",
"106 92 OFFCURVE",
"106 156 CURVE SMOOTH",
"106 218 OFFCURVE",
"171 262 OFFCURVE",
"248 262 CURVE SMOOTH",
"318 262 OFFCURVE",
"382 250 OFFCURVE",
"437 230 CURVE",
"437 284 LINE",
"376 308 OFFCURVE",
"304 325 OFFCURVE",
"236 325 CURVE SMOOTH",
"125 325 OFFCURVE",
"33 256 OFFCURVE",
"33 153 CURVE SMOOTH",
"33 51 OFFCURVE",
"113 -12 OFFCURVE",
"222 -12 CURVE SMOOTH"
);
}
);
width = 529;
},
{
anchors = (
{
name = bottom;
position = "{530, 0}";
},
{
name = top;
position = "{291, 517}";
}
);
layerId = "A0D976AB-773B-4D3A-9F7E-7A0C42AF1E7B";
paths = (
{
closed = 1;
nodes = (
"530 0 LINE",
"530 305 LINE SMOOTH",
"530 446 OFFCURVE",
"422 529 OFFCURVE",
"291 529 CURVE SMOOTH",
"204 529 OFFCURVE",
"127 504 OFFCURVE",
"55 468 CURVE",
"116 347 LINE",
"154 366 OFFCURVE",
"194 376 OFFCURVE",
"239 376 CURVE SMOOTH",
"306 376 OFFCURVE",
"345 350 OFFCURVE",
"345 305 CURVE SMOOTH",
"345 0 LINE"
);
},
{
closed = 1;
nodes = (
"292 -12 OFFCURVE",
"371 34 OFFCURVE",
"391 113 CURVE",
"345 163 LINE",
"341 133 OFFCURVE",
"306 112 OFFCURVE",
"259 112 CURVE SMOOTH",
"224 112 OFFCURVE",
"198 131 OFFCURVE",
"198 158 CURVE SMOOTH",
"198 187 OFFCURVE",
"226 208 OFFCURVE",
"263 208 CURVE SMOOTH",
"293 208 OFFCURVE",
"323 201 OFFCURVE",
"346 188 CURVE",
"397 274 LINE",
"346 308 OFFCURVE",
"286 325 OFFCURVE",
"236 325 CURVE SMOOTH",
"111 325 OFFCURVE",
"15 254 OFFCURVE",
"15 153 CURVE SMOOTH",
"15 56 OFFCURVE",
"101 -12 OFFCURVE",
"212 -12 CURVE SMOOTH"
);
}
);
width = 572;
},
{
anchors = (
{
name = bottom;
position = "{475, 0}";
},
{
name = top;
position = "{276, 517}";
}
);
layerId = "3B040282-CF47-4846-BCAF-7BFF90FB63BC";
paths = (
{
closed = 1;
nodes = (
"475 0 LINE",
"475 315 LINE SMOOTH",
"475 440 OFFCURVE",
"400 529 OFFCURVE",
"276 529 CURVE SMOOTH",
"222 529 OFFCURVE",
"155 512 OFFCURVE",
"98 479 CURVE",
"113 448 LINE",
"161 477 OFFCURVE",
"219 493 OFFCURVE",
"271 493 CURVE SMOOTH",
"394 493 OFFCURVE",
"439 402 OFFCURVE",
"439 315 CURVE SMOOTH",
"439 0 LINE"
);
},
{
closed = 1;
nodes = (
"323 -12 OFFCURVE",
"435 36 OFFCURVE",
"456 123 CURVE",
"439 162 LINE",
"419 69 OFFCURVE",
"317 24 OFFCURVE",
"238 24 CURVE SMOOTH",
"152 24 OFFCURVE",
"84 78 OFFCURVE",
"84 155 CURVE SMOOTH",
"84 233 OFFCURVE",
"155 289 OFFCURVE",
"260 289 CURVE SMOOTH",
"325 289 OFFCURVE",
"397 268 OFFCURVE",
"452 248 CURVE",
"452 284 LINE",
"391 308 OFFCURVE",
"317 325 OFFCURVE",
"256 325 CURVE SMOOTH",
"131 325 OFFCURVE",
"48 254 OFFCURVE",
"48 154 CURVE SMOOTH",
"48 56 OFFCURVE",
"127 -12 OFFCURVE",
"234 -12 CURVE SMOOTH"
);
}
);
width = 537;
}
);
leftKerningGroup = a;
rightKerningGroup = a;
unicode = 0061;
},
{
color = 1;
glyphname = ae;
lastChange = "2019-05-05 05:48:15 +0000";
layers = (
{
anchors = (
{
name = bottom;
position = "{693, -12}";
},
{
name = top;
position = "{693, 517}";
}
);
layerId = "3B040282-CF47-4846-BCAF-7BFF90FB63BC";
paths = (
{
closed = 1;
nodes = (
"353 -12 OFFCURVE",
"436 49 OFFCURVE",
"465 143 CURVE",
"506 52 OFFCURVE",
"594 -12 OFFCURVE",
"693 -12 CURVE SMOOTH",
"776 -12 OFFCURVE",
"866 21 OFFCURVE",
"909 68 CURVE",
"884 95 LINE",
"841 48 OFFCURVE",
"767 24 OFFCURVE",
"693 24 CURVE SMOOTH",
"575 24 OFFCURVE",
"475 132 OFFCURVE",
"475 260 CURVE SMOOTH",
"475 390 OFFCURVE",
"571 493 OFFCURVE",
"693 493 CURVE SMOOTH",
"819 493 OFFCURVE",
"902 401 OFFCURVE",
"903 265 CURVE",
"919 278 LINE",
"460 278 LINE",
"460 242 LINE",
"939 242 LINE",
"939 414 OFFCURVE",
"841 529 OFFCURVE",
"693 529 CURVE SMOOTH",
"593 529 OFFCURVE",
"508 471 OFFCURVE",
"467 384 CURVE",
"444 471 OFFCURVE",
"376 529 OFFCURVE",
"276 529 CURVE SMOOTH",
"222 529 OFFCURVE",
"155 512 OFFCURVE",
"98 479 CURVE",
"113 448 LINE",
"161 477 OFFCURVE",
"219 493 OFFCURVE",
"271 493 CURVE SMOOTH",
"394 493 OFFCURVE",
"439 402 OFFCURVE",
"439 315 CURVE SMOOTH",
"439 289 LINE",
"381 310 OFFCURVE",
"313 325 OFFCURVE",
"256 325 CURVE SMOOTH",
"131 325 OFFCURVE",
"48 254 OFFCURVE",
"48 154 CURVE SMOOTH",
"48 57 OFFCURVE",
"129 -12 OFFCURVE",
"244 -12 CURVE SMOOTH"
);
},
{
closed = 1;
nodes = (
"153 24 OFFCURVE",
"85 78 OFFCURVE",
"85 155 CURVE SMOOTH",
"85 233 OFFCURVE",
"156 289 OFFCURVE",
"261 289 CURVE SMOOTH",
"321 289 OFFCURVE",
"387 271 OFFCURVE",
"440 253 CURVE",
"440 162 LINE",
"420 69 OFFCURVE",
"318 24 OFFCURVE",
"239 24 CURVE SMOOTH"
);
}
);
width = 986;
},
{
anchors = (
{
name = bottom;
position = "{636, -12}";
},
{
name = top;
position = "{659, 517}";
}
);
layerId = "35616FF6-3D9C-499B-B113-AC9E0DB5842A";
paths = (
{
closed = 1;
nodes = (
"324 -12 OFFCURVE",
"406 37 OFFCURVE",
"449 107 CURVE",
"497 33 OFFCURVE",
"579 -12 OFFCURVE",
"666 -12 CURVE SMOOTH",
"738 -12 OFFCURVE",
"829 19 OFFCURVE",
"874 68 CURVE",
"828 117 LINE",
"796 82 OFFCURVE",
"726 55 OFFCURVE",
"665 55 CURVE SMOOTH",
"553 55 OFFCURVE",
"479 144 OFFCURVE",
"479 260 CURVE SMOOTH",
"479 380 OFFCURVE",
"559 462 OFFCURVE",
"662 462 CURVE SMOOTH",
"774 462 OFFCURVE",
"829 377 OFFCURVE",
"832 273 CURVE",
"864 297 LINE",
"455 297 LINE",
"455 230 LINE",
"904 230 LINE",
"904 411 OFFCURVE",
"815 529 OFFCURVE",
"659 529 CURVE SMOOTH",
"577 529 OFFCURVE",
"503 489 OFFCURVE",
"456 425 CURVE",
"426 489 OFFCURVE",
"364 529 OFFCURVE",
"269 529 CURVE SMOOTH",
"219 529 OFFCURVE",
"157 516 OFFCURVE",
"83 479 CURVE",
"113 418 LINE",
"160 442 OFFCURVE",
"212 465 OFFCURVE",
"264 465 CURVE SMOOTH",
"376 465 OFFCURVE",
"404 385 OFFCURVE",
"404 315 CURVE SMOOTH",
"404 296 LINE",
"351 313 OFFCURVE",
"292 325 OFFCURVE",
"236 325 CURVE SMOOTH",
"125 325 OFFCURVE",
"33 256 OFFCURVE",
"33 153 CURVE SMOOTH",
"33 49 OFFCURVE",
"107 -12 OFFCURVE",
"232 -12 CURVE SMOOTH"
);
},
{
closed = 1;
nodes = (
"162 54 OFFCURVE",
"106 92 OFFCURVE",
"106 156 CURVE SMOOTH",
"106 218 OFFCURVE",
"171 262 OFFCURVE",
"248 262 CURVE SMOOTH",
"304 262 OFFCURVE",
"357 254 OFFCURVE",
"404 241 CURVE",
"404 162 LINE",
"384 89 OFFCURVE",
"303 54 OFFCURVE",
"235 54 CURVE SMOOTH"
);
}
);
width = 936;
},
{
anchors = (
{
name = bottom;
position = "{632, -12}";
},
{
name = top;
position = "{624, 517}";
}
);
layerId = "A0D976AB-773B-4D3A-9F7E-7A0C42AF1E7B";
paths = (
{
closed = 1;
nodes = (
"329 -12 OFFCURVE",
"395 12 OFFCURVE",
"435 57 CURVE",
"485 13 OFFCURVE",
"554 -12 OFFCURVE",
"632 -12 CURVE SMOOTH",
"711 -12 OFFCURVE",
"799 21 OFFCURVE",
"845 68 CURVE",
"739 175 LINE",
"705 148 OFFCURVE",
"663 132 OFFCURVE",
"624 132 CURVE SMOOTH",
"561 132 OFFCURVE",
"521 185 OFFCURVE",
"521 259 CURVE SMOOTH",
"521 333 OFFCURVE",
"561 385 OFFCURVE",
"624 385 CURVE SMOOTH",
"686 385 OFFCURVE",
"721 325 OFFCURVE",
"712 246 CURVE",
"791 314 LINE",
"405 314 LINE",
"405 213 LINE",
"893 213 LINE",
"893 412 OFFCURVE",
"790 529 OFFCURVE",
"624 529 CURVE SMOOTH",
"550 529 OFFCURVE",
"485 505 OFFCURVE",
"436 464 CURVE",
"399 505 OFFCURVE",
"341 529 OFFCURVE",
"272 529 CURVE SMOOTH",
"185 529 OFFCURVE",
"128 504 OFFCURVE",
"56 468 CURVE",
"117 347 LINE",
"155 366 OFFCURVE",
"195 376 OFFCURVE",
"240 376 CURVE SMOOTH",
"307 376 OFFCURVE",
"346 350 OFFCURVE",
"346 305 CURVE SMOOTH",
"346 302 LINE",
"309 317 OFFCURVE",
"271 325 OFFCURVE",
"237 325 CURVE SMOOTH",
"112 325 OFFCURVE",
"14 254 OFFCURVE",
"14 153 CURVE SMOOTH",
"14 56 OFFCURVE",
"109 -12 OFFCURVE",
"243 -12 CURVE SMOOTH"
);
},
{
closed = 1;
nodes = (
"223 112 OFFCURVE",
"197 131 OFFCURVE",
"197 158 CURVE SMOOTH",
"197 187 OFFCURVE",
"225 208 OFFCURVE",
"262 208 CURVE SMOOTH",
"292 208 OFFCURVE",
"321 201 OFFCURVE",
"344 189 CURVE",
"344 163 LINE",
"340 133 OFFCURVE",
"305 112 OFFCURVE",
"258 112 CURVE SMOOTH"
);
}
);
width = 907;
}
);
leftKerningGroup = a;
rightKerningGroup = e;
unicode = 00E6;
},
{
color = 1;
glyphname = b;
lastChange = "2019-05-05 09:35:33 +0000";
layers = (
{
layerId = "35616FF6-3D9C-499B-B113-AC9E0DB5842A";
paths = (
{
closed = 1;
nodes = (
"458 -12 OFFCURVE",
"560 100 OFFCURVE",
"560 259 CURVE SMOOTH",
"560 417 OFFCURVE",
"458 529 OFFCURVE",
"322 529 CURVE SMOOTH",
"185 529 OFFCURVE",
"95 417 OFFCURVE",
"95 259 CURVE SMOOTH",
"95 100 OFFCURVE",
"185 -12 OFFCURVE",
"322 -12 CURVE SMOOTH"
);
},
{
closed = 1;
nodes = (
"206 55 OFFCURVE",
"134 140 OFFCURVE",
"134 259 CURVE SMOOTH",
"134 378 OFFCURVE",
"206 462 OFFCURVE",
"308 462 CURVE SMOOTH",
"409 462 OFFCURVE",
"481 378 OFFCURVE",
"481 259 CURVE SMOOTH",
"481 140 OFFCURVE",
"409 55 OFFCURVE",
"308 55 CURVE SMOOTH"
);
},
{
closed = 1;
nodes = (
"134 0 LINE",
"134 699 LINE",
"59 699 LINE",
"59 0 LINE"
);
}
);
width = 596;
},
{
layerId = "A0D976AB-773B-4D3A-9F7E-7A0C42AF1E7B";
paths = (
{
closed = 1;
nodes = (
"561 -12 OFFCURVE",
"659 100 OFFCURVE",
"659 259 CURVE SMOOTH",
"659 417 OFFCURVE",
"561 529 OFFCURVE",
"422 529 CURVE SMOOTH",
"286 529 OFFCURVE",
"189 417 OFFCURVE",
"189 259 CURVE SMOOTH",
"189 100 OFFCURVE",
"286 -12 OFFCURVE",
"422 -12 CURVE SMOOTH"
);
},
{
closed = 1;
nodes = (
"300 148 OFFCURVE",
"257 194 OFFCURVE",
"257 259 CURVE SMOOTH",
"257 323 OFFCURVE",
"300 369 OFFCURVE",
"361 369 CURVE SMOOTH",
"428 369 OFFCURVE",
"475 323 OFFCURVE",
"475 259 CURVE SMOOTH",
"475 194 OFFCURVE",
"428 148 OFFCURVE",
"361 148 CURVE SMOOTH"
);
},
{
closed = 1;
nodes = (
"257 0 LINE",
"257 699 LINE",
"64 699 LINE",
"64 0 LINE"
);
}
);
width = 682;
},
{
layerId = "3B040282-CF47-4846-BCAF-7BFF90FB63BC";
paths = (
{
closed = 1;
nodes = (
"434 -12 OFFCURVE",
"540 112 OFFCURVE",
"540 259 CURVE SMOOTH",
"540 406 OFFCURVE",
"434 529 OFFCURVE",
"308 529 CURVE SMOOTH",
"167 529 OFFCURVE",
"68 417 OFFCURVE",
"68 259 CURVE SMOOTH",
"68 100 OFFCURVE",
"167 -12 OFFCURVE",
"308 -12 CURVE SMOOTH"
);
},
{
closed = 1;
nodes = (
"186 24 OFFCURVE",
"104 121 OFFCURVE",
"104 259 CURVE SMOOTH",
"104 396 OFFCURVE",
"186 493 OFFCURVE",
"301 493 CURVE SMOOTH",
"411 493 OFFCURVE",
"504 386 OFFCURVE",
"504 259 CURVE SMOOTH",
"504 131 OFFCURVE",
"411 24 OFFCURVE",
"301 24 CURVE SMOOTH"
);
},
{
closed = 1;
nodes = (
"104 0 LINE",
"104 699 LINE",
"68 699 LINE",
"68 0 LINE"
);
}
);
width = 590;
},
{
associatedMasterId = "A0D976AB-773B-4D3A-9F7E-7A0C42AF1E7B";
layerId = "9EBE3EC9-1EC0-4DF6-A70A-0E1CD44B7C74";
name = bubble;
paths = (
{
closed = 1;
nodes = (
"574 -34 OFFCURVE",
"682 88 OFFCURVE",
"682 259 CURVE SMOOTH",
"682 430 OFFCURVE",
"574 551 OFFCURVE",
"422 551 CURVE SMOOTH",
"382 551 OFFCURVE",
"346 542 OFFCURVE",
"313 526 CURVE",
"313 699 LINE",
"0 699 LINE",
"0 0 LINE",
"296 0 LINE",
"333 -22 OFFCURVE",
"375 -34 OFFCURVE",
"422 -34 CURVE SMOOTH"
);
}
);
width = 682;
},
{
associatedMasterId = "35616FF6-3D9C-499B-B113-AC9E0DB5842A";
layerId = "0B377D33-1E6E-4C84-BE09-9E4C5AB1ED5E";
name = bubble;
paths = (
{
closed = 1;
nodes = (
"481 -49 OFFCURVE",
"596 82 OFFCURVE",
"596 259 CURVE SMOOTH",
"596 435 OFFCURVE",
"480 566 OFFCURVE",
"322 566 CURVE SMOOTH",
"273 566 OFFCURVE",
"229 554 OFFCURVE",
"191 531 CURVE",
"191 699 LINE",
"0 699 LINE",
"0 0 LINE",
"171 0 LINE",
"213 -31 OFFCURVE",
"264 -49 OFFCURVE",
"322 -49 CURVE SMOOTH"
);
}
);
width = 596;
},
{
associatedMasterId = "3B040282-CF47-4846-BCAF-7BFF90FB63BC";
layerId = "C9C6E0BE-7054-496D-8D42-CFCEE149351F";
name = bubble;
paths = (
{
closed = 1;
nodes = (
"462 -62 OFFCURVE",
"590 85 OFFCURVE",
"590 259 CURVE SMOOTH",
"590 433 OFFCURVE",
"463 579 OFFCURVE",
"308 579 CURVE SMOOTH",
"258 579 OFFCURVE",
"212 567 OFFCURVE",
"172 545 CURVE",
"172 699 LINE",
"0 699 LINE",
"0 0 LINE",
"130 0 LINE",
"178 -39 OFFCURVE",
"239 -62 OFFCURVE",
"308 -62 CURVE SMOOTH"
);
}
);
width = 590;
}
);
leftKerningGroup = b;
rightKerningGroup = b;
unicode = 0062;
},
{
color = 1;
glyphname = c;
lastChange = "2019-05-05 05:48:15 +0000";
layers = (
{
anchors = (
{
name = bottom;
position = "{293, 0}";
},
{
name = top;
position = "{283, 517}";
}
);
layerId = "35616FF6-3D9C-499B-B113-AC9E0DB5842A";
paths = (
{
closed = 1;
nodes = (
"375 -12 OFFCURVE",
"441 18 OFFCURVE",
"490 67 CURVE",
"438 118 LINE",
"403 79 OFFCURVE",
"355 55 OFFCURVE",
"303 55 CURVE SMOOTH",
"200 55 OFFCURVE",
"114 148 OFFCURVE",
"114 259 CURVE SMOOTH",
"114 369 OFFCURVE",
"200 462 OFFCURVE",
"303 462 CURVE SMOOTH",
"354 462 OFFCURVE",
"401 439 OFFCURVE",
"435 402 CURVE",
"487 453 LINE",
"438 500 OFFCURVE",
"373 529 OFFCURVE",
"303 529 CURVE SMOOTH",
"158 529 OFFCURVE",
"35 406 OFFCURVE",
"35 259 CURVE SMOOTH",
"35 112 OFFCURVE",
"158 -12 OFFCURVE",
"303 -12 CURVE SMOOTH"
);
}
);
width = 519;
},
{
anchors = (
{
name = bottom;
position = "{299, 0}";
},
{
name = top;
position = "{289, 517}";
}
);
layerId = "A0D976AB-773B-4D3A-9F7E-7A0C42AF1E7B";
paths = (
{
closed = 1;
nodes = (
"404 -12 OFFCURVE",
"477 27 OFFCURVE",
"529 87 CURVE",
"402 189 LINE",
"381 165 OFFCURVE",
"343 148 OFFCURVE",
"310 148 CURVE SMOOTH",
"251 148 OFFCURVE",
"202 199 OFFCURVE",
"202 260 CURVE SMOOTH",
"202 319 OFFCURVE",
"251 369 OFFCURVE",
"309 369 CURVE SMOOTH",
"342 369 OFFCURVE",
"379 352 OFFCURVE",
"399 329 CURVE",
"526 433 LINE",
"476 491 OFFCURVE",
"403 529 OFFCURVE",
"311 529 CURVE SMOOTH",
"152 529 OFFCURVE",
"18 406 OFFCURVE",
"18 259 CURVE SMOOTH",
"18 112 OFFCURVE",
"151 -12 OFFCURVE",
"308 -12 CURVE SMOOTH"
);
}
);
width = 537;
},
{
anchors = (
{
name = bottom;
position = "{301, 0}";
},
{
name = top;
position = "{291, 517}";
}
);
layerId = "3B040282-CF47-4846-BCAF-7BFF90FB63BC";
paths = (
{
closed = 1;
nodes = (
"377 -12 OFFCURVE",
"440 17 OFFCURVE",
"486 64 CURVE",
"461 89 LINE",
"421 49 OFFCURVE",
"367 24 OFFCURVE",
"309 24 CURVE SMOOTH",
"179 24 OFFCURVE",
"87 121 OFFCURVE",
"87 259 CURVE SMOOTH",
"87 396 OFFCURVE",
"179 493 OFFCURVE",
"309 493 CURVE SMOOTH",
"367 493 OFFCURVE",
"421 468 OFFCURVE",
"460 428 CURVE",
"486 453 LINE",
"440 500 OFFCURVE",
"377 529 OFFCURVE",
"309 529 CURVE SMOOTH",
"158 529 OFFCURVE",
"51 417 OFFCURVE",
"51 259 CURVE SMOOTH",
"51 100 OFFCURVE",
"158 -12 OFFCURVE",
"309 -12 CURVE SMOOTH"
);
}
);
width = 531;
}
);
leftKerningGroup = c;
rightKerningGroup = c;
unicode = 0063;
},
{
color = 1;
glyphname = d;
lastChange = "2019-05-05 09:35:26 +0000";
layers = (
{
layerId = "35616FF6-3D9C-499B-B113-AC9E0DB5842A";
paths = (
{
closed = 1;
nodes = (
"412 -12 OFFCURVE",
"502 100 OFFCURVE",
"502 259 CURVE SMOOTH",
"502 417 OFFCURVE",
"412 529 OFFCURVE",
"275 529 CURVE SMOOTH",
"139 529 OFFCURVE",
"37 417 OFFCURVE",
"37 259 CURVE SMOOTH",
"37 100 OFFCURVE",
"139 -12 OFFCURVE",
"275 -12 CURVE SMOOTH"
);
},
{
closed = 1;
nodes = (
"188 55 OFFCURVE",
"116 140 OFFCURVE",
"116 259 CURVE SMOOTH",
"116 378 OFFCURVE",
"188 462 OFFCURVE",
"289 462 CURVE SMOOTH",
"391 462 OFFCURVE",
"463 378 OFFCURVE",
"463 259 CURVE SMOOTH",
"463 140 OFFCURVE",
"391 55 OFFCURVE",
"289 55 CURVE SMOOTH"
);
},
{
closed = 1;
nodes = (
"538 0 LINE",
"538 699 LINE",
"463 699 LINE",
"463 0 LINE"
);
}
);
width = 597;
},
{
layerId = "A0D976AB-773B-4D3A-9F7E-7A0C42AF1E7B";
paths = (
{
closed = 1;
nodes = (
"396 -12 OFFCURVE",
"493 100 OFFCURVE",
"493 259 CURVE SMOOTH",
"493 417 OFFCURVE",
"396 529 OFFCURVE",
"260 529 CURVE SMOOTH",
"121 529 OFFCURVE",
"23 417 OFFCURVE",
"23 259 CURVE SMOOTH",
"23 100 OFFCURVE",
"121 -12 OFFCURVE",
"260 -12 CURVE SMOOTH"
);
},
{
closed = 1;
nodes = (
"254 148 OFFCURVE",
"207 194 OFFCURVE",
"207 259 CURVE SMOOTH",
"207 323 OFFCURVE",
"254 369 OFFCURVE",
"321 369 CURVE SMOOTH",
"382 369 OFFCURVE",
"425 323 OFFCURVE",
"425 259 CURVE SMOOTH",
"425 194 OFFCURVE",
"382 148 OFFCURVE",
"321 148 CURVE SMOOTH"
);
},
{
closed = 1;
nodes = (
"618 0 LINE",
"618 699 LINE",
"425 699 LINE",
"425 0 LINE"
);
}
);
width = 682;
},
{
layerId = "3B040282-CF47-4846-BCAF-7BFF90FB63BC";
paths = (
{
closed = 1;
nodes = (
"423 -12 OFFCURVE",
"522 100 OFFCURVE",
"522 259 CURVE SMOOTH",
"522 417 OFFCURVE",
"423 529 OFFCURVE",
"282 529 CURVE SMOOTH",
"156 529 OFFCURVE",
"50 406 OFFCURVE",
"50 259 CURVE SMOOTH",
"50 112 OFFCURVE",
"156 -12 OFFCURVE",
"282 -12 CURVE SMOOTH"
);
},
{
closed = 1;
nodes = (
"179 24 OFFCURVE",
"86 131 OFFCURVE",
"86 259 CURVE SMOOTH",
"86 386 OFFCURVE",
"179 493 OFFCURVE",
"289 493 CURVE SMOOTH",
"404 493 OFFCURVE",
"486 396 OFFCURVE",
"486 259 CURVE SMOOTH",
"486 121 OFFCURVE",
"404 24 OFFCURVE",
"289 24 CURVE SMOOTH"
);
},
{
closed = 1;
nodes = (
"522 0 LINE",
"522 699 LINE",
"486 699 LINE",
"486 0 LINE"
);
}
);
width = 590;
},
{
associatedMasterId = "A0D976AB-773B-4D3A-9F7E-7A0C42AF1E7B";
layerId = "7CD1A293-D0FB-48D9-918C-96556EF4AC30";
name = bubble;
paths = (
{
closed = 1;
nodes = (
"307 -34 OFFCURVE",
"349 -22 OFFCURVE",
"386 0 CURVE",
"682 0 LINE",
"682 699 LINE",
"369 699 LINE",
"369 526 LINE",
"336 542 OFFCURVE",
"300 551 OFFCURVE",
"260 551 CURVE SMOOTH",
"108 551 OFFCURVE",
"0 430 OFFCURVE",
"0 259 CURVE SMOOTH",
"0 88 OFFCURVE",
"108 -34 OFFCURVE",
"260 -34 CURVE SMOOTH"
);
}
);
width = 682;
},
{
associatedMasterId = "35616FF6-3D9C-499B-B113-AC9E0DB5842A";
layerId = "09EC13D7-D667-4A65-92C3-7D94D9F66F6E";
name = bubble;
paths = (
{
closed = 1;
nodes = (
"333 -49 OFFCURVE",
"384 -31 OFFCURVE",
"426 0 CURVE",
"597 0 LINE",
"597 699 LINE",
"406 699 LINE",
"406 531 LINE",
"368 554 OFFCURVE",
"324 566 OFFCURVE",
"275 566 CURVE SMOOTH",
"117 566 OFFCURVE",
"0 435 OFFCURVE",
"0 259 CURVE SMOOTH",
"0 82 OFFCURVE",
"116 -49 OFFCURVE",
"275 -49 CURVE SMOOTH"
);
}
);
width = 597;
},
{
associatedMasterId = "3B040282-CF47-4846-BCAF-7BFF90FB63BC";
layerId = "FF22B56B-771E-4B73-AC5A-4841315E4EC4";
name = bubble;
paths = (
{
closed = 1;
nodes = (
"351 -62 OFFCURVE",
"412 -39 OFFCURVE",
"460 0 CURVE",
"590 0 LINE",
"590 699 LINE",
"418 699 LINE",
"418 545 LINE",
"378 567 OFFCURVE",
"332 579 OFFCURVE",
"282 579 CURVE SMOOTH",
"127 579 OFFCURVE",
"0 433 OFFCURVE",
"0 259 CURVE SMOOTH",
"0 85 OFFCURVE",
"128 -62 OFFCURVE",
"282 -62 CURVE SMOOTH"
);
}
);
width = 590;
}
);
leftKerningGroup = d;
rightKerningGroup = d;
unicode = 0064;
},
{
color = 1;
glyphname = eth;
lastChange = "2019-05-05 05:48:16 +0000";
layers = (
{
layerId = "3B040282-CF47-4846-BCAF-7BFF90FB63BC";
paths = (
{
closed = 1;
nodes = (
"174 24 OFFCURVE",
"87 116 OFFCURVE",
"87 245 CURVE SMOOTH",
"87 375 OFFCURVE",
"174 467 OFFCURVE",
"297 467 CURVE SMOOTH",
"423 467 OFFCURVE",
"506 377 OFFCURVE",
"506 249 CURVE SMOOTH",
"506 117 OFFCURVE",
"419 24 OFFCURVE",
"296 24 CURVE SMOOTH"
);
},
{
closed = 1;
nodes = (
"417 524 OFFCURVE",
"475 414 CURVE",
"427 479 OFFCURVE",
"362 503 OFFCURVE",
"297 503 CURVE SMOOTH",
"153 503 OFFCURVE",
"51 397 OFFCURVE",
"51 246 CURVE SMOOTH",
"51 95 OFFCURVE",
"153 -12 OFFCURVE",
"297 -12 CURVE SMOOTH",
"441 -12 OFFCURVE",
"542 99 OFFCURVE",
"542 255 CURVE SMOOTH",
"542 440 OFFCURVE",
"390 613 OFFCURVE",
"221 713 CURVE",
"188 696 LINE",
"307 622 OFFCURVE"
);
},
{
closed = 1;
nodes = (
"431 652 LINE",
"416 685 LINE",
"176 578 LINE",
"191 545 LINE"
);
}
);
width = 593;
},
{
layerId = "35616FF6-3D9C-499B-B113-AC9E0DB5842A";
paths = (
{
closed = 1;
nodes = (
"187 56 OFFCURVE",
"114 135 OFFCURVE",
"114 247 CURVE SMOOTH",
"114 355 OFFCURVE",
"186 432 OFFCURVE",
"288 432 CURVE SMOOTH",
"396 432 OFFCURVE",
"464 348 OFFCURVE",
"464 245 CURVE SMOOTH",
"464 134 OFFCURVE",
"392 56 OFFCURVE",
"291 56 CURVE SMOOTH"
);
},
{
closed = 1;
nodes = (
"383 519 OFFCURVE",
"436 417 CURVE",
"393 468 OFFCURVE",
"339 498 OFFCURVE",
"269 498 CURVE SMOOTH",
"133 498 OFFCURVE",
"36 394 OFFCURVE",
"36 248 CURVE SMOOTH",
"36 96 OFFCURVE",
"142 -12 OFFCURVE",
"291 -12 CURVE SMOOTH",
"439 -12 OFFCURVE",
"543 104 OFFCURVE",
"543 269 CURVE SMOOTH",
"543 441 OFFCURVE",
"437 562 OFFCURVE",
"238 716 CURVE",
"162 685 LINE",
"275 609 OFFCURVE"
);
},
{
closed = 1;
nodes = (
"437 640 LINE",
"410 702 LINE",
"152 587 LINE",
"179 525 LINE"
);
}
);
width = 580;
},
{
layerId = "A0D976AB-773B-4D3A-9F7E-7A0C42AF1E7B";
paths = (
{
closed = 1;
nodes = (
"246 149 OFFCURVE",
"204 188 OFFCURVE",
"204 244 CURVE SMOOTH",
"204 299 OFFCURVE",
"245 338 OFFCURVE",
"304 338 CURVE SMOOTH",
"365 338 OFFCURVE",
"405 297 OFFCURVE",
"405 243 CURVE SMOOTH",
"405 188 OFFCURVE",
"364 149 OFFCURVE",
"305 149 CURVE SMOOTH"
);
},
{
closed = 1;
nodes = (
"340 513 OFFCURVE",
"383 425 CURVE",
"347 466 OFFCURVE",
"303 492 OFFCURVE",
"240 492 CURVE SMOOTH",
"111 492 OFFCURVE",
"20 392 OFFCURVE",
"20 251 CURVE SMOOTH",
"20 97 OFFCURVE",
"138 -12 OFFCURVE",
"304 -12 CURVE SMOOTH",
"471 -12 OFFCURVE",
"589 112 OFFCURVE",
"589 288 CURVE SMOOTH",
"589 460 OFFCURVE",
"492 573 OFFCURVE",
"286 732 CURVE",
"118 660 LINE",
"237 584 OFFCURVE"
);
},
{
closed = 1;
nodes = (
"464 638 LINE",
"425 726 LINE",
"140 599 LINE",
"179 511 LINE"
);
}
);
width = 614;
}
);
leftKerningGroup = d;
rightKerningGroup = eth;
unicode = 00F0;
},
{
color = 1;
glyphname = dcroat;
lastChange = "2019-05-05 08:56:13 +0000";
layers = (
{
components = (
{
name = d;
}
);
layerId = "3B040282-CF47-4846-BCAF-7BFF90FB63BC";
paths = (
{
closed = 1;
nodes = (
"590 592 LINE",
"590 628 LINE",
"300 628 LINE",
"300 592 LINE"
);
}
);
width = 590;
},
{
components = (
{
name = d;
}
);
layerId = "35616FF6-3D9C-499B-B113-AC9E0DB5842A";
paths = (
{
closed = 1;
nodes = (
"620 585 LINE",
"620 635 LINE",
"310 635 LINE",
"310 585 LINE"
);
}
);
width = 597;
},
{
components = (
{
name = d;
}
);
layerId = "A0D976AB-773B-4D3A-9F7E-7A0C42AF1E7B";
paths = (
{
closed = 1;
nodes = (
"680 565 LINE",
"680 655 LINE",
"290 655 LINE",
"290 565 LINE"
);
}
);
width = 695;
}
);
leftKerningGroup = d;
rightKerningGroup = dcroat;
unicode = 0111;
},
{
color = 1;
glyphname = e;
lastChange = "2019-05-05 05:38:09 +0000";
layers = (
{
anchors = (
{
name = bottom;
position = "{268, -12}";
},
{
name = top;
position = "{291, 517}";
}
);
layerId = "35616FF6-3D9C-499B-B113-AC9E0DB5842A";
paths = (
{
closed = 1;
nodes = (
"370 -12 OFFCURVE",
"461 19 OFFCURVE",
"506 68 CURVE",
"460 117 LINE",
"428 82 OFFCURVE",
"358 55 OFFCURVE",
"297 55 CURVE SMOOTH",
"185 55 OFFCURVE",
"111 144 OFFCURVE",
"111 260 CURVE SMOOTH",
"111 380 OFFCURVE",
"191 462 OFFCURVE",
"294 462 CURVE SMOOTH",
"407 462 OFFCURVE",
"463 374 OFFCURVE",
"463 268 CURVE",
"506 297 LINE",
"87 297 LINE",
"87 230 LINE",
"536 230 LINE",
"536 411 OFFCURVE",
"447 529 OFFCURVE",
"291 529 CURVE SMOOTH",
"152 529 OFFCURVE",
"36 414 OFFCURVE",
"36 260 CURVE SMOOTH",
"36 101 OFFCURVE",
"160 -12 OFFCURVE",
"298 -12 CURVE SMOOTH"
);
}
);
width = 568;
},
{
anchors = (
{
name = bottom;
position = "{306, -12}";
},
{
name = top;
position = "{298, 517}";
}
);
layerId = "A0D976AB-773B-4D3A-9F7E-7A0C42AF1E7B";
paths = (
{
closed = 1;
nodes = (
"385 -12 OFFCURVE",
"473 21 OFFCURVE",
"519 68 CURVE",
"413 175 LINE",
"379 148 OFFCURVE",
"337 132 OFFCURVE",
"298 132 CURVE SMOOTH",
"235 132 OFFCURVE",
"195 185 OFFCURVE",
"195 259 CURVE SMOOTH",
"195 333 OFFCURVE",
"235 385 OFFCURVE",
"298 385 CURVE SMOOTH",
"354 385 OFFCURVE",
"389 335 OFFCURVE",
"389 265 CURVE",
"436 314 LINE",
"79 314 LINE",
"79 213 LINE",
"567 213 LINE",
"567 412 OFFCURVE",
"464 529 OFFCURVE",
"298 529 CURVE SMOOTH",
"138 529 OFFCURVE",
"20 418 OFFCURVE",
"20 260 CURVE SMOOTH",
"20 101 OFFCURVE",
"141 -12 OFFCURVE",
"306 -12 CURVE SMOOTH"
);
}
);
width = 581;
},
{
anchors = (
{
name = bottom;
position = "{304, -12}";
},
{
name = top;
position = "{304, 517}";
}
);
layerId = "3B040282-CF47-4846-BCAF-7BFF90FB63BC";
paths = (
{
closed = 1;
nodes = (
"387 -12 OFFCURVE",
"477 21 OFFCURVE",
"520 68 CURVE",
"495 95 LINE",
"452 48 OFFCURVE",
"378 24 OFFCURVE",
"304 24 CURVE SMOOTH",
"186 24 OFFCURVE",
"86 132 OFFCURVE",
"86 260 CURVE SMOOTH",
"86 390 OFFCURVE",
"182 493 OFFCURVE",
"304 493 CURVE SMOOTH",
"430 493 OFFCURVE",
"514 401 OFFCURVE",
"514 264 CURVE",
"520 278 LINE",
"71 278 LINE",
"71 242 LINE",
"550 242 LINE",
"550 414 OFFCURVE",
"452 529 OFFCURVE",
"304 529 CURVE SMOOTH",
"162 529 OFFCURVE",
"50 411 OFFCURVE",
"50 260 CURVE SMOOTH",
"50 112 OFFCURVE",
"166 -12 OFFCURVE",
"304 -12 CURVE SMOOTH"
);
}
);
width = 597;
}
);
leftKerningGroup = e;
rightKerningGroup = e;
unicode = 0065;
},
{
color = 1;
glyphname = f;
lastChange = "2019-05-05 05:48:15 +0000";
layers = (
{
layerId = "35616FF6-3D9C-499B-B113-AC9E0DB5842A";
paths = (
{
closed = 1;
nodes = (
"186 0 LINE",
"186 588 LINE SMOOTH",
"186 626 OFFCURVE",
"212 653 OFFCURVE",
"242 653 CURVE SMOOTH",
"265 653 OFFCURVE",
"285 644 OFFCURVE",
"296 632 CURVE",
"333 687 LINE",
"306 708 OFFCURVE",
"272 720 OFFCURVE",
"237 720 CURVE SMOOTH",
"163 720 OFFCURVE",
"111 665 OFFCURVE",
"111 588 CURVE SMOOTH",
"111 0 LINE"
);
},
{
closed = 1;
nodes = (
"313 450 LINE",
"313 517 LINE",
"30 517 LINE",
"30 450 LINE"
);
}
);
width = 344;
},
{
layerId = "A0D976AB-773B-4D3A-9F7E-7A0C42AF1E7B";
paths = (
{
closed = 1;
nodes = (
"272 0 LINE",
"272 517 LINE SMOOTH",
"272 548 OFFCURVE",
"290 570 OFFCURVE",
"316 570 CURVE SMOOTH",
"334 570 OFFCURVE",
"353 564 OFFCURVE",
"363 555 CURVE",
"396 667 LINE",
"364 698 OFFCURVE",
"309 720 OFFCURVE",
"263 720 CURVE SMOOTH",
"160 720 OFFCURVE",
"88 648 OFFCURVE",
"88 545 CURVE SMOOTH",
"88 0 LINE"
);
},
{
closed = 1;
nodes = (
"374 365 LINE",
"374 517 LINE",
"23 517 LINE",
"23 365 LINE"
);
}
);
width = 403;
},
{
layerId = "3B040282-CF47-4846-BCAF-7BFF90FB63BC";
paths = (
{
closed = 1;
nodes = (
"172 0 LINE",
"172 588 LINE SMOOTH",
"172 644 OFFCURVE",
"202 684 OFFCURVE",
"244 684 CURVE SMOOTH",
"274 684 OFFCURVE",
"298 676 OFFCURVE",
"318 659 CURVE",
"338 687 LINE",
"310 709 OFFCURVE",
"278 720 OFFCURVE",
"242 720 CURVE SMOOTH",
"180 720 OFFCURVE",
"136 665 OFFCURVE",
"136 588 CURVE SMOOTH",
"136 0 LINE"
);
},
{
closed = 1;
nodes = (
"317 481 LINE",
"317 517 LINE",
"45 517 LINE",
"45 481 LINE"
);
}
);
width = 363;
}
);
leftKerningGroup = f;
rightKerningGroup = f;
unicode = 0066;
},
{
color = 1;
glyphname = g;
lastChange = "2019-05-05 05:48:15 +0000";
layers = (
{
anchors = (
{
name = bottom;
position = "{283, -172}";
},
{
name = top;
position = "{292, 517}";
}
);
layerId = "35616FF6-3D9C-499B-B113-AC9E0DB5842A";
paths = (
{
closed = 1;
nodes = (
"432 -172 OFFCURVE",
"537 -78 OFFCURVE",
"537 55 CURVE SMOOTH",
"537 517 LINE",
"462 517 LINE",
"462 55 LINE SMOOTH",
"462 -46 OFFCURVE",
"392 -105 OFFCURVE",
"273 -105 CURVE SMOOTH",
"209 -105 OFFCURVE",
"147 -82 OFFCURVE",
"107 -44 CURVE",
"74 -103 LINE",
"121 -143 OFFCURVE",
"199 -172 OFFCURVE",
"283 -172 CURVE SMOOTH"
);
},
{
closed = 1;
nodes = (
"367 38 OFFCURVE",
"439 87 OFFCURVE",
"477 166 CURVE",
"477 401 LINE",
"439 480 OFFCURVE",
"367 529 OFFCURVE",
"274 529 CURVE SMOOTH",
"135 529 OFFCURVE",
"36 428 OFFCURVE",
"36 284 CURVE SMOOTH",
"36 140 OFFCURVE",
"135 38 OFFCURVE",
"274 38 CURVE SMOOTH"
);
},
{
closed = 1;
nodes = (
"187 105 OFFCURVE",
"115 179 OFFCURVE",
"115 284 CURVE SMOOTH",
"115 388 OFFCURVE",
"187 462 OFFCURVE",
"288 462 CURVE SMOOTH",
"390 462 OFFCURVE",
"462 388 OFFCURVE",
"462 284 CURVE SMOOTH",
"462 179 OFFCURVE",
"390 105 OFFCURVE",
"288 105 CURVE SMOOTH"
);
}
);
width = 594;
},
{
anchors = (
{
name = bottom;
position = "{307, -172}";
},
{
name = top;
position = "{314, 517}";
}
);
layerId = "A0D976AB-773B-4D3A-9F7E-7A0C42AF1E7B";
paths = (
{
closed = 1;
nodes = (
"479 -172 OFFCURVE",
"601 -78 OFFCURVE",
"601 55 CURVE SMOOTH",
"601 517 LINE",
"407 517 LINE",
"407 65 LINE SMOOTH",
"407 21 OFFCURVE",
"353 -12 OFFCURVE",
"276 -12 CURVE SMOOTH",
"219 -12 OFFCURVE",
"159 5 OFFCURVE",
"129 30 CURVE",
"66 -103 LINE",
"121 -143 OFFCURVE",
"211 -172 OFFCURVE",
"307 -172 CURVE SMOOTH"
);
},
{
closed = 1;
nodes = (
"317 38 OFFCURVE",
"386 72 OFFCURVE",
"426 129 CURVE",
"420 439 LINE",
"397 489 OFFCURVE",
"319 529 OFFCURVE",
"247 529 CURVE SMOOTH",
"122 529 OFFCURVE",
"23 428 OFFCURVE",
"23 284 CURVE SMOOTH",
"23 140 OFFCURVE",
"122 38 OFFCURVE",
"247 38 CURVE SMOOTH"
);
},
{
closed = 1;
nodes = (
"260 198 OFFCURVE",
"221 234 OFFCURVE",
"221 284 CURVE SMOOTH",
"221 334 OFFCURVE",
"260 369 OFFCURVE",
"314 369 CURVE SMOOTH",
"368 369 OFFCURVE",
"407 334 OFFCURVE",
"407 284 CURVE SMOOTH",
"407 234 OFFCURVE",
"368 198 OFFCURVE",
"314 198 CURVE SMOOTH"
);
}
);
width = 659;
},
{
anchors = (
{
name = bottom;
position = "{293, -172}";
},
{
name = top;
position = "{296, 517}";
}
);
layerId = "3B040282-CF47-4846-BCAF-7BFF90FB63BC";
paths = (
{
closed = 1;
nodes = (
"431 -172 OFFCURVE",
"528 -78 OFFCURVE",
"528 55 CURVE SMOOTH",
"528 517 LINE",
"492 517 LINE",
"492 55 LINE SMOOTH",
"492 -57 OFFCURVE",
"408 -136 OFFCURVE",
"290 -136 CURVE SMOOTH",
"225 -136 OFFCURVE",
"147 -109 OFFCURVE",
"102 -71 CURVE",
"84 -103 LINE",
"131 -143 OFFCURVE",
"218 -172 OFFCURVE",
"293 -172 CURVE SMOOTH"
);
},
{
closed = 1;
nodes = (
"375 38 OFFCURVE",
"462 89 OFFCURVE",
"497 186 CURVE",
"497 382 LINE",
"462 479 OFFCURVE",
"379 529 OFFCURVE",
"276 529 CURVE SMOOTH",
"153 529 OFFCURVE",
"50 417 OFFCURVE",
"50 284 CURVE SMOOTH",
"50 150 OFFCURVE",
"153 38 OFFCURVE",
"276 38 CURVE SMOOTH"
);
},
{
closed = 1;
nodes = (
"176 74 OFFCURVE",
"86 170 OFFCURVE",
"86 284 CURVE SMOOTH",
"86 397 OFFCURVE",
"176 493 OFFCURVE",
"283 493 CURVE SMOOTH",
"401 493 OFFCURVE",
"492 406 OFFCURVE",
"492 284 CURVE SMOOTH",
"492 161 OFFCURVE",
"401 74 OFFCURVE",
"283 74 CURVE SMOOTH"
);
}
);
width = 596;
}
);
leftKerningGroup = g;
rightKerningGroup = g;
unicode = 0067;
},
{
color = 1;
glyphname = h;
lastChange = "2019-05-05 05:48:15 +0000";
layers = (
{
layerId = "35616FF6-3D9C-499B-B113-AC9E0DB5842A";
paths = (
{
closed = 1;
nodes = (
"498 0 LINE",
"498 329 LINE SMOOTH",
"498 448 OFFCURVE",
"419 529 OFFCURVE",
"304 529 CURVE SMOOTH",
"207 529 OFFCURVE",
"123 462 OFFCURVE",
"118 379 CURVE",
"134 329 LINE",
"134 402 OFFCURVE",
"206 462 OFFCURVE",
"294 462 CURVE SMOOTH",
"370 462 OFFCURVE",
"423 404 OFFCURVE",
"423 319 CURVE SMOOTH",
"423 0 LINE"
);
},
{
closed = 1;
nodes = (
"134 0 LINE",
"134 699 LINE",
"59 699 LINE",
"59 0 LINE"
);
}
);
width = 548;
},
{
layerId = "A0D976AB-773B-4D3A-9F7E-7A0C42AF1E7B";
paths = (
{
closed = 1;
nodes = (
"593 0 LINE",
"593 329 LINE SMOOTH",
"593 446 OFFCURVE",
"514 529 OFFCURVE",
"403 529 CURVE SMOOTH",
"304 529 OFFCURVE",
"230 467 OFFCURVE",
"225 379 CURVE",
"257 290 LINE",
"257 336 OFFCURVE",
"288 369 OFFCURVE",
"331 369 CURVE SMOOTH",
"377 369 OFFCURVE",
"409 334 OFFCURVE",
"409 284 CURVE SMOOTH",
"409 0 LINE"
);
},
{
closed = 1;
nodes = (
"257 0 LINE",
"257 699 LINE",
"64 699 LINE",
"64 0 LINE"
);
}
);
width = 637;
},
{
layerId = "3B040282-CF47-4846-BCAF-7BFF90FB63BC";
paths = (
{
closed = 1;
nodes = (
"467 0 LINE",
"467 339 LINE SMOOTH",
"467 450 OFFCURVE",
"387 529 OFFCURVE",
"274 529 CURVE SMOOTH",
"167 529 OFFCURVE",
"91 459 OFFCURVE",
"91 360 CURVE",
"104 330 LINE",
"104 425 OFFCURVE",
"172 493 OFFCURVE",
"269 493 CURVE SMOOTH",
"364 493 OFFCURVE",
"431 427 OFFCURVE",
"431 334 CURVE SMOOTH",
"431 0 LINE"
);
},
{
closed = 1;
nodes = (
"104 0 LINE",
"104 699 LINE",
"68 699 LINE",
"68 0 LINE"
);
}
);
width = 529;
}
);
leftKerningGroup = h;
rightKerningGroup = h;
unicode = 0068;
},
{
color = 1;
glyphname = idotless;
lastChange = "2019-05-05 09:32:03 +0000";
layers = (
{
anchors = (
{
name = bottom;
position = "{132, 0}";
},
{
name = loop_left;
position = "{57, 259}";
},
{
name = r_shoulder;
position = "{132, 291}";
},
{
name = shoulder;
position = "{132, 329}";
},
{
name = top;
position = "{95, 517}";
}
);
layerId = "35616FF6-3D9C-499B-B113-AC9E0DB5842A";
paths = (
{
closed = 1;
nodes = (
"132 0 LINE",
"132 517 LINE",
"57 517 LINE",
"57 0 LINE"
);
}
);
width = 189;
},
{
anchors = (
{
name = bottom;
position = "{249, 0}";
},
{
name = loop_left;
position = "{56, 259}";
},
{
name = r_shoulder;
position = "{249, 219}";
},
{
name = shoulder;
position = "{249, 290}";
},
{
name = top;
position = "{153, 517}";
}
);
layerId = "A0D976AB-773B-4D3A-9F7E-7A0C42AF1E7B";
paths = (
{
closed = 1;
nodes = (
"249 0 LINE",
"249 517 LINE",
"56 517 LINE",
"56 0 LINE"
);
}
);
width = 305;
},
{
anchors = (
{
name = bottom;
position = "{104, 0}";
},
{
name = loop_left;
position = "{68, 259}";
},
{
name = r_shoulder;
position = "{104, 289}";
},
{
name = shoulder;
position = "{104, 330}";
},
{
name = top;
position = "{86, 517}";
}
);
layerId = "3B040282-CF47-4846-BCAF-7BFF90FB63BC";
paths = (
{
closed = 1;
nodes = (
"104 0 LINE",
"104 517 LINE",
"68 517 LINE",
"68 0 LINE"
);
}
);
width = 172;
},
{
anchors = (
{
name = bottom;
position = "{249, 0}";
},
{
name = loop_left;
position = "{56, 259}";
},
{
name = r_shoulder;
position = "{249, 219}";
},
{
name = shoulder;
position = "{249, 290}";
},
{
name = top;
position = "{153, 517}";
}
);
associatedMasterId = "A0D976AB-773B-4D3A-9F7E-7A0C42AF1E7B";
layerId = "BA69D4B0-A06D-4E0A-9CB0-B422D9C69739";
name = bubble;
paths = (
{
closed = 1;
nodes = (
"305 0 LINE",
"305 517 LINE",
"0 517 LINE",
"0 0 LINE"
);
}
);
width = 305;
},
{
anchors = (
{
name = bottom;
position = "{132, 0}";
},
{
name = loop_left;
position = "{57, 259}";
},
{
name = r_shoulder;
position = "{132, 291}";
},
{
name = shoulder;
position = "{132, 329}";
},
{
name = top;
position = "{95, 517}";
}
);
associatedMasterId = "35616FF6-3D9C-499B-B113-AC9E0DB5842A";
layerId = "9A13BB28-EE80-4874-85E7-5127F7751AC8";
name = bubble;
paths = (
{
closed = 1;
nodes = (
"189 0 LINE",
"189 517 LINE",
"0 517 LINE",
"0 0 LINE"
);
}
);
width = 189;
},
{
anchors = (
{
name = bottom;
position = "{104, 0}";
},
{
name = loop_left;
position = "{68, 259}";
},
{
name = r_shoulder;
position = "{104, 289}";
},
{
name = shoulder;
position = "{104, 330}";
},
{
name = top;
position = "{86, 517}";
}
);
associatedMasterId = "3B040282-CF47-4846-BCAF-7BFF90FB63BC";
layerId = "E29C01B1-DB7D-46AC-90F4-F79583E157D9";
name = bubble;
paths = (
{
closed = 1;
nodes = (
"172 0 LINE",
"172 517 LINE",
"0 517 LINE",
"0 0 LINE"
);
}
);
width = 172;
}
);
leftKerningGroup = i;
rightKerningGroup = i;
unicode = 0131;
},
{
color = 1;
glyphname = jdotless;
lastChange = "2019-05-05 05:46:26 +0000";
layers = (
{
anchors = (
{
name = top;
position = "{97, 517}";
}
);
layerId = "35616FF6-3D9C-499B-B113-AC9E0DB5842A";
paths = (
{
closed = 1;
nodes = (
"82 -178 OFFCURVE",
"134 -123 OFFCURVE",
"134 -46 CURVE SMOOTH",
"134 517 LINE",
"59 517 LINE",
"59 -46 LINE SMOOTH",
"59 -84 OFFCURVE",
"36 -111 OFFCURVE",
"3 -111 CURVE SMOOTH",
"-18 -111 OFFCURVE",
"-45 -106 OFFCURVE",
"-61 -100 CURVE",
"-73 -162 LINE",
"-53 -171 OFFCURVE",
"-20 -178 OFFCURVE",
"8 -178 CURVE SMOOTH"
);
}
);
width = 193;
},
{
anchors = (
{
name = top;
position = "{154, 517}";
}
);
layerId = "A0D976AB-773B-4D3A-9F7E-7A0C42AF1E7B";
paths = (
{
closed = 1;
nodes = (
"177 -178 OFFCURVE",
"253 -102 OFFCURVE",
"253 6 CURVE SMOOTH",
"253 517 LINE",
"60 517 LINE",
"60 30 LINE SMOOTH",
"60 -1 OFFCURVE",
"42 -23 OFFCURVE",
"16 -23 CURVE SMOOTH",
"0 -23 OFFCURVE",
"-19 -20 OFFCURVE",
"-31 -15 CURVE",
"-49 -154 LINE",
"-21 -168 OFFCURVE",
"28 -178 OFFCURVE",
"69 -178 CURVE SMOOTH"
);
}
);
width = 313;
},
{
anchors = (
{
name = top;
position = "{85, 517}";
}
);
layerId = "3B040282-CF47-4846-BCAF-7BFF90FB63BC";
paths = (
{
closed = 1;
nodes = (
"60 -178 OFFCURVE",
"104 -127 OFFCURVE",
"104 -56 CURVE SMOOTH",
"104 517 LINE",
"68 517 LINE",
"68 -56 LINE SMOOTH",
"68 -106 OFFCURVE",
"38 -142 OFFCURVE",
"-5 -142 CURVE SMOOTH",
"-29 -142 OFFCURVE",
"-59 -136 OFFCURVE",
"-77 -128 CURVE",
"-84 -162 LINE",
"-63 -171 OFFCURVE",
"-30 -178 OFFCURVE",
"-3 -178 CURVE SMOOTH"
);
}
);
width = 172;
}
);
leftKerningGroup = j;
rightKerningGroup = j;
unicode = 0237;
},
{
color = 1;
glyphname = k;
lastChange = "2019-05-05 05:48:15 +0000";
layers = (
{
anchors = (
{
name = bottom;
position = "{246, 0}";
}
);
layerId = "35616FF6-3D9C-499B-B113-AC9E0DB5842A";
paths = (
{
closed = 1;
nodes = (
"134 0 LINE",
"134 137 LINE",
"227 229 LINE",
"406 0 LINE",
"500 0 LINE",
"280 280 LINE",
"513 517 LINE",
"417 517 LINE",
"134 231 LINE",
"134 699 LINE",
"59 699 LINE",
"59 0 LINE"
);
}
);
width = 541;
},
{
anchors = (
{
name = bottom;
position = "{321, 0}";
}
);
layerId = "A0D976AB-773B-4D3A-9F7E-7A0C42AF1E7B";
paths = (
{
closed = 1;
nodes = (
"257 0 LINE",
"257 119 LINE",
"299 171 LINE",
"394 0 LINE",
"610 0 LINE",
"425 294 LINE",
"606 517 LINE",
"390 517 LINE",
"257 335 LINE",
"257 699 LINE",
"64 699 LINE",
"64 0 LINE"
);
}
);
width = 620;
},
{
anchors = (
{
name = bottom;
position = "{248, 0}";
}
);
layerId = "3B040282-CF47-4846-BCAF-7BFF90FB63BC";
paths = (
{
closed = 1;
nodes = (
"104 0 LINE",
"104 134 LINE",
"222 255 LINE",
"421 0 LINE",
"467 0 LINE",
"247 280 LINE",
"479 517 LINE",
"429 517 LINE",
"104 186 LINE",
"104 699 LINE",
"68 699 LINE",
"68 0 LINE"
);
}
);
width = 523;
}
);
leftKerningGroup = k;
rightKerningGroup = k;
unicode = 006B;
},
{
color = 1;
glyphname = l;
lastChange = "2019-05-05 09:43:24 +0000";
layers = (
{
anchors = (
{
name = bottom;
position = "{97, 0}";
},
{
name = top;
position = "{97, 699}";
}
);
layerId = "35616FF6-3D9C-499B-B113-AC9E0DB5842A";
paths = (
{
closed = 1;
nodes = (
"134 0 LINE",
"134 699 LINE",
"59 699 LINE",
"59 0 LINE"
);
}
);
width = 193;
},
{
anchors = (
{
name = bottom;
position = "{160, 0}";
},
{
name = top;
position = "{160, 699}";
}
);
layerId = "A0D976AB-773B-4D3A-9F7E-7A0C42AF1E7B";
paths = (
{
closed = 1;
nodes = (
"257 0 LINE",
"257 699 LINE",
"64 699 LINE",
"64 0 LINE"
);
}
);
width = 321;
},
{
anchors = (
{
name = bottom;
position = "{86, 0}";
},
{
name = top;
position = "{86, 699}";
}
);
layerId = "3B040282-CF47-4846-BCAF-7BFF90FB63BC";
paths = (
{
closed = 1;
nodes = (
"104 0 LINE",
"104 699 LINE",
"68 699 LINE",
"68 0 LINE"
);
}
);
width = 172;
},
{
associatedMasterId = "A0D976AB-773B-4D3A-9F7E-7A0C42AF1E7B";
layerId = "1EB1DAFF-CEAA-4C4A-A8AD-333CB288AE8A";
name = bubble;
paths = (
{
closed = 1;
nodes = (
"321 0 LINE",
"321 699 LINE",
"0 699 LINE",
"0 0 LINE"
);
}
);
width = 321;
},
{
anchors = (
{
name = bottom;
position = "{97, 0}";
},
{
name = top;
position = "{97, 699}";
}
);
associatedMasterId = "35616FF6-3D9C-499B-B113-AC9E0DB5842A";
layerId = "267BF53E-CAEE-467A-BA6F-CC01B027A515";
name = bubble;
paths = (
{
closed = 1;
nodes = (
"193 0 LINE",
"193 699 LINE",
"0 699 LINE",
"0 0 LINE"
);
}
);
width = 193;
},
{
anchors = (
{
name = bottom;
position = "{86, 0}";
},
{
name = top;
position = "{86, 699}";
}
);
associatedMasterId = "3B040282-CF47-4846-BCAF-7BFF90FB63BC";
layerId = "23980D05-6730-4970-BFE9-F693B537CE1B";
name = bubble;
paths = (
{
closed = 1;
nodes = (
"172 0 LINE",
"172 699 LINE",
"0 699 LINE",
"0 0 LINE"
);
}
);
width = 172;
}
);
leftKerningGroup = l;
rightKerningGroup = l;
unicode = 006C;
},
{
color = 1;
glyphname = lslash;
lastChange = "2019-05-05 09:46:12 +0000";
layers = (
{
components = (
{
name = l;
transform = "{1, 0, 0, 1, 57, 0}";
}
);
layerId = "3B040282-CF47-4846-BCAF-7BFF90FB63BC";
paths = (
{
closed = 1;
nodes = (
"241 349 LINE",
"241 390 LINE",
"46 290 LINE",
"46 249 LINE"
);
}
);
width = 287;
},
{
components = (
{
name = l;
transform = "{1, 0, 0, 1, 51, 0}";
}
);
layerId = "35616FF6-3D9C-499B-B113-AC9E0DB5842A";
paths = (
{
closed = 1;
nodes = (
"264 354 LINE",
"264 429 LINE",
"31 309 LINE",
"31 234 LINE"
);
}
);
width = 295;
},
{
components = (
{
name = l;
transform = "{1, 0, 0, 1, 33, 0}";
}
);
layerId = "A0D976AB-773B-4D3A-9F7E-7A0C42AF1E7B";
paths = (
{
closed = 1;
nodes = (
"367 350 LINE",
"367 517 LINE",
"19 345 LINE",
"19 178 LINE"
);
}
);
width = 387;
}
);
leftKerningGroup = lslash;
rightKerningGroup = lslash;
unicode = 0142;
},
{
color = 1;
glyphname = m;
lastChange = "2019-05-05 05:48:16 +0000";
layers = (
{
layerId = "35616FF6-3D9C-499B-B113-AC9E0DB5842A";
paths = (
{
closed = 1;
nodes = (
"466 0 LINE",
"466 329 LINE SMOOTH",
"466 446 OFFCURVE",
"390 529 OFFCURVE",
"282 529 CURVE SMOOTH",
"190 529 OFFCURVE",
"121 467 OFFCURVE",
"116 379 CURVE",
"132 329 LINE",
"132 407 OFFCURVE",
"190 462 OFFCURVE",
"272 462 CURVE SMOOTH",
"342 462 OFFCURVE",
"391 403 OFFCURVE",
"391 319 CURVE SMOOTH",
"391 0 LINE"
);
},
{
closed = 1;
nodes = (
"132 0 LINE",
"132 517 LINE",
"57 517 LINE",
"57 0 LINE"
);
},
{
closed = 1;
nodes = (
"800 0 LINE",
"800 329 LINE SMOOTH",
"800 446 OFFCURVE",
"724 529 OFFCURVE",
"616 529 CURVE SMOOTH",
"493 529 OFFCURVE",
"402 447 OFFCURVE",
"395 329 CURVE",
"466 329 LINE",
"466 407 OFFCURVE",
"524 462 OFFCURVE",
"606 462 CURVE SMOOTH",
"676 462 OFFCURVE",
"725 403 OFFCURVE",
"725 319 CURVE SMOOTH",
"725 0 LINE"
);
}
);
width = 850;
},
{
layerId = "A0D976AB-773B-4D3A-9F7E-7A0C42AF1E7B";
paths = (
{
closed = 1;
nodes = (
"579 1 LINE",
"579 329 LINE SMOOTH",
"579 446 OFFCURVE",
"491 529 OFFCURVE",
"383 529 CURVE SMOOTH",
"294 529 OFFCURVE",
"231 467 OFFCURVE",
"231 379 CURVE",
"249 300 LINE",
"249 340 OFFCURVE",
"279 369 OFFCURVE",
"322 369 CURVE SMOOTH",
"365 369 OFFCURVE",
"395 338 OFFCURVE",
"395 294 CURVE SMOOTH",
"395 1 LINE"
);
},
{
closed = 1;
nodes = (
"249 1 LINE",
"249 517 LINE",
"56 517 LINE",
"56 1 LINE"
);
},
{
closed = 1;
nodes = (
"909 1 LINE",
"909 329 LINE SMOOTH",
"909 446 OFFCURVE",
"821 529 OFFCURVE",
"713 529 CURVE SMOOTH",
"612 529 OFFCURVE",
"541 467 OFFCURVE",
"541 379 CURVE",
"579 300 LINE",
"579 340 OFFCURVE",
"609 369 OFFCURVE",
"652 369 CURVE SMOOTH",
"695 369 OFFCURVE",
"725 338 OFFCURVE",
"725 294 CURVE SMOOTH",
"725 1 LINE"
);
}
);
width = 953;
},
{
layerId = "3B040282-CF47-4846-BCAF-7BFF90FB63BC";
paths = (
{
closed = 1;
nodes = (
"439 -1 LINE",
"439 339 LINE SMOOTH",
"439 450 OFFCURVE",
"367 529 OFFCURVE",
"264 529 CURVE SMOOTH",
"165 529 OFFCURVE",
"95 472 OFFCURVE",
"95 391 CURVE",
"104 339 LINE",
"104 429 OFFCURVE",
"168 493 OFFCURVE",
"259 493 CURVE SMOOTH",
"343 493 OFFCURVE",
"403 427 OFFCURVE",
"403 334 CURVE SMOOTH",
"403 -1 LINE"
);
},
{
closed = 1;
nodes = (
"104 -1 LINE",
"104 517 LINE",
"68 517 LINE",
"68 -1 LINE"
);
},
{
closed = 1;
nodes = (
"774 -1 LINE",
"774 339 LINE SMOOTH",
"774 450 OFFCURVE",
"702 529 OFFCURVE",
"599 529 CURVE SMOOTH",
"484 529 OFFCURVE",
"404 451 OFFCURVE",
"404 339 CURVE",
"439 339 LINE",
"439 429 OFFCURVE",
"503 493 OFFCURVE",
"594 493 CURVE SMOOTH",
"678 493 OFFCURVE",
"738 427 OFFCURVE",
"738 334 CURVE SMOOTH",
"738 -1 LINE"
);
}
);
width = 837;
}
);
leftKerningGroup = m;
rightKerningGroup = m;
unicode = 006D;
},
{
color = 1;
glyphname = n;
lastChange = "2019-05-05 05:48:15 +0000";
layers = (
{
anchors = (
{
name = bottom;
position = "{276, 0}";
},
{
name = top;
position = "{276, 517}";
}
);
layerId = "35616FF6-3D9C-499B-B113-AC9E0DB5842A";
paths = (
{
closed = 1;
nodes = (
"496 0 LINE",
"496 329 LINE SMOOTH",
"496 448 OFFCURVE",
"417 529 OFFCURVE",
"302 529 CURVE SMOOTH",
"205 529 OFFCURVE",
"121 462 OFFCURVE",
"116 379 CURVE",
"132 329 LINE",
"132 402 OFFCURVE",
"204 462 OFFCURVE",
"292 462 CURVE SMOOTH",
"368 462 OFFCURVE",
"421 404 OFFCURVE",
"421 319 CURVE SMOOTH",
"421 0 LINE"
);
},
{
closed = 1;
nodes = (
"132 0 LINE",
"132 517 LINE",
"57 517 LINE",
"57 0 LINE"
);
}
);
width = 546;
},
{
anchors = (
{
name = bottom;
position = "{314, 0}";
},
{
name = top;
position = "{314, 517}";
}
);
layerId = "A0D976AB-773B-4D3A-9F7E-7A0C42AF1E7B";
paths = (
{
closed = 1;
nodes = (
"585 0 LINE",
"585 329 LINE SMOOTH",
"585 446 OFFCURVE",
"506 529 OFFCURVE",
"395 529 CURVE SMOOTH",
"296 529 OFFCURVE",
"222 467 OFFCURVE",
"217 379 CURVE",
"249 290 LINE",
"249 336 OFFCURVE",
"280 369 OFFCURVE",
"323 369 CURVE SMOOTH",
"369 369 OFFCURVE",
"401 334 OFFCURVE",
"401 284 CURVE SMOOTH",
"401 0 LINE"
);
},
{
closed = 1;
nodes = (
"249 0 LINE",
"249 517 LINE",
"56 517 LINE",
"56 0 LINE"
);
}
);
width = 629;
},
{
anchors = (
{
name = bottom;
position = "{268, 0}";
},
{
name = top;
position = "{268, 517}";
}
);
layerId = "3B040282-CF47-4846-BCAF-7BFF90FB63BC";
paths = (
{
closed = 1;
nodes = (
"467 0 LINE",
"467 339 LINE SMOOTH",
"467 450 OFFCURVE",
"387 529 OFFCURVE",
"274 529 CURVE SMOOTH",
"167 529 OFFCURVE",
"91 459 OFFCURVE",
"91 360 CURVE",
"104 330 LINE",
"104 425 OFFCURVE",
"172 493 OFFCURVE",
"269 493 CURVE SMOOTH",
"364 493 OFFCURVE",
"431 427 OFFCURVE",
"431 334 CURVE SMOOTH",
"431 0 LINE"
);
},
{
closed = 1;
nodes = (
"104 0 LINE",
"104 517 LINE",
"68 517 LINE",
"68 0 LINE"
);
}
);
width = 529;
}
);
leftKerningGroup = n;
rightKerningGroup = n;
unicode = 006E;
},
{
color = 1;
glyphname = o;
lastChange = "2019-05-05 09:31:12 +0000";
layers = (
{
anchors = (
{
name = top;
position = "{302, 517}";
}
);
layerId = "35616FF6-3D9C-499B-B113-AC9E0DB5842A";
paths = (
{
closed = 1;
nodes = (
"448 -12 OFFCURVE",
"568 110 OFFCURVE",
"568 259 CURVE SMOOTH",
"568 408 OFFCURVE",
"448 529 OFFCURVE",
"302 529 CURVE SMOOTH",
"155 529 OFFCURVE",
"35 408 OFFCURVE",
"35 259 CURVE SMOOTH",
"35 110 OFFCURVE",
"155 -12 OFFCURVE",
"302 -12 CURVE SMOOTH"
);
},
{
closed = 1;
nodes = (
"198 55 OFFCURVE",
"113 147 OFFCURVE",
"113 259 CURVE SMOOTH",
"113 371 OFFCURVE",
"198 462 OFFCURVE",
"302 462 CURVE SMOOTH",
"405 462 OFFCURVE",
"490 371 OFFCURVE",
"490 259 CURVE SMOOTH",
"490 147 OFFCURVE",
"405 55 OFFCURVE",
"302 55 CURVE SMOOTH"
);
}
);
width = 603;
},
{
anchors = (
{
name = top;
position = "{311, 517}";
}
);
layerId = "A0D976AB-773B-4D3A-9F7E-7A0C42AF1E7B";
paths = (
{
closed = 1;
nodes = (
"472 -12 OFFCURVE",
"603 110 OFFCURVE",
"603 259 CURVE SMOOTH",
"603 408 OFFCURVE",
"472 529 OFFCURVE",
"311 529 CURVE SMOOTH",
"150 529 OFFCURVE",
"18 408 OFFCURVE",
"18 259 CURVE SMOOTH",
"18 110 OFFCURVE",
"150 -12 OFFCURVE",
"311 -12 CURVE SMOOTH"
);
},
{
closed = 1;
nodes = (
"250 148 OFFCURVE",
"200 198 OFFCURVE",
"200 259 CURVE SMOOTH",
"200 320 OFFCURVE",
"250 369 OFFCURVE",
"311 369 CURVE SMOOTH",
"372 369 OFFCURVE",
"421 320 OFFCURVE",
"421 259 CURVE SMOOTH",
"421 198 OFFCURVE",
"372 148 OFFCURVE",
"311 148 CURVE SMOOTH"
);
}
);
width = 621;
},
{
anchors = (
{
name = top;
position = "{318, 517}";
}
);
layerId = "3B040282-CF47-4846-BCAF-7BFF90FB63BC";
paths = (
{
closed = 1;
nodes = (
"463 -12 OFFCURVE",
"585 112 OFFCURVE",
"585 259 CURVE SMOOTH",
"585 406 OFFCURVE",
"463 529 OFFCURVE",
"318 529 CURVE SMOOTH",
"173 529 OFFCURVE",
"50 406 OFFCURVE",
"50 259 CURVE SMOOTH",
"50 112 OFFCURVE",
"173 -12 OFFCURVE",
"318 -12 CURVE SMOOTH"
);
},
{
closed = 1;
nodes = (
"192 24 OFFCURVE",
"86 131 OFFCURVE",
"86 259 CURVE SMOOTH",
"86 386 OFFCURVE",
"192 493 OFFCURVE",
"318 493 CURVE SMOOTH",
"443 493 OFFCURVE",
"549 386 OFFCURVE",
"549 259 CURVE SMOOTH",
"549 131 OFFCURVE",
"443 24 OFFCURVE",
"318 24 CURVE SMOOTH"
);
}
);
width = 635;
},
{
anchors = (
{
name = top;
position = "{311, 517}";
}
);
associatedMasterId = "A0D976AB-773B-4D3A-9F7E-7A0C42AF1E7B";
layerId = "2028189C-D4E5-449B-8454-D7CBEE8B70DF";
name = bubble;
paths = (
{
closed = 1;
nodes = (
"481 -30 OFFCURVE",
"621 100 OFFCURVE",
"621 259 CURVE SMOOTH",
"621 418 OFFCURVE",
"481 547 OFFCURVE",
"311 547 CURVE SMOOTH",
"140 547 OFFCURVE",
"0 418 OFFCURVE",
"0 259 CURVE SMOOTH",
"0 100 OFFCURVE",
"141 -30 OFFCURVE",
"311 -30 CURVE SMOOTH"
);
}
);
width = 621;
},
{
anchors = (
{
name = top;
position = "{302, 517}";
}
);
associatedMasterId = "35616FF6-3D9C-499B-B113-AC9E0DB5842A";
layerId = "911CAA0C-1217-4C01-88CD-E15630EFEA87";
name = bubble;
paths = (
{
closed = 1;
nodes = (
"467 -47 OFFCURVE",
"603 91 OFFCURVE",
"603 259 CURVE SMOOTH",
"603 427 OFFCURVE",
"468 564 OFFCURVE",
"302 564 CURVE SMOOTH",
"136 564 OFFCURVE",
"0 427 OFFCURVE",
"0 259 CURVE SMOOTH",
"0 91 OFFCURVE",
"136 -47 OFFCURVE",
"302 -47 CURVE SMOOTH"
);
}
);
width = 603;
},
{
anchors = (
{
name = top;
position = "{318, 517}";
}
);
associatedMasterId = "3B040282-CF47-4846-BCAF-7BFF90FB63BC";
layerId = "0F883E38-BB84-4C74-B813-F37C83F467F7";
name = bubble;
paths = (
{
closed = 1;
nodes = (
"490 -62 OFFCURVE",
"635 84 OFFCURVE",
"635 259 CURVE SMOOTH",
"635 433 OFFCURVE",
"491 579 OFFCURVE",
"318 579 CURVE SMOOTH",
"145 579 OFFCURVE",
"0 433 OFFCURVE",
"0 259 CURVE SMOOTH",
"0 85 OFFCURVE",
"145 -62 OFFCURVE",
"318 -62 CURVE SMOOTH"
);
}
);
width = 635;
}
);
leftKerningGroup = o;
rightKerningGroup = o;
unicode = 006F;
},
{
color = 1;
glyphname = oslash;
lastChange = "2019-05-05 05:48:16 +0000";
layers = (
{
anchors = (
{
name = top;
position = "{303, 517}";
}
);
layerId = "35616FF6-3D9C-499B-B113-AC9E0DB5842A";
paths = (
{
closed = 1;
nodes = (
"133 0 LINE",
"574 517 LINE",
"489 517 LINE",
"48 0 LINE"
);
},
{
closed = 1;
nodes = (
"449 -12 OFFCURVE",
"569 110 OFFCURVE",
"569 259 CURVE SMOOTH",
"569 408 OFFCURVE",
"449 529 OFFCURVE",
"303 529 CURVE SMOOTH",
"156 529 OFFCURVE",
"36 408 OFFCURVE",
"36 259 CURVE SMOOTH",
"36 110 OFFCURVE",
"156 -12 OFFCURVE",
"303 -12 CURVE SMOOTH"
);
},
{
closed = 1;
nodes = (
"199 55 OFFCURVE",
"114 147 OFFCURVE",
"114 259 CURVE SMOOTH",
"114 371 OFFCURVE",
"199 462 OFFCURVE",
"303 462 CURVE SMOOTH",
"406 462 OFFCURVE",
"491 371 OFFCURVE",
"491 259 CURVE SMOOTH",
"491 147 OFFCURVE",
"406 55 OFFCURVE",
"303 55 CURVE SMOOTH"
);
}
);
width = 611;
},
{
anchors = (
{
name = top;
position = "{319, 517}";
}
);
layerId = "A0D976AB-773B-4D3A-9F7E-7A0C42AF1E7B";
paths = (
{
closed = 1;
nodes = (
"152 0 LINE",
"602 517 LINE",
"482 517 LINE",
"32 0 LINE"
);
},
{
closed = 1;
nodes = (
"480 -12 OFFCURVE",
"611 110 OFFCURVE",
"611 259 CURVE SMOOTH",
"611 408 OFFCURVE",
"480 529 OFFCURVE",
"319 529 CURVE SMOOTH",
"158 529 OFFCURVE",
"26 408 OFFCURVE",
"26 259 CURVE SMOOTH",
"26 110 OFFCURVE",
"158 -12 OFFCURVE",
"319 -12 CURVE SMOOTH"
);
},
{
closed = 1;
nodes = (
"258 148 OFFCURVE",
"208 198 OFFCURVE",
"208 259 CURVE SMOOTH",
"208 320 OFFCURVE",
"258 369 OFFCURVE",
"319 369 CURVE SMOOTH",
"380 369 OFFCURVE",
"429 320 OFFCURVE",
"429 259 CURVE SMOOTH",
"429 198 OFFCURVE",
"380 148 OFFCURVE",
"319 148 CURVE SMOOTH"
);
}
);
width = 636;
},
{
anchors = (
{
name = top;
position = "{318, 517}";
}
);
layerId = "3B040282-CF47-4846-BCAF-7BFF90FB63BC";
paths = (
{
closed = 1;
nodes = (
"129 0 LINE",
"570 517 LINE",
"522 517 LINE",
"81 0 LINE"
);
},
{
closed = 1;
nodes = (
"463 -12 OFFCURVE",
"585 112 OFFCURVE",
"585 259 CURVE SMOOTH",
"585 406 OFFCURVE",
"463 529 OFFCURVE",
"318 529 CURVE SMOOTH",
"173 529 OFFCURVE",
"50 406 OFFCURVE",
"50 259 CURVE SMOOTH",
"50 112 OFFCURVE",
"173 -12 OFFCURVE",
"318 -12 CURVE SMOOTH"
);
},
{
closed = 1;
nodes = (
"192 24 OFFCURVE",
"86 131 OFFCURVE",
"86 259 CURVE SMOOTH",
"86 386 OFFCURVE",
"192 493 OFFCURVE",
"318 493 CURVE SMOOTH",
"443 493 OFFCURVE",
"549 386 OFFCURVE",
"549 259 CURVE SMOOTH",
"549 131 OFFCURVE",
"443 24 OFFCURVE",
"318 24 CURVE SMOOTH"
);
}
);
width = 635;
}
);
leftKerningGroup = oslash;
rightKerningGroup = oslash;
unicode = 00F8;
},
{
color = 1;
glyphname = oe;
lastChange = "2019-05-05 05:48:16 +0000";
layers = (
{
anchors = (
{
name = bottom;
position = "{805, -12}";
},
{
name = top;
position = "{318, 517}";
}
);
layerId = "3B040282-CF47-4846-BCAF-7BFF90FB63BC";
paths = (
{
closed = 1;
nodes = (
"429 -12 OFFCURVE",
"527 62 OFFCURVE",
"566 162 CURVE",
"604 61 OFFCURVE",
"697 -12 OFFCURVE",
"803 -12 CURVE SMOOTH",
"886 -12 OFFCURVE",
"976 21 OFFCURVE",
"1019 68 CURVE",
"994 95 LINE",
"951 48 OFFCURVE",
"877 24 OFFCURVE",
"803 24 CURVE SMOOTH",
"685 24 OFFCURVE",
"585 132 OFFCURVE",
"585 260 CURVE SMOOTH",
"585 390 OFFCURVE",
"681 493 OFFCURVE",
"803 493 CURVE SMOOTH",
"929 493 OFFCURVE",
"1013 401 OFFCURVE",
"1013 264 CURVE",
"1029 278 LINE",
"570 278 LINE",
"570 242 LINE",
"1049 242 LINE",
"1049 414 OFFCURVE",
"951 529 OFFCURVE",
"803 529 CURVE SMOOTH",
"694 529 OFFCURVE",
"602 459 OFFCURVE",
"566 358 CURVE",
"526 458 OFFCURVE",
"429 529 OFFCURVE",
"318 529 CURVE SMOOTH",
"173 529 OFFCURVE",
"50 407 OFFCURVE",
"50 260 CURVE SMOOTH",
"50 113 OFFCURVE",
"173 -12 OFFCURVE",
"318 -12 CURVE SMOOTH"
);
},
{
closed = 1;
nodes = (
"192 24 OFFCURVE",
"86 132 OFFCURVE",
"86 260 CURVE SMOOTH",
"86 387 OFFCURVE",
"192 493 OFFCURVE",
"318 493 CURVE SMOOTH",
"443 493 OFFCURVE",
"549 387 OFFCURVE",
"549 260 CURVE SMOOTH",
"549 132 OFFCURVE",
"443 24 OFFCURVE",
"318 24 CURVE SMOOTH"
);
}
);
width = 1096;
},
{
anchors = (
{
name = bottom;
position = "{725, -12}";
},
{
name = top;
position = "{302, 517}";
}
);
layerId = "35616FF6-3D9C-499B-B113-AC9E0DB5842A";
paths = (
{
closed = 1;
nodes = (
"397 -12 OFFCURVE",
"481 40 OFFCURVE",
"528 118 CURVE",
"575 38 OFFCURVE",
"660 -12 OFFCURVE",
"752 -12 CURVE SMOOTH",
"824 -12 OFFCURVE",
"915 19 OFFCURVE",
"960 68 CURVE",
"914 117 LINE",
"882 82 OFFCURVE",
"812 55 OFFCURVE",
"751 55 CURVE SMOOTH",
"639 55 OFFCURVE",
"567 144 OFFCURVE",
"567 260 CURVE SMOOTH",
"567 380 OFFCURVE",
"645 462 OFFCURVE",
"748 462 CURVE SMOOTH",
"861 462 OFFCURVE",
"917 374 OFFCURVE",
"917 268 CURVE",
"960 297 LINE",
"541 297 LINE",
"541 230 LINE",
"990 230 LINE",
"990 411 OFFCURVE",
"901 529 OFFCURVE",
"745 529 CURVE SMOOTH",
"654 529 OFFCURVE",
"572 479 OFFCURVE",
"527 402 CURVE",
"480 478 OFFCURVE",
"397 529 OFFCURVE",
"302 529 CURVE SMOOTH",
"155 529 OFFCURVE",
"35 409 OFFCURVE",
"35 260 CURVE SMOOTH",
"35 111 OFFCURVE",
"155 -12 OFFCURVE",
"302 -12 CURVE SMOOTH"
);
},
{
closed = 1;
nodes = (
"198 55 OFFCURVE",
"113 148 OFFCURVE",
"113 260 CURVE SMOOTH",
"113 372 OFFCURVE",
"198 462 OFFCURVE",
"302 462 CURVE SMOOTH",
"405 462 OFFCURVE",
"490 372 OFFCURVE",
"490 260 CURVE SMOOTH",
"490 148 OFFCURVE",
"405 55 OFFCURVE",
"302 55 CURVE SMOOTH"
);
}
);
width = 1022;
},
{
anchors = (
{
name = bottom;
position = "{712, -12}";
},
{
name = top;
position = "{311, 517}";
}
);
layerId = "A0D976AB-773B-4D3A-9F7E-7A0C42AF1E7B";
paths = (
{
closed = 1;
nodes = (
"387 -12 OFFCURVE",
"456 15 OFFCURVE",
"507 60 CURVE",
"557 15 OFFCURVE",
"627 -12 OFFCURVE",
"707 -12 CURVE SMOOTH",
"786 -12 OFFCURVE",
"874 21 OFFCURVE",
"920 68 CURVE",
"814 175 LINE",
"780 148 OFFCURVE",
"738 132 OFFCURVE",
"699 132 CURVE SMOOTH",
"636 132 OFFCURVE",
"600 186 OFFCURVE",
"600 260 CURVE SMOOTH",
"600 334 OFFCURVE",
"636 385 OFFCURVE",
"699 385 CURVE SMOOTH",
"755 385 OFFCURVE",
"790 335 OFFCURVE",
"790 265 CURVE",
"837 314 LINE",
"580 314 LINE",
"580 213 LINE",
"968 213 LINE",
"968 412 OFFCURVE",
"865 529 OFFCURVE",
"699 529 CURVE SMOOTH",
"622 529 OFFCURVE",
"555 503 OFFCURVE",
"506 459 CURVE",
"455 503 OFFCURVE",
"386 529 OFFCURVE",
"311 529 CURVE SMOOTH",
"150 529 OFFCURVE",
"18 409 OFFCURVE",
"18 260 CURVE SMOOTH",
"18 111 OFFCURVE",
"150 -12 OFFCURVE",
"311 -12 CURVE SMOOTH"
);
},
{
closed = 1;
nodes = (
"250 148 OFFCURVE",
"200 199 OFFCURVE",
"200 260 CURVE SMOOTH",
"200 321 OFFCURVE",
"250 369 OFFCURVE",
"311 369 CURVE SMOOTH",
"372 369 OFFCURVE",
"421 321 OFFCURVE",
"421 260 CURVE SMOOTH",
"421 199 OFFCURVE",
"372 148 OFFCURVE",
"311 148 CURVE SMOOTH"
);
}
);
width = 982;
}
);
leftKerningGroup = o;
rightKerningGroup = e;
unicode = 0153;
},
{
color = 1;
glyphname = p;
lastChange = "2020-01-29 03:30:44 +0000";
layers = (
{
layerId = "35616FF6-3D9C-499B-B113-AC9E0DB5842A";
paths = (
{
closed = 1;
nodes = (
"458 -12 OFFCURVE",
"560 100 OFFCURVE",
"560 259 CURVE SMOOTH",
"560 417 OFFCURVE",
"458 529 OFFCURVE",
"322 529 CURVE SMOOTH",
"185 529 OFFCURVE",
"95 417 OFFCURVE",
"95 259 CURVE SMOOTH",
"95 100 OFFCURVE",
"185 -12 OFFCURVE",
"322 -12 CURVE SMOOTH"
);
},
{
closed = 1;
nodes = (
"206 55 OFFCURVE",
"134 140 OFFCURVE",
"134 259 CURVE SMOOTH",
"134 378 OFFCURVE",
"206 462 OFFCURVE",
"308 462 CURVE SMOOTH",
"409 462 OFFCURVE",
"481 378 OFFCURVE",
"481 259 CURVE SMOOTH",
"481 140 OFFCURVE",
"409 55 OFFCURVE",
"308 55 CURVE SMOOTH"
);
},
{
closed = 1;
nodes = (
"134 -172 LINE",
"134 517 LINE",
"59 517 LINE",
"59 -172 LINE"
);
}
);
width = 596;
},
{
layerId = "A0D976AB-773B-4D3A-9F7E-7A0C42AF1E7B";
paths = (
{
closed = 1;
nodes = (
"561 -12 OFFCURVE",
"659 100 OFFCURVE",
"659 259 CURVE SMOOTH",
"659 417 OFFCURVE",
"561 529 OFFCURVE",
"422 529 CURVE SMOOTH",
"286 529 OFFCURVE",
"189 417 OFFCURVE",
"189 259 CURVE SMOOTH",
"189 100 OFFCURVE",
"286 -12 OFFCURVE",
"422 -12 CURVE SMOOTH"
);
},
{
closed = 1;
nodes = (
"300 148 OFFCURVE",
"257 194 OFFCURVE",
"257 259 CURVE SMOOTH",
"257 323 OFFCURVE",
"300 369 OFFCURVE",
"361 369 CURVE SMOOTH",
"428 369 OFFCURVE",
"475 323 OFFCURVE",
"475 259 CURVE SMOOTH",
"475 194 OFFCURVE",
"428 148 OFFCURVE",
"361 148 CURVE SMOOTH"
);
},
{
closed = 1;
nodes = (
"257 -172 LINE",
"257 517 LINE",
"64 517 LINE",
"64 -172 LINE"
);
}
);
width = 682;
},
{
layerId = "3B040282-CF47-4846-BCAF-7BFF90FB63BC";
paths = (
{
closed = 1;
nodes = (
"434 -12 OFFCURVE",
"540 112 OFFCURVE",
"540 259 CURVE SMOOTH",
"540 406 OFFCURVE",
"434 529 OFFCURVE",
"308 529 CURVE SMOOTH",
"167 529 OFFCURVE",
"68 417 OFFCURVE",
"68 259 CURVE SMOOTH",
"68 100 OFFCURVE",
"167 -12 OFFCURVE",
"308 -12 CURVE SMOOTH"
);
},
{
closed = 1;
nodes = (
"186 24 OFFCURVE",
"104 121 OFFCURVE",
"104 259 CURVE SMOOTH",
"104 396 OFFCURVE",
"186 493 OFFCURVE",
"301 493 CURVE SMOOTH",
"411 493 OFFCURVE",
"504 386 OFFCURVE",
"504 259 CURVE SMOOTH",
"504 131 OFFCURVE",
"411 24 OFFCURVE",
"301 24 CURVE SMOOTH"
);
},
{
closed = 1;
nodes = (
"104 -172 LINE",
"104 517 LINE",
"68 517 LINE",
"68 -172 LINE"
);
}
);
width = 590;
},
{
associatedMasterId = "A0D976AB-773B-4D3A-9F7E-7A0C42AF1E7B";
layerId = "637EFAD7-F90C-40DD-A96C-616BDDBC1C76";
name = bubble;
paths = (
{
closed = 1;
nodes = (
"313 -172 LINE",
"313 -9 LINE",
"346 -25 OFFCURVE",
"382 -34 OFFCURVE",
"422 -34 CURVE SMOOTH",
"574 -34 OFFCURVE",
"682 88 OFFCURVE",
"682 259 CURVE SMOOTH",
"682 430 OFFCURVE",
"574 551 OFFCURVE",
"422 551 CURVE SMOOTH",
"375 551 OFFCURVE",
"333 539 OFFCURVE",
"296 517 CURVE",
"0 517 LINE",
"0 -172 LINE"
);
}
);
width = 682;
},
{
associatedMasterId = "35616FF6-3D9C-499B-B113-AC9E0DB5842A";
layerId = "B2D76748-9FED-4B2F-9D67-4F18130F7C54";
name = bubble;
paths = (
{
closed = 1;
nodes = (
"191 -172 LINE",
"191 -13 LINE",
"229 -36 OFFCURVE",
"273 -49 OFFCURVE",
"322 -49 CURVE SMOOTH",
"481 -49 OFFCURVE",
"596 82 OFFCURVE",
"596 259 CURVE SMOOTH",
"596 435 OFFCURVE",
"480 566 OFFCURVE",
"322 566 CURVE SMOOTH",
"264 566 OFFCURVE",
"213 549 OFFCURVE",
"171 517 CURVE",
"0 517 LINE",
"0 -172 LINE"
);
}
);
width = 596;
},
{
associatedMasterId = "3B040282-CF47-4846-BCAF-7BFF90FB63BC";
layerId = "230E5CAB-11A8-425E-BE86-10E26ABA837D";
name = bubble;
paths = (
{
closed = 1;
nodes = (
"172 -172 LINE",
"172 -28 LINE",
"212 -50 OFFCURVE",
"258 -62 OFFCURVE",
"308 -62 CURVE SMOOTH",
"462 -62 OFFCURVE",
"590 85 OFFCURVE",
"590 259 CURVE SMOOTH",
"590 433 OFFCURVE",
"463 579 OFFCURVE",
"308 579 CURVE SMOOTH",
"239 579 OFFCURVE",
"178 557 OFFCURVE",
"129 517 CURVE",
"0 517 LINE",
"0 -172 LINE"
);
}
);
width = 590;
}
);
leftKerningGroup = p;
rightKerningGroup = p;
unicode = 0070;
},
{
color = 1;
glyphname = thorn;
lastChange = "2019-05-05 05:48:15 +0000";
layers = (
{
anchors = (
{
name = _loop_right;
position = "{104, 259}";
},
{
name = loop_right;
position = "{104, 259}";
}
);
layerId = "3B040282-CF47-4846-BCAF-7BFF90FB63BC";
paths = (
{
closed = 1;
nodes = (
"434 -12 OFFCURVE",
"540 112 OFFCURVE",
"540 259 CURVE SMOOTH",
"540 406 OFFCURVE",
"434 529 OFFCURVE",
"308 529 CURVE SMOOTH",
"167 529 OFFCURVE",
"68 417 OFFCURVE",
"68 259 CURVE SMOOTH",
"68 100 OFFCURVE",
"167 -12 OFFCURVE",
"308 -12 CURVE SMOOTH"
);
},
{
closed = 1;
nodes = (
"186 24 OFFCURVE",
"104 121 OFFCURVE",
"104 259 CURVE SMOOTH",
"104 396 OFFCURVE",
"186 493 OFFCURVE",
"301 493 CURVE SMOOTH",
"411 493 OFFCURVE",
"504 386 OFFCURVE",
"504 259 CURVE SMOOTH",
"504 131 OFFCURVE",
"411 24 OFFCURVE",
"301 24 CURVE SMOOTH"
);
},
{
closed = 1;
nodes = (
"104 -172 LINE",
"104 699 LINE",
"68 699 LINE",
"68 -172 LINE"
);
}
);
width = 590;
},
{
anchors = (
{
name = _loop_right;
position = "{135, 259}";
},
{
name = loop_right;
position = "{135, 259}";
}
);
layerId = "35616FF6-3D9C-499B-B113-AC9E0DB5842A";
paths = (
{
closed = 1;
nodes = (
"459 -12 OFFCURVE",
"561 100 OFFCURVE",
"561 259 CURVE SMOOTH",
"561 417 OFFCURVE",
"459 529 OFFCURVE",
"323 529 CURVE SMOOTH",
"186 529 OFFCURVE",
"96 417 OFFCURVE",
"96 259 CURVE SMOOTH",
"96 100 OFFCURVE",
"186 -12 OFFCURVE",
"323 -12 CURVE SMOOTH"
);
},
{
closed = 1;
nodes = (
"207 55 OFFCURVE",
"135 140 OFFCURVE",
"135 259 CURVE SMOOTH",
"135 378 OFFCURVE",
"207 462 OFFCURVE",
"309 462 CURVE SMOOTH",
"410 462 OFFCURVE",
"482 378 OFFCURVE",
"482 259 CURVE SMOOTH",
"482 140 OFFCURVE",
"410 55 OFFCURVE",
"309 55 CURVE SMOOTH"
);
},
{
closed = 1;
nodes = (
"135 -172 LINE",
"135 699 LINE",
"60 699 LINE",
"60 -172 LINE"
);
}
);
width = 597;
},
{
anchors = (
{
name = _loop_right;
position = "{265, 259}";
},
{
name = loop_right;
position = "{265, 259}";
}
);
layerId = "A0D976AB-773B-4D3A-9F7E-7A0C42AF1E7B";
paths = (
{
closed = 1;
nodes = (
"569 -12 OFFCURVE",
"667 100 OFFCURVE",
"667 259 CURVE SMOOTH",
"667 417 OFFCURVE",
"569 529 OFFCURVE",
"430 529 CURVE SMOOTH",
"294 529 OFFCURVE",
"197 417 OFFCURVE",
"197 259 CURVE SMOOTH",
"197 100 OFFCURVE",
"294 -12 OFFCURVE",
"430 -12 CURVE SMOOTH"
);
},
{
closed = 1;
nodes = (
"308 148 OFFCURVE",
"265 194 OFFCURVE",
"265 259 CURVE SMOOTH",
"265 323 OFFCURVE",
"308 369 OFFCURVE",
"369 369 CURVE SMOOTH",
"436 369 OFFCURVE",
"483 323 OFFCURVE",
"483 259 CURVE SMOOTH",
"483 194 OFFCURVE",
"436 148 OFFCURVE",
"369 148 CURVE SMOOTH"
);
},
{
closed = 1;
nodes = (
"265 -172 LINE",
"265 699 LINE",
"72 699 LINE",
"72 -172 LINE"
);
}
);
width = 690;
}
);
leftKerningGroup = p;
rightKerningGroup = p;
unicode = 00FE;
},
{
color = 1;
glyphname = q;
lastChange = "2019-05-05 09:41:12 +0000";
layers = (
{
layerId = "35616FF6-3D9C-499B-B113-AC9E0DB5842A";
paths = (
{
closed = 1;
nodes = (
"538 -172 LINE",
"538 517 LINE",
"463 517 LINE",
"463 -172 LINE"
);
},
{
closed = 1;
nodes = (
"412 -12 OFFCURVE",
"502 100 OFFCURVE",
"502 259 CURVE SMOOTH",
"502 417 OFFCURVE",
"412 529 OFFCURVE",
"275 529 CURVE SMOOTH",
"139 529 OFFCURVE",
"37 417 OFFCURVE",
"37 259 CURVE SMOOTH",
"37 100 OFFCURVE",
"139 -12 OFFCURVE",
"275 -12 CURVE SMOOTH"
);
},
{
closed = 1;
nodes = (
"188 55 OFFCURVE",
"116 140 OFFCURVE",
"116 259 CURVE SMOOTH",
"116 378 OFFCURVE",
"188 462 OFFCURVE",
"289 462 CURVE SMOOTH",
"391 462 OFFCURVE",
"463 378 OFFCURVE",
"463 259 CURVE SMOOTH",
"463 140 OFFCURVE",
"391 55 OFFCURVE",
"289 55 CURVE SMOOTH"
);
}
);
width = 597;
},
{
layerId = "A0D976AB-773B-4D3A-9F7E-7A0C42AF1E7B";
paths = (
{
closed = 1;
nodes = (
"618 -172 LINE",
"618 517 LINE",
"425 517 LINE",
"425 -172 LINE"
);
},
{
closed = 1;
nodes = (
"396 -12 OFFCURVE",
"493 100 OFFCURVE",
"493 259 CURVE SMOOTH",
"493 417 OFFCURVE",
"396 529 OFFCURVE",
"260 529 CURVE SMOOTH",
"121 529 OFFCURVE",
"23 417 OFFCURVE",
"23 259 CURVE SMOOTH",
"23 100 OFFCURVE",
"121 -12 OFFCURVE",
"260 -12 CURVE SMOOTH"
);
},
{
closed = 1;
nodes = (
"254 148 OFFCURVE",
"207 194 OFFCURVE",
"207 259 CURVE SMOOTH",
"207 323 OFFCURVE",
"254 369 OFFCURVE",
"321 369 CURVE SMOOTH",
"382 369 OFFCURVE",
"425 323 OFFCURVE",
"425 259 CURVE SMOOTH",
"425 194 OFFCURVE",
"382 148 OFFCURVE",
"321 148 CURVE SMOOTH"
);
}
);
width = 682;
},
{
layerId = "3B040282-CF47-4846-BCAF-7BFF90FB63BC";
paths = (
{
closed = 1;
nodes = (
"522 -172 LINE",
"522 517 LINE",
"486 517 LINE",
"486 -172 LINE"
);
},
{
closed = 1;
nodes = (
"423 -12 OFFCURVE",
"522 100 OFFCURVE",
"522 259 CURVE SMOOTH",
"522 417 OFFCURVE",
"423 529 OFFCURVE",
"282 529 CURVE SMOOTH",
"156 529 OFFCURVE",
"50 406 OFFCURVE",
"50 259 CURVE SMOOTH",
"50 112 OFFCURVE",
"156 -12 OFFCURVE",
"282 -12 CURVE SMOOTH"
);
},
{
closed = 1;
nodes = (
"179 24 OFFCURVE",
"86 131 OFFCURVE",
"86 259 CURVE SMOOTH",
"86 386 OFFCURVE",
"179 493 OFFCURVE",
"289 493 CURVE SMOOTH",
"404 493 OFFCURVE",
"486 396 OFFCURVE",
"486 259 CURVE SMOOTH",
"486 121 OFFCURVE",
"404 24 OFFCURVE",
"289 24 CURVE SMOOTH"
);
}
);
width = 590;
},
{
associatedMasterId = "A0D976AB-773B-4D3A-9F7E-7A0C42AF1E7B";
layerId = "5C5DDA86-04EA-421D-8F43-773DDE88D600";
name = bubble;
paths = (
{
closed = 1;
nodes = (
"682 -172 LINE",
"682 517 LINE",
"386 517 LINE",
"349 539 OFFCURVE",
"307 551 OFFCURVE",
"260 551 CURVE SMOOTH",
"108 551 OFFCURVE",
"0 430 OFFCURVE",
"0 259 CURVE SMOOTH",
"0 88 OFFCURVE",
"108 -34 OFFCURVE",
"260 -34 CURVE SMOOTH",
"300 -34 OFFCURVE",
"336 -25 OFFCURVE",
"369 -9 CURVE",
"369 -172 LINE"
);
}
);
width = 682;
},
{
associatedMasterId = "35616FF6-3D9C-499B-B113-AC9E0DB5842A";
layerId = "16E8DC5B-95FA-48E5-9AED-51EB7ABF776F";
name = bubble;
paths = (
{
closed = 1;
nodes = (
"597 -172 LINE",
"597 517 LINE",
"426 517 LINE",
"384 549 OFFCURVE",
"333 566 OFFCURVE",
"275 566 CURVE SMOOTH",
"117 566 OFFCURVE",
"0 435 OFFCURVE",
"0 259 CURVE SMOOTH",
"0 82 OFFCURVE",
"116 -49 OFFCURVE",
"275 -49 CURVE SMOOTH",
"324 -49 OFFCURVE",
"368 -36 OFFCURVE",
"406 -13 CURVE",
"406 -172 LINE"
);
}
);
width = 597;
},
{
associatedMasterId = "3B040282-CF47-4846-BCAF-7BFF90FB63BC";
layerId = "D6B5B11C-4AC4-4389-B733-C406C0495813";
name = bubble;
paths = (
{
closed = 1;
nodes = (
"590 -172 LINE",
"590 517 LINE",
"461 517 LINE",
"412 557 OFFCURVE",
"351 579 OFFCURVE",
"282 579 CURVE SMOOTH",
"127 579 OFFCURVE",
"0 433 OFFCURVE",
"0 259 CURVE SMOOTH",
"0 85 OFFCURVE",
"128 -62 OFFCURVE",
"282 -62 CURVE SMOOTH",
"332 -62 OFFCURVE",
"378 -50 OFFCURVE",
"418 -28 CURVE",
"418 -172 LINE"
);
}
);
width = 590;
}
);
leftKerningGroup = q;
rightKerningGroup = q;
unicode = 0071;
},
{
color = 1;
glyphname = r;
lastChange = "2019-05-05 05:38:28 +0000";
layers = (
{
anchors = (
{
name = bottom;
position = "{189, 0}";
},
{
name = top;
position = "{189, 517}";
}
);
layerId = "35616FF6-3D9C-499B-B113-AC9E0DB5842A";
paths = (
{
closed = 1;
nodes = (
"132 390 OFFCURVE",
"215 462 OFFCURVE",
"332 462 CURVE",
"332 529 LINE",
"205 529 OFFCURVE",
"116 450 OFFCURVE",
"116 339 CURVE",
"132 289 LINE"
);
},
{
closed = 1;
nodes = (
"132 0 LINE",
"132 517 LINE",
"57 517 LINE",
"57 0 LINE"
);
}
);
width = 362;
},
{
anchors = (
{
name = bottom;
position = "{225, 0}";
},
{
name = top;
position = "{225, 517}";
}
);
layerId = "A0D976AB-773B-4D3A-9F7E-7A0C42AF1E7B";
paths = (
{
closed = 1;
nodes = (
"249 313 OFFCURVE",
"309 369 OFFCURVE",
"411 369 CURVE",
"411 529 LINE",
"297 529 OFFCURVE",
"216 425 OFFCURVE",
"216 279 CURVE",
"249 219 LINE"
);
},
{
closed = 1;
nodes = (
"249 0 LINE",
"249 517 LINE",
"56 517 LINE",
"56 0 LINE"
);
}
);
width = 427;
},
{
anchors = (
{
name = bottom;
position = "{170, 0}";
},
{
name = top;
position = "{170, 517}";
}
);
layerId = "3B040282-CF47-4846-BCAF-7BFF90FB63BC";
paths = (
{
closed = 1;
nodes = (
"104 408 OFFCURVE",
"187 493 OFFCURVE",
"304 493 CURVE",
"304 529 LINE",
"192 529 OFFCURVE",
"98 451 OFFCURVE",
"98 359 CURVE",
"104 289 LINE"
);
},
{
closed = 1;
nodes = (
"104 0 LINE",
"104 517 LINE",
"68 517 LINE",
"68 0 LINE"
);
}
);
width = 349;
}
);
leftKerningGroup = r;
rightKerningGroup = r;
unicode = 0072;
},
{
color = 1;
glyphname = s;
lastChange = "2019-05-05 05:38:09 +0000";
layers = (
{
anchors = (
{
name = bottom;
position = "{232, 0}";
},
{
name = top;
position = "{235, 517}";
}
);
layerId = "35616FF6-3D9C-499B-B113-AC9E0DB5842A";
paths = (
{
closed = 1;
nodes = (
"350 -12 OFFCURVE",
"432 49 OFFCURVE",
"432 144 CURVE SMOOTH",
"432 242 OFFCURVE",
"346 270 OFFCURVE",
"263 296 CURVE SMOOTH",
"167 327 OFFCURVE",
"129 341 OFFCURVE",
"129 386 CURVE SMOOTH",
"129 436 OFFCURVE",
"177 462 OFFCURVE",
"235 462 CURVE SMOOTH",
"281 462 OFFCURVE",
"332 446 OFFCURVE",
"384 413 CURVE",
"420 471 LINE",
"365 507 OFFCURVE",
"299 529 OFFCURVE",
"235 529 CURVE SMOOTH",
"132 529 OFFCURVE",
"54 471 OFFCURVE",
"54 377 CURVE SMOOTH",
"54 303 OFFCURVE",
"102 266 OFFCURVE",
"227 230 CURVE SMOOTH",
"297 210 OFFCURVE",
"357 192 OFFCURVE",
"357 136 CURVE SMOOTH",
"357 87 OFFCURVE",
"311 55 OFFCURVE",
"243 55 CURVE SMOOTH",
"186 55 OFFCURVE",
"127 77 OFFCURVE",
"68 120 CURVE",
"29 65 LINE",
"91 15 OFFCURVE",
"171 -12 OFFCURVE",
"243 -12 CURVE SMOOTH"
);
}
);
width = 465;
},
{
anchors = (
{
name = bottom;
position = "{256, 0}";
},
{
name = top;
position = "{255, 517}";
}
);
layerId = "A0D976AB-773B-4D3A-9F7E-7A0C42AF1E7B";
paths = (
{
closed = 1;
nodes = (
"402 -12 OFFCURVE",
"487 56 OFFCURVE",
"487 163 CURVE SMOOTH",
"487 285 OFFCURVE",
"379 316 OFFCURVE",
"285 337 CURVE SMOOTH",
"233 349 OFFCURVE",
"210 352 OFFCURVE",
"210 369 CURVE SMOOTH",
"210 384 OFFCURVE",
"228 398 OFFCURVE",
"255 398 CURVE SMOOTH",
"304 398 OFFCURVE",
"363 371 OFFCURVE",
"406 343 CURVE",
"471 461 LINE",
"412 500 OFFCURVE",
"335 529 OFFCURVE",
"255 529 CURVE SMOOTH",
"120 529 OFFCURVE",
"39 451 OFFCURVE",
"39 351 CURVE SMOOTH",
"39 229 OFFCURVE",
"144 206 OFFCURVE",
"238 186 CURVE SMOOTH",
"286 176 OFFCURVE",
"316 166 OFFCURVE",
"316 148 CURVE SMOOTH",
"316 131 OFFCURVE",
"303 122 OFFCURVE",
"267 122 CURVE SMOOTH",
"212 122 OFFCURVE",
"138 148 OFFCURVE",
"88 183 CURVE",
"16 66 LINE",
"79 17 OFFCURVE",
"172 -12 OFFCURVE",
"262 -12 CURVE SMOOTH"
);
}
);
width = 508;
},
{
anchors = (
{
name = bottom;
position = "{247, 0}";
},
{
name = top;
position = "{251, 517}";
}
);
layerId = "3B040282-CF47-4846-BCAF-7BFF90FB63BC";
paths = (
{
closed = 1;
nodes = (
"355 -12 OFFCURVE",
"437 50 OFFCURVE",
"437 124 CURVE SMOOTH",
"437 197 OFFCURVE",
"389 241 OFFCURVE",
"269 279 CURVE SMOOTH",
"159 314 OFFCURVE",
"115 349 OFFCURVE",
"115 401 CURVE SMOOTH",
"115 451 OFFCURVE",
"177 493 OFFCURVE",
"250 493 CURVE SMOOTH",
"303 493 OFFCURVE",
"363 474 OFFCURVE",
"413 443 CURVE",
"435 471 LINE",
"379 507 OFFCURVE",
"311 529 OFFCURVE",
"250 529 CURVE SMOOTH",
"157 529 OFFCURVE",
"79 469 OFFCURVE",
"79 397 CURVE SMOOTH",
"79 328 OFFCURVE",
"128 285 OFFCURVE",
"251 247 CURVE SMOOTH",
"358 214 OFFCURVE",
"401 178 OFFCURVE",
"401 120 CURVE SMOOTH",
"401 68 OFFCURVE",
"336 24 OFFCURVE",
"258 24 CURVE SMOOTH",
"197 24 OFFCURVE",
"126 50 OFFCURVE",
"66 93 CURVE",
"44 65 LINE",
"104 17 OFFCURVE",
"184 -12 OFFCURVE",
"258 -12 CURVE SMOOTH"
);
}
);
width = 485;
}
);
leftKerningGroup = s;
rightKerningGroup = s;
unicode = 0073;
},
{
color = 1;
glyphname = germandbls;
lastChange = "2019-05-05 05:48:16 +0000";
layers = (
{
layerId = "35616FF6-3D9C-499B-B113-AC9E0DB5842A";
paths = (
{
closed = 1;
nodes = (
"137 0 LINE",
"137 513 LINE SMOOTH",
"137 585 OFFCURVE",
"191 636 OFFCURVE",
"267 636 CURVE SMOOTH",
"343 636 OFFCURVE",
"397 586 OFFCURVE",
"397 516 CURVE SMOOTH",
"397 452 OFFCURVE",
"343 396 OFFCURVE",
"267 396 CURVE SMOOTH",
"212 396 LINE",
"212 325 LINE",
"279 325 LINE SMOOTH",
"364 325 OFFCURVE",
"424 272 OFFCURVE",
"424 198 CURVE SMOOTH",
"424 124 OFFCURVE",
"364 71 OFFCURVE",
"279 71 CURVE SMOOTH",
"212 71 LINE",
"212 0 LINE",
"299 0 LINE SMOOTH",
"418 0 OFFCURVE",
"503 78 OFFCURVE",
"503 188 CURVE SMOOTH",
"503 274 OFFCURVE",
"463 331 OFFCURVE",
"378 365 CURVE",
"444 395 OFFCURVE",
"476 447 OFFCURVE",
"476 526 CURVE SMOOTH",
"476 632 OFFCURVE",
"390 707 OFFCURVE",
"268 707 CURVE SMOOTH",
"146 707 OFFCURVE",
"59 632 OFFCURVE",
"59 526 CURVE SMOOTH",
"59 0 LINE"
);
}
);
width = 538;
},
{
layerId = "A0D976AB-773B-4D3A-9F7E-7A0C42AF1E7B";
paths = (
{
closed = 1;
nodes = (
"255 0 LINE",
"255 463 LINE SMOOTH",
"255 502 OFFCURVE",
"285 524 OFFCURVE",
"325 524 CURVE SMOOTH",
"368 524 OFFCURVE",
"394 502 OFFCURVE",
"394 472 CURVE SMOOTH",
"394 442 OFFCURVE",
"365 420 OFFCURVE",
"325 420 CURVE SMOOTH",
"324 420 LINE",
"324 273 LINE",
"354 273 LINE SMOOTH",
"396 273 OFFCURVE",
"426 250 OFFCURVE",
"426 218 CURVE SMOOTH",
"426 186 OFFCURVE",
"396 163 OFFCURVE",
"354 163 CURVE SMOOTH",
"324 163 LINE",
"324 0 LINE",
"386 0 LINE SMOOTH",
"526 0 OFFCURVE",
"626 75 OFFCURVE",
"626 185 CURVE SMOOTH",
"626 271 OFFCURVE",
"583 335 OFFCURVE",
"509 360 CURVE",
"563 380 OFFCURVE",
"594 436 OFFCURVE",
"594 514 CURVE SMOOTH",
"594 637 OFFCURVE",
"484 724 OFFCURVE",
"328 724 CURVE SMOOTH",
"172 724 OFFCURVE",
"62 637 OFFCURVE",
"62 514 CURVE SMOOTH",
"62 0 LINE"
);
}
);
width = 653;
},
{
layerId = "3B040282-CF47-4846-BCAF-7BFF90FB63BC";
paths = (
{
closed = 1;
nodes = (
"104 0 LINE",
"104 517 LINE SMOOTH",
"104 601 OFFCURVE",
"173 671 OFFCURVE",
"256 671 CURVE SMOOTH",
"338 671 OFFCURVE",
"407 602 OFFCURVE",
"407 519 CURVE SMOOTH",
"407 437 OFFCURVE",
"345 379 OFFCURVE",
"258 379 CURVE SMOOTH",
"190 379 LINE",
"190 343 LINE",
"264 343 LINE SMOOTH",
"364 343 OFFCURVE",
"434 282 OFFCURVE",
"434 196 CURVE SMOOTH",
"434 109 OFFCURVE",
"358 36 OFFCURVE",
"267 36 CURVE SMOOTH",
"190 36 LINE",
"190 0 LINE",
"287 0 LINE SMOOTH",
"386 0 OFFCURVE",
"470 87 OFFCURVE",
"470 191 CURVE SMOOTH",
"470 264 OFFCURVE",
"423 336 OFFCURVE",
"356 365 CURVE",
"407 389 OFFCURVE",
"443 455 OFFCURVE",
"443 524 CURVE SMOOTH",
"443 623 OFFCURVE",
"358 707 OFFCURVE",
"256 707 CURVE SMOOTH",
"154 707 OFFCURVE",
"68 623 OFFCURVE",
"68 523 CURVE SMOOTH",
"68 0 LINE"
);
}
);
width = 519;
}
);
leftKerningGroup = germandbls;
rightKerningGroup = germandbls;
unicode = 00DF;
},
{
color = 1;
glyphname = t;
lastChange = "2019-05-05 05:48:16 +0000";
layers = (
{
anchors = (
{
name = bottom;
position = "{239, 0}";
}
);
layerId = "35616FF6-3D9C-499B-B113-AC9E0DB5842A";
paths = (
{
closed = 1;
nodes = (
"272 -12 OFFCURVE",
"306 0 OFFCURVE",
"333 21 CURVE",
"296 76 LINE",
"285 64 OFFCURVE",
"265 55 OFFCURVE",
"242 55 CURVE SMOOTH",
"212 55 OFFCURVE",
"186 82 OFFCURVE",
"186 120 CURVE SMOOTH",
"186 659 LINE",
"111 659 LINE",
"111 120 LINE SMOOTH",
"111 43 OFFCURVE",
"163 -12 OFFCURVE",
"237 -12 CURVE SMOOTH"
);
},
{
closed = 1;
nodes = (
"313 450 LINE",
"313 517 LINE",
"30 517 LINE",
"30 450 LINE"
);
}
);
width = 362;
},
{
anchors = (
{
name = bottom;
position = "{262, 0}";
}
);
layerId = "A0D976AB-773B-4D3A-9F7E-7A0C42AF1E7B";
paths = (
{
closed = 1;
nodes = (
"306 -12 OFFCURVE",
"361 10 OFFCURVE",
"393 41 CURVE",
"360 163 LINE",
"350 154 OFFCURVE",
"331 148 OFFCURVE",
"313 148 CURVE SMOOTH",
"287 148 OFFCURVE",
"269 170 OFFCURVE",
"269 201 CURVE SMOOTH",
"269 659 LINE",
"85 659 LINE",
"85 163 LINE SMOOTH",
"85 60 OFFCURVE",
"157 -12 OFFCURVE",
"260 -12 CURVE SMOOTH"
);
},
{
closed = 1;
nodes = (
"371 365 LINE",
"371 517 LINE",
"20 517 LINE",
"20 365 LINE"
);
}
);
width = 417;
},
{
anchors = (
{
name = bottom;
position = "{243, 0}";
}
);
layerId = "3B040282-CF47-4846-BCAF-7BFF90FB63BC";
paths = (
{
closed = 1;
nodes = (
"276 -12 OFFCURVE",
"311 0 OFFCURVE",
"338 21 CURVE",
"318 50 LINE",
"297 34 OFFCURVE",
"270 24 OFFCURVE",
"244 24 CURVE SMOOTH",
"202 24 OFFCURVE",
"172 64 OFFCURVE",
"172 120 CURVE SMOOTH",
"172 659 LINE",
"136 659 LINE",
"136 120 LINE SMOOTH",
"136 43 OFFCURVE",
"180 -12 OFFCURVE",
"242 -12 CURVE SMOOTH"
);
},
{
closed = 1;
nodes = (
"308 481 LINE",
"308 517 LINE",
"45 517 LINE",
"45 481 LINE"
);
}
);
width = 382;
}
);
leftKerningGroup = t;
rightKerningGroup = t;
unicode = 0074;
},
{
color = 1;
glyphname = u;
lastChange = "2019-05-05 05:48:15 +0000";
layers = (
{
anchors = (
{
name = bottom;
position = "{489, 0}";
},
{
name = top;
position = "{262, 517}";
}
);
layerId = "35616FF6-3D9C-499B-B113-AC9E0DB5842A";
paths = (
{
closed = 1;
nodes = (
"341 -12 OFFCURVE",
"425 55 OFFCURVE",
"430 138 CURVE",
"414 188 LINE",
"414 115 OFFCURVE",
"342 55 OFFCURVE",
"254 55 CURVE SMOOTH",
"178 55 OFFCURVE",
"125 113 OFFCURVE",
"125 198 CURVE SMOOTH",
"125 517 LINE",
"50 517 LINE",
"50 188 LINE SMOOTH",
"50 69 OFFCURVE",
"129 -12 OFFCURVE",
"244 -12 CURVE SMOOTH"
);
},
{
closed = 1;
nodes = (
"489 0 LINE",
"489 517 LINE",
"414 517 LINE",
"414 0 LINE"
);
}
);
width = 546;
},
{
anchors = (
{
name = bottom;
position = "{573, 0}";
},
{
name = top;
position = "{303, 517}";
}
);
layerId = "A0D976AB-773B-4D3A-9F7E-7A0C42AF1E7B";
paths = (
{
closed = 1;
nodes = (
"333 -12 OFFCURVE",
"407 50 OFFCURVE",
"412 138 CURVE",
"380 227 LINE",
"380 181 OFFCURVE",
"349 148 OFFCURVE",
"306 148 CURVE SMOOTH",
"260 148 OFFCURVE",
"228 183 OFFCURVE",
"228 233 CURVE SMOOTH",
"228 517 LINE",
"44 517 LINE",
"44 188 LINE SMOOTH",
"44 71 OFFCURVE",
"123 -12 OFFCURVE",
"234 -12 CURVE SMOOTH"
);
},
{
closed = 1;
nodes = (
"573 0 LINE",
"573 517 LINE",
"380 517 LINE",
"380 0 LINE"
);
}
);
width = 628;
},
{
anchors = (
{
name = bottom;
position = "{461, 0}";
},
{
name = top;
position = "{256, 517}";
}
);
layerId = "3B040282-CF47-4846-BCAF-7BFF90FB63BC";
paths = (
{
closed = 1;
nodes = (
"362 -12 OFFCURVE",
"438 58 OFFCURVE",
"438 157 CURVE",
"425 187 LINE",
"425 92 OFFCURVE",
"357 24 OFFCURVE",
"260 24 CURVE SMOOTH",
"165 24 OFFCURVE",
"98 90 OFFCURVE",
"98 183 CURVE SMOOTH",
"98 517 LINE",
"62 517 LINE",
"62 178 LINE SMOOTH",
"62 67 OFFCURVE",
"142 -12 OFFCURVE",
"255 -12 CURVE SMOOTH"
);
},
{
closed = 1;
nodes = (
"461 0 LINE",
"461 517 LINE",
"425 517 LINE",
"425 0 LINE"
);
}
);
width = 529;
}
);
leftKerningGroup = u;
rightKerningGroup = u;
unicode = 0075;
},
{
color = 1;
glyphname = v;
lastChange = "2019-05-05 05:48:16 +0000";
layers = (
{
layerId = "35616FF6-3D9C-499B-B113-AC9E0DB5842A";
paths = (
{
closed = 1;
nodes = (
"320 0 LINE",
"537 517 LINE",
"453 517 LINE",
"284 88 LINE",
"112 517 LINE",
"28 517 LINE",
"248 0 LINE"
);
}
);
width = 565;
},
{
layerId = "A0D976AB-773B-4D3A-9F7E-7A0C42AF1E7B";
paths = (
{
closed = 1;
nodes = (
"409 0 LINE",
"632 517 LINE",
"434 517 LINE",
"320 221 LINE",
"203 517 LINE",
"5 517 LINE",
"231 0 LINE"
);
}
);
width = 637;
},
{
layerId = "3B040282-CF47-4846-BCAF-7BFF90FB63BC";
paths = (
{
closed = 1;
nodes = (
"303 0 LINE",
"540 517 LINE",
"501 517 LINE",
"292 61 LINE",
"83 517 LINE",
"44 517 LINE",
"281 0 LINE"
);
}
);
width = 584;
}
);
leftKerningGroup = v;
rightKerningGroup = v;
unicode = 0076;
},
{
color = 1;
glyphname = w;
lastChange = "2019-05-05 05:48:16 +0000";
layers = (
{
anchors = (
{
name = top;
position = "{412, 517}";
}
);
layerId = "35616FF6-3D9C-499B-B113-AC9E0DB5842A";
paths = (
{
closed = 1;
nodes = (
"273 0 LINE",
"412 413 LINE",
"549 0 LINE",
"620 0 LINE",
"794 517 LINE",
"714 517 LINE",
"585 100 LINE",
"444 517 LINE",
"379 517 LINE",
"238 100 LINE",
"109 517 LINE",
"29 517 LINE",
"202 0 LINE"
);
}
);
width = 823;
},
{
anchors = (
{
name = top;
position = "{425, 517}";
}
);
layerId = "A0D976AB-773B-4D3A-9F7E-7A0C42AF1E7B";
paths = (
{
closed = 1;
nodes = (
"357 0 LINE",
"425 266 LINE",
"495 0 LINE",
"666 0 LINE",
"842 517 LINE",
"657 517 LINE",
"581 259 LINE",
"504 517 LINE",
"346 517 LINE",
"270 259 LINE",
"193 517 LINE",
"8 517 LINE",
"186 0 LINE"
);
}
);
width = 850;
},
{
anchors = (
{
name = top;
position = "{407, 517}";
}
);
layerId = "3B040282-CF47-4846-BCAF-7BFF90FB63BC";
paths = (
{
closed = 1;
nodes = (
"259 0 LINE",
"407 450 LINE",
"555 0 LINE",
"600 0 LINE",
"770 517 LINE",
"733 517 LINE",
"578 48 LINE",
"423 517 LINE",
"392 517 LINE",
"237 48 LINE",
"82 517 LINE",
"45 517 LINE",
"214 0 LINE"
);
}
);
width = 815;
}
);
leftKerningGroup = w;
rightKerningGroup = w;
unicode = 0077;
},
{
color = 1;
glyphname = x;
lastChange = "2019-05-05 05:38:09 +0000";
layers = (
{
layerId = "35616FF6-3D9C-499B-B113-AC9E0DB5842A";
paths = (
{
closed = 1;
nodes = (
"515 0 LINE",
"124 517 LINE",
"36 517 LINE",
"427 0 LINE"
);
},
{
closed = 1;
nodes = (
"116 0 LINE",
"507 517 LINE",
"419 517 LINE",
"28 0 LINE"
);
}
);
width = 543;
},
{
layerId = "A0D976AB-773B-4D3A-9F7E-7A0C42AF1E7B";
paths = (
{
closed = 1;
nodes = (
"579 0 LINE",
"222 517 LINE",
"18 517 LINE",
"375 0 LINE"
);
},
{
closed = 1;
nodes = (
"208 0 LINE",
"569 517 LINE",
"370 517 LINE",
"9 0 LINE"
);
}
);
width = 588;
},
{
layerId = "3B040282-CF47-4846-BCAF-7BFF90FB63BC";
paths = (
{
closed = 1;
nodes = (
"487 0 LINE",
"96 517 LINE",
"52 517 LINE",
"443 0 LINE"
);
},
{
closed = 1;
nodes = (
"88 0 LINE",
"479 517 LINE",
"435 517 LINE",
"44 0 LINE"
);
}
);
width = 531;
}
);
leftKerningGroup = x;
rightKerningGroup = x;
unicode = 0078;
},
{
color = 1;
glyphname = y;
lastChange = "2019-05-05 05:48:16 +0000";
layers = (
{
anchors = (
{
name = top;
position = "{292, 517}";
}
);
layerId = "35616FF6-3D9C-499B-B113-AC9E0DB5842A";
paths = (
{
closed = 1;
nodes = (
"222 -179 OFFCURVE",
"272 -146 OFFCURVE",
"308 -58 CURVE SMOOTH",
"544 517 LINE",
"463 517 LINE",
"292 87 LINE",
"111 517 LINE",
"28 517 LINE",
"253 -2 LINE",
"223 -66 LINE",
"203 -101 OFFCURVE",
"181 -112 OFFCURVE",
"148 -112 CURVE SMOOTH",
"126 -112 OFFCURVE",
"105 -108 OFFCURVE",
"87 -99 CURVE",
"69 -163 LINE",
"93 -174 OFFCURVE",
"121 -180 OFFCURVE",
"151 -180 CURVE SMOOTH"
);
}
);
width = 572;
},
{
anchors = (
{
name = top;
position = "{312, 517}";
}
);
layerId = "A0D976AB-773B-4D3A-9F7E-7A0C42AF1E7B";
paths = (
{
closed = 1;
nodes = (
"293 -180 OFFCURVE",
"369 -115 OFFCURVE",
"411 -4 CURVE SMOOTH",
"606 517 LINE",
"412 517 LINE",
"312 198 LINE",
"206 517 LINE",
"9 517 LINE",
"218 -7 LINE",
"215 -14 LINE",
"204 -31 OFFCURVE",
"179 -43 OFFCURVE",
"156 -43 CURVE SMOOTH",
"142 -43 OFFCURVE",
"112 -31 OFFCURVE",
"83 -14 CURVE",
"44 -138 LINE",
"86 -163 OFFCURVE",
"153 -180 OFFCURVE",
"205 -180 CURVE SMOOTH"
);
}
);
width = 612;
},
{
anchors = (
{
name = top;
position = "{293, 517}";
}
);
layerId = "3B040282-CF47-4846-BCAF-7BFF90FB63BC";
paths = (
{
closed = 1;
nodes = (
"214 -179 OFFCURVE",
"263 -145 OFFCURVE",
"291 -76 CURVE SMOOTH",
"534 517 LINE",
"495 517 LINE",
"293 25 LINE",
"83 517 LINE",
"44 517 LINE",
"274 -21 LINE",
"243 -94 LINE",
"225 -125 OFFCURVE",
"187 -144 OFFCURVE",
"141 -144 CURVE SMOOTH",
"118 -144 OFFCURVE",
"92 -137 OFFCURVE",
"69 -126 CURVE",
"59 -163 LINE",
"82 -174 OFFCURVE",
"113 -180 OFFCURVE",
"141 -180 CURVE SMOOTH"
);
}
);
width = 578;
}
);
leftKerningGroup = y;
rightKerningGroup = y;
unicode = 0079;
},
{
color = 1;
glyphname = z;
lastChange = "2019-05-05 05:48:16 +0000";
layers = (
{
anchors = (
{
name = top;
position = "{245, 517}";
}
);
layerId = "35616FF6-3D9C-499B-B113-AC9E0DB5842A";
paths = (
{
closed = 1;
nodes = (
"443 0 LINE",
"443 71 LINE",
"135 71 LINE",
"441 458 LINE",
"441 517 LINE",
"41 517 LINE",
"41 446 LINE",
"340 446 LINE",
"35 59 LINE",
"35 0 LINE"
);
}
);
width = 479;
},
{
anchors = (
{
name = top;
position = "{283, 517}";
}
);
layerId = "A0D976AB-773B-4D3A-9F7E-7A0C42AF1E7B";
paths = (
{
closed = 1;
nodes = (
"518 0 LINE",
"518 160 LINE",
"286 160 LINE",
"515 384 LINE",
"516 517 LINE",
"44 517 LINE",
"44 357 LINE",
"266 357 LINE",
"37 133 LINE",
"37 0 LINE"
);
}
);
width = 557;
},
{
anchors = (
{
name = top;
position = "{252, 517}";
}
);
layerId = "3B040282-CF47-4846-BCAF-7BFF90FB63BC";
paths = (
{
closed = 1;
nodes = (
"455 0 LINE",
"455 36 LINE",
"94 36 LINE",
"453 487 LINE",
"453 517 LINE",
"53 517 LINE",
"53 481 LINE",
"406 481 LINE",
"47 30 LINE",
"47 0 LINE"
);
}
);
width = 502;
}
);
leftKerningGroup = z;
rightKerningGroup = z;
unicode = 007A;
},
{
color = 1;
glyphname = a.alt;
lastChange = "2019-05-05 05:48:16 +0000";
layers = (
{
anchors = (
{
name = _loop_left;
position = "{463, 259}";
},
{
name = bottom;
position = "{538, 0}";
},
{
name = loop_left;
position = "{463, 259}";
},
{
name = r_shoulder;
position = "{538, 291}";
},
{
name = shoulder;
position = "{538, 329}";
},
{
name = top;
position = "{311, 517}";
}
);
layerId = "35616FF6-3D9C-499B-B113-AC9E0DB5842A";
paths = (
{
closed = 1;
nodes = (
"538 0 LINE",
"538 517 LINE",
"463 517 LINE",
"463 0 LINE"
);
},
{
closed = 1;
nodes = (
"409 -12 OFFCURVE",
"502 99 OFFCURVE",
"502 259 CURVE SMOOTH",
"502 418 OFFCURVE",
"409 529 OFFCURVE",
"275 529 CURVE SMOOTH",
"135 529 OFFCURVE",
"37 418 OFFCURVE",
"37 259 CURVE SMOOTH",
"37 99 OFFCURVE",
"135 -12 OFFCURVE",
"275 -12 CURVE SMOOTH"
);
},
{
closed = 1;
nodes = (
"187 55 OFFCURVE",
"116 139 OFFCURVE",
"116 259 CURVE SMOOTH",
"116 378 OFFCURVE",
"186 462 OFFCURVE",
"289 462 CURVE SMOOTH",
"391 462 OFFCURVE",
"463 378 OFFCURVE",
"463 259 CURVE SMOOTH",
"463 139 OFFCURVE",
"391 55 OFFCURVE",
"289 55 CURVE SMOOTH"
);
}
);
width = 595;
},
{
anchors = (
{
name = _loop_left;
position = "{425, 259}";
},
{
name = bottom;
position = "{618, 0}";
},
{
name = loop_left;
position = "{425, 259}";
},
{
name = r_shoulder;
position = "{618, 219}";
},
{
name = shoulder;
position = "{618, 290}";
},
{
name = top;
position = "{340, 517}";
}
);
layerId = "A0D976AB-773B-4D3A-9F7E-7A0C42AF1E7B";
paths = (
{
closed = 1;
nodes = (
"618 0 LINE",
"618 517 LINE",
"425 517 LINE",
"425 0 LINE"
);
},
{
closed = 1;
nodes = (
"397 -12 OFFCURVE",
"493 99 OFFCURVE",
"493 259 CURVE SMOOTH",
"493 418 OFFCURVE",
"397 529 OFFCURVE",
"260 529 CURVE SMOOTH",
"121 529 OFFCURVE",
"23 418 OFFCURVE",
"23 259 CURVE SMOOTH",
"23 99 OFFCURVE",
"121 -12 OFFCURVE",
"260 -12 CURVE SMOOTH"
);
},
{
closed = 1;
nodes = (
"254 148 OFFCURVE",
"207 194 OFFCURVE",
"207 259 CURVE SMOOTH",
"207 324 OFFCURVE",
"254 369 OFFCURVE",
"321 369 CURVE SMOOTH",
"382 369 OFFCURVE",
"425 324 OFFCURVE",
"425 259 CURVE SMOOTH",
"425 194 OFFCURVE",
"382 148 OFFCURVE",
"321 148 CURVE SMOOTH"
);
}
);
width = 673;
},
{
anchors = (
{
name = _loop_left;
position = "{487, 259}";
},
{
name = bottom;
position = "{523, 0}";
},
{
name = loop_left;
position = "{487, 259}";
},
{
name = r_shoulder;
position = "{523, 289}";
},
{
name = shoulder;
position = "{523, 330}";
},
{
name = top;
position = "{287, 517}";
}
);
layerId = "3B040282-CF47-4846-BCAF-7BFF90FB63BC";
paths = (
{
closed = 1;
nodes = (
"523 0 LINE",
"523 517 LINE",
"487 517 LINE",
"487 0 LINE"
);
},
{
closed = 1;
nodes = (
"418 -12 OFFCURVE",
"513 99 OFFCURVE",
"513 259 CURVE SMOOTH",
"513 418 OFFCURVE",
"418 529 OFFCURVE",
"283 529 CURVE SMOOTH",
"146 529 OFFCURVE",
"51 418 OFFCURVE",
"51 259 CURVE SMOOTH",
"51 99 OFFCURVE",
"146 -12 OFFCURVE",
"283 -12 CURVE SMOOTH"
);
},
{
closed = 1;
nodes = (
"171 24 OFFCURVE",
"87 121 OFFCURVE",
"87 259 CURVE SMOOTH",
"87 397 OFFCURVE",
"171 493 OFFCURVE",
"290 493 CURVE SMOOTH",
"406 493 OFFCURVE",
"487 397 OFFCURVE",
"487 259 CURVE SMOOTH",
"487 121 OFFCURVE",
"406 24 OFFCURVE",
"290 24 CURVE SMOOTH"
);
}
);
width = 591;
}
);
leftKerningGroup = a.alt;
rightKerningGroup = a.alt;
},
{
export = 0;
glyphname = ae_upper;
lastChange = "2019-03-30 05:19:15 +0000";
layers = (
{
anchors = (
{
name = _ae_upper;
position = "{408, 687}";
}
);
layerId = "3B040282-CF47-4846-BCAF-7BFF90FB63BC";
paths = (
{
closed = 1;
nodes = (
"33 0 LINE",
"429 687 LINE",
"388 687 LINE",
"-9 0 LINE"
);
},
{
closed = 1;
nodes = (
"430 175 LINE",
"430 211 LINE",
"121 211 LINE",
"121 175 LINE"
);
}
);
width = 436;
},
{
anchors = (
{
name = _ae_upper;
position = "{448, 687}";
}
);
layerId = "35616FF6-3D9C-499B-B113-AC9E0DB5842A";
paths = (
{
closed = 1;
nodes = (
"94 0 LINE",
"491 687 LINE",
"400 687 LINE",
"4 0 LINE"
);
},
{
closed = 1;
nodes = (
"469 156 LINE",
"469 230 LINE",
"150 230 LINE",
"150 156 LINE"
);
}
);
width = 489;
},
{
anchors = (
{
name = _ae_upper;
position = "{532, 687}";
}
);
layerId = "A0D976AB-773B-4D3A-9F7E-7A0C42AF1E7B";
paths = (
{
closed = 1;
nodes = (
"235 0 LINE",
"632 687 LINE",
"408 687 LINE",
"11 0 LINE"
);
},
{
closed = 1;
nodes = (
"663 92 LINE",
"663 235 LINE",
"244 235 LINE",
"244 92 LINE"
);
}
);
width = 689;
}
);
},
{
export = 0;
glyphname = k_arms;
lastChange = "2019-03-30 05:19:15 +0000";
layers = (
{
anchors = (
{
name = k_arms;
position = "{3, 125}";
}
);
layerId = "3B040282-CF47-4846-BCAF-7BFF90FB63BC";
paths = (
{
closed = 1;
nodes = (
"375 0 LINE",
"155 280 LINE",
"387 517 LINE",
"337 517 LINE",
"3 177 LINE",
"3 125 LINE",
"130 255 LINE",
"329 0 LINE"
);
}
);
width = 393;
},
{
anchors = (
{
name = k_arms;
position = "{22, 126}";
}
);
layerId = "35616FF6-3D9C-499B-B113-AC9E0DB5842A";
paths = (
{
closed = 1;
nodes = (
"399 0 LINE",
"179 280 LINE",
"412 517 LINE",
"316 517 LINE",
"22 220 LINE",
"22 126 LINE",
"126 229 LINE",
"305 0 LINE"
);
}
);
width = 420;
},
{
anchors = (
{
name = k_arms;
position = "{34, 107}";
}
);
layerId = "A0D976AB-773B-4D3A-9F7E-7A0C42AF1E7B";
paths = (
{
closed = 1;
nodes = (
"397 0 LINE",
"212 294 LINE",
"393 517 LINE",
"177 517 LINE",
"35 323 LINE",
"34 107 LINE",
"86 171 LINE",
"181 0 LINE"
);
}
);
width = 411;
}
);
},
{
export = 0;
glyphname = thorn_stem;
lastChange = "2019-04-09 14:01:56 +0000";
layers = (
{
anchors = (
{
name = loop_right;
position = "{138, 259}";
}
);
layerId = "3B040282-CF47-4846-BCAF-7BFF90FB63BC";
paths = (
{
closed = 1;
nodes = (
"138 -172 LINE",
"138 699 LINE",
"102 699 LINE",
"102 -172 LINE"
);
}
);
width = 240;
},
{
anchors = (
{
name = loop_right;
position = "{163, 259}";
}
);
layerId = "35616FF6-3D9C-499B-B113-AC9E0DB5842A";
paths = (
{
closed = 1;
nodes = (
"163 -172 LINE",
"163 699 LINE",
"88 699 LINE",
"88 -172 LINE"
);
}
);
width = 251;
},
{
anchors = (
{
name = loop_right;
position = "{252, 259}";
}
);
layerId = "A0D976AB-773B-4D3A-9F7E-7A0C42AF1E7B";
paths = (
{
closed = 1;
nodes = (
"252 -172 LINE",
"252 699 LINE",
"59 699 LINE",
"59 -172 LINE"
);
}
);
width = 311;
}
);
},
{
glyphname = zero;
lastChange = "2019-05-05 08:56:10 +0000";
layers = (
{
layerId = "A0D976AB-773B-4D3A-9F7E-7A0C42AF1E7B";
paths = (
{
closed = 1;
nodes = (
"558 -12 OFFCURVE",
"692 135 OFFCURVE",
"692 344 CURVE SMOOTH",
"692 552 OFFCURVE",
"558 699 OFFCURVE",
"368 699 CURVE SMOOTH",
"178 699 OFFCURVE",
"44 552 OFFCURVE",
"44 344 CURVE SMOOTH",
"44 135 OFFCURVE",
"178 -12 OFFCURVE",
"368 -12 CURVE SMOOTH"
);
},
{
closed = 1;
nodes = (
"295 164 OFFCURVE",
"244 239 OFFCURVE",
"244 344 CURVE SMOOTH",
"244 449 OFFCURVE",
"295 523 OFFCURVE",
"368 523 CURVE SMOOTH",
"441 523 OFFCURVE",
"492 449 OFFCURVE",
"492 344 CURVE SMOOTH",
"492 239 OFFCURVE",
"441 164 OFFCURVE",
"368 164 CURVE SMOOTH"
);
}
);
width = 736;
},
{
layerId = "35616FF6-3D9C-499B-B113-AC9E0DB5842A";
paths = (
{
closed = 1;
nodes = (
"509 -12 OFFCURVE",
"627 135 OFFCURVE",
"627 344 CURVE SMOOTH",
"627 552 OFFCURVE",
"509 699 OFFCURVE",
"342 699 CURVE SMOOTH",
"174 699 OFFCURVE",
"56 552 OFFCURVE",
"56 344 CURVE SMOOTH",
"56 135 OFFCURVE",
"174 -12 OFFCURVE",
"342 -12 CURVE SMOOTH"
);
},
{
closed = 1;
nodes = (
"221 60 OFFCURVE",
"135 178 OFFCURVE",
"135 344 CURVE SMOOTH",
"135 510 OFFCURVE",
"221 627 OFFCURVE",
"342 627 CURVE SMOOTH",
"463 627 OFFCURVE",
"548 510 OFFCURVE",
"548 344 CURVE SMOOTH",
"548 178 OFFCURVE",
"463 60 OFFCURVE",
"342 60 CURVE SMOOTH"
);
}
);
width = 683;
},
{
layerId = "3B040282-CF47-4846-BCAF-7BFF90FB63BC";
paths = (
{
closed = 1;
nodes = (
"492 -12 OFFCURVE",
"601 135 OFFCURVE",
"601 344 CURVE SMOOTH",
"601 552 OFFCURVE",
"492 699 OFFCURVE",
"337 699 CURVE SMOOTH",
"182 699 OFFCURVE",
"73 552 OFFCURVE",
"73 344 CURVE SMOOTH",
"73 135 OFFCURVE",
"182 -12 OFFCURVE",
"337 -12 CURVE SMOOTH"
);
},
{
closed = 1;
nodes = (
"203 24 OFFCURVE",
"109 157 OFFCURVE",
"109 344 CURVE SMOOTH",
"109 531 OFFCURVE",
"203 663 OFFCURVE",
"337 663 CURVE SMOOTH",
"471 663 OFFCURVE",
"565 531 OFFCURVE",
"565 344 CURVE SMOOTH",
"565 157 OFFCURVE",
"471 24 OFFCURVE",
"337 24 CURVE SMOOTH"
);
}
);
width = 674;
}
);
unicode = 0030;
},
{
color = 1;
glyphname = one;
lastChange = "2019-05-05 08:56:10 +0000";
layers = (
{
layerId = "A0D976AB-773B-4D3A-9F7E-7A0C42AF1E7B";
paths = (
{
closed = 1;
nodes = (
"409 0 LINE",
"409 687 LINE",
"254 687 LINE",
"24 533 LINE",
"100 399 LINE",
"215 469 LINE",
"215 0 LINE"
);
}
);
width = 492;
},
{
layerId = "35616FF6-3D9C-499B-B113-AC9E0DB5842A";
paths = (
{
closed = 1;
nodes = (
"279 0 LINE",
"279 687 LINE",
"216 687 LINE",
"47 572 LINE",
"81 514 LINE",
"201 592 LINE",
"201 0 LINE"
);
}
);
width = 357;
},
{
layerId = "3B040282-CF47-4846-BCAF-7BFF90FB63BC";
paths = (
{
closed = 1;
nodes = (
"277 0 LINE",
"277 687 LINE",
"248 687 LINE",
"66 572 LINE",
"85 542 LINE",
"241 640 LINE",
"241 0 LINE"
);
}
);
width = 367;
}
);
unicode = 0031;
},
{
glyphname = two;
lastChange = "2019-05-05 08:56:09 +0000";
layers = (
{
layerId = "A0D976AB-773B-4D3A-9F7E-7A0C42AF1E7B";
paths = (
{
closed = 1;
nodes = (
"601 0 LINE",
"601 173 LINE",
"348 173 LINE",
"437 230 LINE SMOOTH",
"559 308 OFFCURVE",
"595 378 OFFCURVE",
"595 468 CURVE SMOOTH",
"595 601 OFFCURVE",
"485 699 OFFCURVE",
"322 699 CURVE SMOOTH",
"208 699 OFFCURVE",
"115 653 OFFCURVE",
"39 563 CURVE",
"159 442 LINE",
"212 495 OFFCURVE",
"258 523 OFFCURVE",
"317 523 CURVE SMOOTH",
"362 523 OFFCURVE",
"395 498 OFFCURVE",
"395 460 CURVE SMOOTH",
"395 424 OFFCURVE",
"378 393 OFFCURVE",
"306 341 CURVE SMOOTH",
"51 157 LINE",
"51 0 LINE"
);
}
);
width = 657;
},
{
layerId = "35616FF6-3D9C-499B-B113-AC9E0DB5842A";
paths = (
{
closed = 1;
nodes = (
"524 0 LINE",
"524 74 LINE",
"175 74 LINE",
"355 230 LINE SMOOTH",
"471 330 OFFCURVE",
"517 404 OFFCURVE",
"517 497 CURVE SMOOTH",
"517 620 OFFCURVE",
"417 699 OFFCURVE",
"298 699 CURVE SMOOTH",
"190 699 OFFCURVE",
"113 648 OFFCURVE",
"56 567 CURVE",
"111 522 LINE",
"158 586 OFFCURVE",
"215 629 OFFCURVE",
"295 629 CURVE SMOOTH",
"368 629 OFFCURVE",
"438 580 OFFCURVE",
"438 496 CURVE SMOOTH",
"438 428 OFFCURVE",
"398 362 OFFCURVE",
"301 279 CURVE SMOOTH",
"50 65 LINE",
"50 0 LINE"
);
}
);
width = 579;
},
{
layerId = "3B040282-CF47-4846-BCAF-7BFF90FB63BC";
paths = (
{
closed = 1;
nodes = (
"532 0 LINE",
"532 36 LINE",
"118 36 LINE",
"358 241 LINE SMOOTH",
"462 330 OFFCURVE",
"514 414 OFFCURVE",
"514 498 CURVE SMOOTH",
"514 603 OFFCURVE",
"432 699 OFFCURVE",
"307 699 CURVE SMOOTH",
"225 699 OFFCURVE",
"136 658 OFFCURVE",
"74 567 CURVE",
"102 545 LINE",
"158 624 OFFCURVE",
"235 665 OFFCURVE",
"309 665 CURVE SMOOTH",
"414 665 OFFCURVE",
"478 581 OFFCURVE",
"478 497 CURVE SMOOTH",
"478 429 OFFCURVE",
"435 354 OFFCURVE",
"335 268 CURVE SMOOTH",
"68 39 LINE",
"68 0 LINE"
);
}
);
width = 600;
}
);
unicode = 0032;
},
{
glyphname = three;
lastChange = "2019-05-05 08:56:09 +0000";
layers = (
{
layerId = "A0D976AB-773B-4D3A-9F7E-7A0C42AF1E7B";
paths = (
{
closed = 1;
nodes = (
"493 -13 OFFCURVE",
"603 74 OFFCURVE",
"603 196 CURVE SMOOTH",
"603 281 OFFCURVE",
"540 336 OFFCURVE",
"462 354 CURVE",
"540 377 OFFCURVE",
"588 436 OFFCURVE",
"588 510 CURVE SMOOTH",
"588 618 OFFCURVE",
"490 699 OFFCURVE",
"320 699 CURVE SMOOTH",
"188 699 OFFCURVE",
"102 646 OFFCURVE",
"42 577 CURVE",
"149 458 LINE",
"193 499 OFFCURVE",
"242 526 OFFCURVE",
"299 526 CURVE SMOOTH",
"355 526 OFFCURVE",
"390 507 OFFCURVE",
"390 473 CURVE SMOOTH",
"390 442 OFFCURVE",
"361 425 OFFCURVE",
"297 425 CURVE SMOOTH",
"215 425 LINE",
"215 263 LINE",
"298 264 LINE SMOOTH",
"380 265 OFFCURVE",
"403 247 OFFCURVE",
"403 214 CURVE SMOOTH",
"403 183 OFFCURVE",
"372 160 OFFCURVE",
"310 160 CURVE SMOOTH",
"251 160 OFFCURVE",
"187 182 OFFCURVE",
"136 230 CURVE",
"27 101 LINE",
"91 33 OFFCURVE",
"190 -13 OFFCURVE",
"321 -13 CURVE SMOOTH"
);
}
);
width = 649;
},
{
layerId = "35616FF6-3D9C-499B-B113-AC9E0DB5842A";
paths = (
{
closed = 1;
nodes = (
"440 -12 OFFCURVE",
"536 71 OFFCURVE",
"536 186 CURVE SMOOTH",
"536 285 OFFCURVE",
"458 336 OFFCURVE",
"388 352 CURVE",
"459 373 OFFCURVE",
"521 425 OFFCURVE",
"521 513 CURVE SMOOTH",
"521 623 OFFCURVE",
"425 699 OFFCURVE",
"294 699 CURVE SMOOTH",
"187 699 OFFCURVE",
"111 647 OFFCURVE",
"59 578 CURVE",
"111 531 LINE",
"160 590 OFFCURVE",
"214 628 OFFCURVE",
"290 628 CURVE SMOOTH",
"376 628 OFFCURVE",
"442 576 OFFCURVE",
"442 504 CURVE SMOOTH",
"442 426 OFFCURVE",
"373 382 OFFCURVE",
"281 383 CURVE SMOOTH",
"207 384 LINE",
"207 312 LINE",
"280 312 LINE SMOOTH",
"388 312 OFFCURVE",
"457 271 OFFCURVE",
"457 190 CURVE SMOOTH",
"457 112 OFFCURVE",
"393 59 OFFCURVE",
"297 59 CURVE SMOOTH",
"213 59 OFFCURVE",
"146 99 OFFCURVE",
"101 157 CURVE",
"47 106 LINE",
"97 40 OFFCURVE",
"184 -12 OFFCURVE",
"297 -12 CURVE SMOOTH"
);
}
);
width = 590;
},
{
layerId = "3B040282-CF47-4846-BCAF-7BFF90FB63BC";
paths = (
{
closed = 1;
nodes = (
"420 -12 OFFCURVE",
"520 79 OFFCURVE",
"520 187 CURVE SMOOTH",
"520 272 OFFCURVE",
"473 334 OFFCURVE",
"393 352 CURVE",
"463 373 OFFCURVE",
"505 432 OFFCURVE",
"505 511 CURVE SMOOTH",
"505 613 OFFCURVE",
"411 699 OFFCURVE",
"299 699 CURVE SMOOTH",
"214 699 OFFCURVE",
"141 656 OFFCURVE",
"75 568 CURVE",
"102 544 LINE",
"158 624 OFFCURVE",
"222 663 OFFCURVE",
"295 663 CURVE SMOOTH",
"389 663 OFFCURVE",
"469 592 OFFCURVE",
"469 507 CURVE SMOOTH",
"469 418 OFFCURVE",
"401 366 OFFCURVE",
"286 366 CURVE SMOOTH",
"223 366 LINE",
"223 330 LINE",
"285 330 LINE SMOOTH",
"410 330 OFFCURVE",
"484 278 OFFCURVE",
"484 189 CURVE SMOOTH",
"484 99 OFFCURVE",
"401 24 OFFCURVE",
"302 24 CURVE SMOOTH",
"215 24 OFFCURVE",
"146 64 OFFCURVE",
"93 145 CURVE",
"67 120 LINE",
"134 31 OFFCURVE",
"211 -12 OFFCURVE",
"302 -12 CURVE SMOOTH"
);
}
);
width = 591;
}
);
unicode = 0033;
},
{
color = 1;
glyphname = four;
lastChange = "2019-05-05 08:56:10 +0000";
layers = (
{
layerId = "A0D976AB-773B-4D3A-9F7E-7A0C42AF1E7B";
paths = (
{
closed = 1;
nodes = (
"574 0 LINE",
"574 122 LINE",
"657 122 LINE",
"657 282 LINE",
"574 282 LINE",
"574 687 LINE",
"336 687 LINE",
"33 268 LINE",
"49 122 LINE",
"380 122 LINE",
"380 0 LINE"
);
},
{
closed = 1;
nodes = (
"380 488 LINE",
"380 282 LINE",
"232 282 LINE"
);
}
);
width = 692;
},
{
layerId = "35616FF6-3D9C-499B-B113-AC9E0DB5842A";
paths = (
{
closed = 1;
nodes = (
"479 0 LINE",
"479 167 LINE",
"582 167 LINE",
"582 238 LINE",
"479 238 LINE",
"479 687 LINE",
"389 687 LINE",
"48 232 LINE",
"58 167 LINE",
"401 167 LINE",
"401 0 LINE"
);
},
{
closed = 1;
nodes = (
"401 593 LINE",
"401 238 LINE",
"137 238 LINE"
);
}
);
width = 631;
},
{
layerId = "3B040282-CF47-4846-BCAF-7BFF90FB63BC";
paths = (
{
closed = 1;
nodes = (
"456 0 LINE",
"456 185 LINE",
"570 185 LINE",
"570 221 LINE",
"456 221 LINE",
"456 687 LINE",
"406 687 LINE",
"67 222 LINE",
"73 185 LINE",
"420 185 LINE",
"420 0 LINE"
);
},
{
closed = 1;
nodes = (
"420 644 LINE",
"420 221 LINE",
"112 221 LINE"
);
}
);
width = 637;
}
);
unicode = 0034;
},
{
glyphname = five;
lastChange = "2019-05-05 08:55:59 +0000";
layers = (
{
layerId = "A0D976AB-773B-4D3A-9F7E-7A0C42AF1E7B";
paths = (
{
closed = 1;
nodes = (
"502 -13 OFFCURVE",
"615 82 OFFCURVE",
"615 234 CURVE SMOOTH",
"615 376 OFFCURVE",
"508 454 OFFCURVE",
"388 454 CURVE SMOOTH",
"336 454 OFFCURVE",
"294 439 OFFCURVE",
"262 416 CURVE",
"265 514 LINE",
"577 514 LINE",
"577 687 LINE",
"88 687 LINE",
"78 304 LINE",
"205 256 LINE",
"238 282 OFFCURVE",
"278 296 OFFCURVE",
"325 296 CURVE SMOOTH",
"386 296 OFFCURVE",
"422 269 OFFCURVE",
"422 227 CURVE SMOOTH",
"422 188 OFFCURVE",
"388 154 OFFCURVE",
"322 154 CURVE SMOOTH",
"263 154 OFFCURVE",
"202 183 OFFCURVE",
"151 226 CURVE",
"41 90 LINE",
"110 26 OFFCURVE",
"201 -13 OFFCURVE",
"322 -13 CURVE SMOOTH"
);
}
);
width = 662;
},
{
layerId = "35616FF6-3D9C-499B-B113-AC9E0DB5842A";
paths = (
{
closed = 1;
nodes = (
"429 -12 OFFCURVE",
"532 78 OFFCURVE",
"532 214 CURVE SMOOTH",
"532 350 OFFCURVE",
"429 428 OFFCURVE",
"305 428 CURVE SMOOTH",
"242 428 OFFCURVE",
"195 407 OFFCURVE",
"158 382 CURVE",
"165 613 LINE",
"495 613 LINE",
"495 687 LINE",
"89 687 LINE",
"79 334 LINE",
"136 306 LINE",
"179 338 OFFCURVE",
"230 359 OFFCURVE",
"289 359 CURVE SMOOTH",
"385 359 OFFCURVE",
"453 299 OFFCURVE",
"453 211 CURVE SMOOTH",
"453 124 OFFCURVE",
"386 58 OFFCURVE",
"291 58 CURVE SMOOTH",
"215 58 OFFCURVE",
"150 96 OFFCURVE",
"97 154 CURVE",
"46 97 LINE",
"102 33 OFFCURVE",
"182 -12 OFFCURVE",
"288 -12 CURVE SMOOTH"
);
}
);
width = 584;
},
{
layerId = "3B040282-CF47-4846-BCAF-7BFF90FB63BC";
paths = (
{
closed = 1;
nodes = (
"430 -12 OFFCURVE",
"531 91 OFFCURVE",
"531 214 CURVE SMOOTH",
"531 325 OFFCURVE",
"435 418 OFFCURVE",
"321 418 CURVE SMOOTH",
"258 418 OFFCURVE",
"196 398 OFFCURVE",
"156 364 CURVE",
"163 651 LINE",
"505 651 LINE",
"505 687 LINE",
"128 687 LINE",
"119 341 LINE",
"155 323 LINE",
"204 360 OFFCURVE",
"262 382 OFFCURVE",
"313 382 CURVE SMOOTH",
"412 382 OFFCURVE",
"495 304 OFFCURVE",
"495 211 CURVE SMOOTH",
"495 109 OFFCURVE",
"410 24 OFFCURVE",
"310 24 CURVE SMOOTH",
"227 24 OFFCURVE",
"145 61 OFFCURVE",
"90 124 CURVE",
"66 97 LINE",
"126 28 OFFCURVE",
"217 -12 OFFCURVE",
"310 -12 CURVE SMOOTH"
);
}
);
width = 601;
}
);
unicode = 0035;
},
{
glyphname = six;
lastChange = "2019-05-05 08:56:10 +0000";
layers = (
{
layerId = "A0D976AB-773B-4D3A-9F7E-7A0C42AF1E7B";
paths = (
{
closed = 1;
nodes = (
"514 -12 OFFCURVE",
"636 83 OFFCURVE",
"636 233 CURVE SMOOTH",
"636 370 OFFCURVE",
"531 454 OFFCURVE",
"403 454 CURVE SMOOTH",
"326 454 OFFCURVE",
"247 420 OFFCURVE",
"211 371 CURVE",
"232 181 LINE",
"235 250 OFFCURVE",
"280 299 OFFCURVE",
"341 299 CURVE SMOOTH",
"391 299 OFFCURVE",
"436 272 OFFCURVE",
"436 225 CURVE SMOOTH",
"436 183 OFFCURVE",
"400 152 OFFCURVE",
"346 152 CURVE SMOOTH",
"262 152 OFFCURVE",
"246 202 OFFCURVE",
"246 331 CURVE SMOOTH",
"246 458 OFFCURVE",
"294 530 OFFCURVE",
"389 530 CURVE SMOOTH",
"441 530 OFFCURVE",
"479 514 OFFCURVE",
"520 484 CURVE",
"608 630 LINE",
"548 673 OFFCURVE",
"474 699 OFFCURVE",
"387 699 CURVE SMOOTH",
"174 699 OFFCURVE",
"46 552 OFFCURVE",
"46 331 CURVE SMOOTH",
"46 127 OFFCURVE",
"149 -12 OFFCURVE",
"359 -12 CURVE SMOOTH"
);
}
);
width = 676;
},
{
layerId = "35616FF6-3D9C-499B-B113-AC9E0DB5842A";
paths = (
{
closed = 1;
nodes = (
"460 -12 OFFCURVE",
"559 88 OFFCURVE",
"559 215 CURVE SMOOTH",
"559 351 OFFCURVE",
"454 429 OFFCURVE",
"329 429 CURVE SMOOTH",
"240 429 OFFCURVE",
"163 382 OFFCURVE",
"123 303 CURVE",
"140 203 LINE",
"144 296 OFFCURVE",
"217 362 OFFCURVE",
"315 362 CURVE SMOOTH",
"407 362 OFFCURVE",
"480 305 OFFCURVE",
"480 211 CURVE SMOOTH",
"480 135 OFFCURVE",
"419 55 OFFCURVE",
"316 55 CURVE SMOOTH",
"191 55 OFFCURVE",
"135 181 OFFCURVE",
"135 333 CURVE SMOOTH",
"135 498 OFFCURVE",
"222 628 OFFCURVE",
"332 628 CURVE SMOOTH",
"398 628 OFFCURVE",
"443 598 OFFCURVE",
"486 556 CURVE",
"529 617 LINE",
"478 666 OFFCURVE",
"418 699 OFFCURVE",
"334 699 CURVE SMOOTH",
"178 699 OFFCURVE",
"56 538 OFFCURVE",
"56 333 CURVE SMOOTH",
"56 139 OFFCURVE",
"131 -12 OFFCURVE",
"317 -12 CURVE SMOOTH"
);
}
);
width = 611;
},
{
layerId = "3B040282-CF47-4846-BCAF-7BFF90FB63BC";
paths = (
{
closed = 1;
nodes = (
"433 -12 OFFCURVE",
"534 91 OFFCURVE",
"534 214 CURVE SMOOTH",
"534 331 OFFCURVE",
"437 429 OFFCURVE",
"322 429 CURVE SMOOTH",
"203 429 OFFCURVE",
"103 351 OFFCURVE",
"103 258 CURVE",
"112 208 LINE",
"116 308 OFFCURVE",
"209 393 OFFCURVE",
"315 393 CURVE SMOOTH",
"414 393 OFFCURVE",
"498 310 OFFCURVE",
"498 212 CURVE SMOOTH",
"498 110 OFFCURVE",
"413 24 OFFCURVE",
"313 24 CURVE SMOOTH",
"185 24 OFFCURVE",
"109 139 OFFCURVE",
"109 333 CURVE SMOOTH",
"109 526 OFFCURVE",
"200 663 OFFCURVE",
"328 663 CURVE SMOOTH",
"391 663 OFFCURVE",
"457 635 OFFCURVE",
"505 588 CURVE",
"525 617 LINE",
"471 669 OFFCURVE",
"399 699 OFFCURVE",
"330 699 CURVE SMOOTH",
"180 699 OFFCURVE",
"74 547 OFFCURVE",
"74 333 CURVE SMOOTH",
"74 116 OFFCURVE",
"163 -12 OFFCURVE",
"313 -12 CURVE SMOOTH"
);
}
);
width = 604;
}
);
unicode = 0036;
},
{
glyphname = seven;
lastChange = "2019-05-05 08:56:09 +0000";
layers = (
{
layerId = "A0D976AB-773B-4D3A-9F7E-7A0C42AF1E7B";
paths = (
{
closed = 1;
nodes = (
"314 0 LINE",
"579 541 LINE",
"579 687 LINE",
"37 687 LINE",
"37 514 LINE",
"356 514 LINE",
"96 0 LINE"
);
}
);
width = 617;
},
{
layerId = "35616FF6-3D9C-499B-B113-AC9E0DB5842A";
paths = (
{
closed = 1;
nodes = (
"218 0 LINE",
"514 628 LINE",
"514 687 LINE",
"49 687 LINE",
"49 613 LINE",
"421 613 LINE",
"128 0 LINE"
);
}
);
width = 563;
},
{
layerId = "3B040282-CF47-4846-BCAF-7BFF90FB63BC";
paths = (
{
closed = 1;
nodes = (
"213 0 LINE",
"522 658 LINE",
"522 687 LINE",
"67 687 LINE",
"67 651 LINE",
"479 651 LINE",
"173 0 LINE"
);
}
);
width = 589;
}
);
unicode = 0037;
},
{
glyphname = eight;
lastChange = "2019-05-05 08:56:10 +0000";
layers = (
{
layerId = "A0D976AB-773B-4D3A-9F7E-7A0C42AF1E7B";
paths = (
{
closed = 1;
nodes = (
"495 -12 OFFCURVE",
"630 56 OFFCURVE",
"630 187 CURVE SMOOTH",
"630 261 OFFCURVE",
"585 320 OFFCURVE",
"506 355 CURVE",
"573 387 OFFCURVE",
"612 437 OFFCURVE",
"612 510 CURVE SMOOTH",
"612 631 OFFCURVE",
"484 699 OFFCURVE",
"337 699 CURVE SMOOTH",
"193 699 OFFCURVE",
"63 634 OFFCURVE",
"63 509 CURVE SMOOTH",
"63 432 OFFCURVE",
"107 384 OFFCURVE",
"168 355 CURVE",
"93 323 OFFCURVE",
"45 265 OFFCURVE",
"45 187 CURVE SMOOTH",
"45 57 OFFCURVE",
"178 -12 OFFCURVE",
"337 -12 CURVE SMOOTH"
);
},
{
closed = 1;
nodes = (
"278 148 OFFCURVE",
"241 173 OFFCURVE",
"241 210 CURVE SMOOTH",
"241 245 OFFCURVE",
"286 269 OFFCURVE",
"337 272 CURVE",
"388 269 OFFCURVE",
"434 245 OFFCURVE",
"434 210 CURVE SMOOTH",
"434 173 OFFCURVE",
"395 148 OFFCURVE",
"337 148 CURVE SMOOTH"
);
},
{
closed = 1;
nodes = (
"291 423 OFFCURVE",
"254 448 OFFCURVE",
"254 482 CURVE SMOOTH",
"254 514 OFFCURVE",
"285 540 OFFCURVE",
"337 540 CURVE SMOOTH",
"389 540 OFFCURVE",
"421 514 OFFCURVE",
"421 482 CURVE SMOOTH",
"421 449 OFFCURVE",
"383 423 OFFCURVE",
"337 420 CURVE"
);
}
);
width = 675;
},
{
layerId = "35616FF6-3D9C-499B-B113-AC9E0DB5842A";
paths = (
{
closed = 1;
nodes = (
"445 -12 OFFCURVE",
"555 63 OFFCURVE",
"555 180 CURVE SMOOTH",
"555 266 OFFCURVE",
"487 327 OFFCURVE",
"404 355 CURVE",
"475 381 OFFCURVE",
"538 432 OFFCURVE",
"538 516 CURVE SMOOTH",
"538 629 OFFCURVE",
"427 699 OFFCURVE",
"304 699 CURVE SMOOTH",
"185 699 OFFCURVE",
"71 631 OFFCURVE",
"71 517 CURVE SMOOTH",
"71 438 OFFCURVE",
"127 385 OFFCURVE",
"205 355 CURVE",
"121 328 OFFCURVE",
"53 266 OFFCURVE",
"53 180 CURVE SMOOTH",
"53 64 OFFCURVE",
"162 -12 OFFCURVE",
"304 -12 CURVE SMOOTH"
);
},
{
closed = 1;
nodes = (
"209 59 OFFCURVE",
"132 110 OFFCURVE",
"132 185 CURVE SMOOTH",
"132 268 OFFCURVE",
"233 316 OFFCURVE",
"304 318 CURVE",
"376 316 OFFCURVE",
"476 268 OFFCURVE",
"476 185 CURVE SMOOTH",
"476 110 OFFCURVE",
"399 59 OFFCURVE",
"304 59 CURVE SMOOTH"
);
},
{
closed = 1;
nodes = (
"239 390 OFFCURVE",
"150 429 OFFCURVE",
"150 509 CURVE SMOOTH",
"150 578 OFFCURVE",
"218 628 OFFCURVE",
"304 628 CURVE SMOOTH",
"390 628 OFFCURVE",
"459 578 OFFCURVE",
"459 509 CURVE SMOOTH",
"459 431 OFFCURVE",
"371 390 OFFCURVE",
"304 386 CURVE"
);
}
);
width = 608;
},
{
layerId = "3B040282-CF47-4846-BCAF-7BFF90FB63BC";
paths = (
{
closed = 1;
nodes = (
"424 -12 OFFCURVE",
"529 74 OFFCURVE",
"529 177 CURVE SMOOTH",
"529 255 OFFCURVE",
"467 328 OFFCURVE",
"379 354 CURVE",
"457 379 OFFCURVE",
"512 448 OFFCURVE",
"512 520 CURVE SMOOTH",
"512 617 OFFCURVE",
"415 699 OFFCURVE",
"299 699 CURVE SMOOTH",
"184 699 OFFCURVE",
"88 617 OFFCURVE",
"88 520 CURVE SMOOTH",
"88 449 OFFCURVE",
"143 380 OFFCURVE",
"220 354 CURVE",
"132 329 OFFCURVE",
"70 256 OFFCURVE",
"70 177 CURVE SMOOTH",
"70 74 OFFCURVE",
"175 -12 OFFCURVE",
"299 -12 CURVE SMOOTH"
);
},
{
closed = 1;
nodes = (
"194 24 OFFCURVE",
"106 95 OFFCURVE",
"106 179 CURVE SMOOTH",
"106 265 OFFCURVE",
"186 328 OFFCURVE",
"299 331 CURVE",
"413 328 OFFCURVE",
"493 265 OFFCURVE",
"493 179 CURVE SMOOTH",
"493 95 OFFCURVE",
"404 24 OFFCURVE",
"299 24 CURVE SMOOTH"
);
},
{
closed = 1;
nodes = (
"196 379 OFFCURVE",
"124 438 OFFCURVE",
"124 516 CURVE SMOOTH",
"124 596 OFFCURVE",
"204 663 OFFCURVE",
"299 663 CURVE SMOOTH",
"395 663 OFFCURVE",
"476 596 OFFCURVE",
"476 516 CURVE SMOOTH",
"476 438 OFFCURVE",
"403 379 OFFCURVE",
"299 373 CURVE"
);
}
);
width = 599;
}
);
unicode = 0038;
},
{
glyphname = period;
lastChange = "2019-05-05 05:41:08 +0000";
layers = (
{
layerId = "35616FF6-3D9C-499B-B113-AC9E0DB5842A";
paths = (
{
closed = 1;
nodes = (
"142 -12 OFFCURVE",
"166 13 OFFCURVE",
"166 43 CURVE SMOOTH",
"166 71 OFFCURVE",
"142 96 OFFCURVE",
"113 96 CURVE SMOOTH",
"82 96 OFFCURVE",
"58 71 OFFCURVE",
"58 43 CURVE SMOOTH",
"58 13 OFFCURVE",
"82 -12 OFFCURVE",
"113 -12 CURVE SMOOTH"
);
}
);
width = 225;
},
{
layerId = "A0D976AB-773B-4D3A-9F7E-7A0C42AF1E7B";
paths = (
{
closed = 1;
nodes = (
"224 -12 OFFCURVE",
"275 41 OFFCURVE",
"275 106 CURVE SMOOTH",
"275 166 OFFCURVE",
"224 219 OFFCURVE",
"162 219 CURVE SMOOTH",
"95 219 OFFCURVE",
"44 166 OFFCURVE",
"44 106 CURVE SMOOTH",
"44 41 OFFCURVE",
"95 -12 OFFCURVE",
"162 -12 CURVE SMOOTH"
);
}
);
width = 320;
},
{
layerId = "3B040282-CF47-4846-BCAF-7BFF90FB63BC";
paths = (
{
closed = 1;
nodes = (
"127 -12 OFFCURVE",
"140 2 OFFCURVE",
"140 19 CURVE SMOOTH",
"140 34 OFFCURVE",
"127 48 OFFCURVE",
"111 48 CURVE SMOOTH",
"93 48 OFFCURVE",
"80 34 OFFCURVE",
"80 19 CURVE SMOOTH",
"80 2 OFFCURVE",
"93 -12 OFFCURVE",
"111 -12 CURVE SMOOTH"
);
}
);
width = 221;
}
);
unicode = 002E;
},
{
color = 1;
glyphname = comma;
lastChange = "2019-05-05 08:52:46 +0000";
layers = (
{
layerId = "35616FF6-3D9C-499B-B113-AC9E0DB5842A";
paths = (
{
closed = 1;
nodes = (
"156 -58 OFFCURVE",
"173 -24 OFFCURVE",
"173 16 CURVE SMOOTH",
"173 62 OFFCURVE",
"150 96 OFFCURVE",
"112 96 CURVE SMOOTH",
"80 96 OFFCURVE",
"57 71 OFFCURVE",
"57 43 CURVE SMOOTH",
"57 13 OFFCURVE",
"81 -12 OFFCURVE",
"111 -12 CURVE",
"103 -43 OFFCURVE",
"86 -74 OFFCURVE",
"59 -105 CURVE",
"96 -133 LINE"
);
}
);
width = 230;
},
{
layerId = "A0D976AB-773B-4D3A-9F7E-7A0C42AF1E7B";
paths = (
{
closed = 1;
nodes = (
"224 -89 OFFCURVE",
"270 -8 OFFCURVE",
"270 65 CURVE SMOOTH",
"270 155 OFFCURVE",
"221 219 OFFCURVE",
"152 219 CURVE SMOOTH",
"91 219 OFFCURVE",
"39 166 OFFCURVE",
"39 102 CURVE SMOOTH",
"39 40 OFFCURVE",
"89 -12 OFFCURVE",
"149 -12 CURVE",
"140 -45 OFFCURVE",
"116 -80 OFFCURVE",
"82 -107 CURVE",
"145 -155 LINE"
);
}
);
width = 315;
},
{
layerId = "3B040282-CF47-4846-BCAF-7BFF90FB63BC";
paths = (
{
closed = 1;
nodes = (
"134 -72 OFFCURVE",
"153 -29 OFFCURVE",
"153 6 CURVE SMOOTH",
"153 33 OFFCURVE",
"140 48 OFFCURVE",
"121 48 CURVE SMOOTH",
"103 48 OFFCURVE",
"90 35 OFFCURVE",
"90 18 CURVE SMOOTH",
"90 1 OFFCURVE",
"102 -12 OFFCURVE",
"121 -12 CURVE",
"114 -40 OFFCURVE",
"95 -74 OFFCURVE",
"69 -104 CURVE",
"95 -123 LINE"
);
}
);
width = 229;
}
);
unicode = 002C;
},
